<?xml version="1.0" encoding="UTF-8"?> <svg xmlns="http://www.w3.org/2000/svg" id="Layer_1_copy" data-name="Layer 1 copy" viewBox="0 0 434.8 110.8"><defs><style> .cls-1 { stroke-width: .14px; } .cls-1, .cls-2 { fill: none; } .cls-1, .cls-2, .cls-3, .cls-4 { stroke: #44459b; } .cls-1, .cls-3, .cls-4 { stroke-miterlimit: 10; } .cls-5 { fill: #231f20; } .cls-6, .cls-4 { fill: #44459b; } .cls-2 { stroke-linejoin: round; stroke-width: 1.08px; } .cls-3 { fill: #fff; } </style></defs><path class="cls-1" d="m114.25,35.3c0-10.07,8.11-16.94,18.24-16.94,6.99,0,11.36,3.09,14.13,6.92l-4.53,2.21c-1.87-2.75-5.39-4.76-9.6-4.76-7.2,0-12.75,5.21-12.75,12.57s5.55,12.57,12.75,12.57c4.21,0,7.73-2.01,9.6-4.76l4.53,2.21c-2.83,3.83-7.15,6.92-14.13,6.92-10.13,0-18.24-6.87-18.24-16.94Z"></path><path class="cls-6" d="m169.23,18.36c10.61,0,17.92,7.22,17.92,16.94s-7.31,16.94-17.92,16.94-17.92-7.22-17.92-16.94,7.31-16.94,17.92-16.94m0,4.37c-7.63,0-12.43,5.35-12.43,12.57s4.8,12.57,12.43,12.57,12.43-5.4,12.43-12.57-4.91-12.57-12.43-12.57"></path><path class="cls-1" d="m169.23,18.36c10.61,0,17.92,7.22,17.92,16.94s-7.31,16.94-17.92,16.94-17.92-7.22-17.92-16.94,7.31-16.94,17.92-16.94Zm0,4.37c-7.63,0-12.43,5.35-12.43,12.57s4.8,12.57,12.43,12.57,12.43-5.4,12.43-12.57-4.91-12.57-12.43-12.57Z"></path><polygon class="cls-6" points="219.47 51.65 199.79 26.51 199.79 51.65 194.45 51.65 194.45 18.9 199.95 18.9 219.31 43.45 219.31 18.9 224.64 18.9 224.64 51.65 219.47 51.65"></polygon><polygon class="cls-1" points="219.47 51.65 199.79 26.51 199.79 51.65 194.45 51.65 194.45 18.9 199.95 18.9 219.31 43.45 219.31 18.9 224.64 18.9 224.64 51.65 219.47 51.65"></polygon><polygon class="cls-6" points="258.39 51.65 238.71 26.51 238.71 51.65 233.38 51.65 233.38 18.9 238.87 18.9 258.23 43.45 258.23 18.9 263.57 18.9 263.57 51.65 258.39 51.65"></polygon><polygon class="cls-1" points="258.39 51.65 238.71 26.51 238.71 51.65 233.38 51.65 233.38 18.9 238.87 18.9 258.23 43.45 258.23 18.9 263.57 18.9 263.57 51.65 258.39 51.65"></polygon><polygon class="cls-6" points="272.31 51.65 272.31 18.9 296.2 18.9 296.2 23.22 277.64 23.22 277.64 32.79 295.83 32.79 295.83 37.11 277.64 37.11 277.64 47.33 296.2 47.33 296.2 51.65 272.31 51.65"></polygon><polygon class="cls-1" points="272.31 51.65 272.31 18.9 296.2 18.9 296.2 23.22 277.64 23.22 277.64 32.79 295.83 32.79 295.83 37.11 277.64 37.11 277.64 47.33 296.2 47.33 296.2 51.65 272.31 51.65"></polygon><path class="cls-6" d="m302.22,35.3c0-10.07,8.11-16.94,18.24-16.94,6.99,0,11.36,3.09,14.13,6.92l-4.53,2.21c-1.87-2.75-5.39-4.76-9.6-4.76-7.2,0-12.75,5.21-12.75,12.57s5.55,12.57,12.75,12.57c4.21,0,7.73-2.01,9.6-4.76l4.53,2.21c-2.83,3.83-7.15,6.92-14.13,6.92-10.13,0-18.24-6.87-18.24-16.94"></path><path class="cls-1" d="m302.22,35.3c0-10.07,8.11-16.94,18.24-16.94,6.99,0,11.36,3.09,14.13,6.92l-4.53,2.21c-1.87-2.75-5.39-4.76-9.6-4.76-7.2,0-12.75,5.21-12.75,12.57s5.55,12.57,12.75,12.57c4.21,0,7.73-2.01,9.6-4.76l4.53,2.21c-2.83,3.83-7.15,6.92-14.13,6.92-10.13,0-18.24-6.87-18.24-16.94Z"></path><polygon class="cls-6" points="349.47 51.65 349.47 23.22 338.43 23.22 338.43 18.9 365.79 18.9 365.79 23.22 354.8 23.22 354.8 51.65 349.47 51.65"></polygon><polygon class="cls-1" points="349.47 51.65 349.47 23.22 338.43 23.22 338.43 18.9 365.79 18.9 365.79 23.22 354.8 23.22 354.8 51.65 349.47 51.65"></polygon><polygon class="cls-6" points="372.18 51.65 372.18 18.9 396.07 18.9 396.07 23.22 377.52 23.22 377.52 32.79 395.7 32.79 395.7 37.11 377.52 37.11 377.52 47.33 396.07 47.33 396.07 51.65 372.18 51.65"></polygon><polygon class="cls-1" points="372.18 51.65 372.18 18.9 396.07 18.9 396.07 23.22 377.52 23.22 377.52 32.79 395.7 32.79 395.7 37.11 377.52 37.11 377.52 47.33 396.07 47.33 396.07 51.65 372.18 51.65"></polygon><path class="cls-6" d="m403.59,51.65V18.9h12.7c11.09,0,18.45,6.97,18.45,16.4s-7.36,16.35-18.45,16.35h-12.7Zm5.34-4.32h7.36c8.21,0,12.96-5.4,12.96-12.03s-4.59-12.08-12.96-12.08h-7.36v24.11Z"></path><path class="cls-1" d="m403.59,51.65V18.9h12.7c11.09,0,18.45,6.97,18.45,16.4s-7.36,16.35-18.45,16.35h-12.7Zm5.34-4.32h7.36c8.21,0,12.96-5.4,12.96-12.03s-4.59-12.08-12.96-12.08h-7.36v24.11Z"></path><path class="cls-5" d="m119.67,73.61c0-9.84,7.6-16.56,17.12-16.56,5.51,0,9.58,2.26,12.49,5.66l-2.45,1.49c-2.14-2.78-5.86-4.65-10.04-4.65-7.9,0-14.07,5.71-14.07,14.06s6.17,14.07,14.07,14.07c4.18,0,7.9-1.87,10.04-4.66l2.45,1.44c-3.01,3.5-6.98,5.71-12.49,5.71-9.53,0-17.12-6.72-17.12-16.56"></path><path class="cls-5" d="m171.35,57.05c9.94,0,16.51,7.2,16.51,16.56s-6.57,16.56-16.51,16.56-16.51-7.2-16.51-16.56,6.53-16.56,16.51-16.56m0,2.5c-8.26,0-13.45,5.9-13.45,14.06s5.2,14.07,13.45,14.07,13.46-6,13.46-14.07-5.3-14.06-13.46-14.06"></path><polygon class="cls-5" points="224.81 89.6 224.81 61.18 212.42 89.6 211.3 89.6 198.86 61.18 198.86 89.6 195.96 89.6 195.96 57.58 200.29 57.58 211.86 84.12 223.38 57.58 227.76 57.58 227.76 89.6 224.81 89.6"></polygon><polygon class="cls-5" points="265.98 89.6 265.98 61.18 253.59 89.6 252.47 89.6 240.04 61.18 240.04 89.6 237.13 89.6 237.13 57.58 241.46 57.58 253.03 84.12 264.55 57.58 268.94 57.58 268.94 89.6 265.98 89.6"></polygon><path class="cls-5" d="m278.31,57.58h2.96v19.68c0,6.48,3.62,10.42,10.3,10.42s10.3-3.94,10.3-10.42v-19.68h2.96v19.73c0,7.92-4.48,12.86-13.25,12.86s-13.25-4.99-13.25-12.86v-19.73Z"></path><polygon class="cls-5" points="338.49 89.6 317.09 61.95 317.09 89.6 314.18 89.6 314.18 57.58 317.14 57.58 338.44 84.84 338.44 57.58 341.35 57.58 341.35 89.6 338.49 89.6"></polygon><rect class="cls-5" x="350.72" y="57.58" width="2.91" height="32.02"></rect><polygon class="cls-5" points="371.66 89.6 371.66 60.08 360.55 60.08 360.55 57.58 385.73 57.58 385.73 60.08 374.62 60.08 374.62 89.6 371.66 89.6"></polygon><polygon class="cls-5" points="402.7 89.6 402.7 75.92 389.19 57.58 392.71 57.58 404.18 73.32 415.64 57.58 419.16 57.58 405.65 75.92 405.65 89.6 402.7 89.6"></polygon><path class="cls-2" d="m81.51,37.03L47.77,3.4l-1.63-1.62c-1.65-1.65-4.34-1.65-5.99,0l-1.63,1.62L4.78,37.03c-1.65,1.65-1.65,4.32,0,5.97l1.63,1.63c1.65,1.65,4.34,1.65,5.99,0l.5-.5v38.25c0,3.81,3.1,6.9,6.92,6.9h46.65c3.82,0,6.92-3.09,6.92-6.9v-38.25l.5.5c1.65,1.65,4.34,1.65,5.99,0l1.63-1.63c1.65-1.65,1.65-4.32,0-5.97Z"></path><path class="cls-6" d="m102.26,38.65L68.51,5.02l-1.63-1.62c-1.65-1.65-4.34-1.65-5.99,0l-1.63,1.62L25.52,38.65c-1.65,1.65-1.65,4.32,0,5.97l1.63,1.63c1.65,1.65,4.34,1.65,5.99,0l.5-.5v8.82h13.98c.57-1.2,1.77-2.02,3.17-2.02,1.94,0,3.51,1.6,3.51,3.56s-1.57,3.56-3.51,3.56c-1.4,0-2.6-.83-3.17-2.02h-13.98v8.89h25c.57-1.2,1.77-2.02,3.17-2.02,1.94,0,3.52,1.59,3.52,3.56s-1.57,3.56-3.52,3.56c-1.4,0-2.6-.83-3.17-2.02h-25v8.89h8.57c.57-1.2,1.77-2.02,3.17-2.02,1.94,0,3.52,1.6,3.52,3.56s-1.57,3.56-3.52,3.56c-1.4,0-2.6-.83-3.17-2.02h-8.57v2.44c0,3.81,3.1,6.9,6.92,6.9h46.65c3.82,0,6.92-3.09,6.92-6.9v-38.25l.5.5c1.65,1.65,4.34,1.65,5.99,0l1.63-1.63c1.65-1.65,1.65-4.32,0-5.97"></path><line class="cls-3" x1="6.77" y1="106.4" x2="428.9" y2="106.4"></line><ellipse class="cls-4" cx="425.9" cy="106.4" rx="4.72" ry="3.9"></ellipse><path class="cls-6" d="m114.25,35.3c0-10.07,8.11-16.94,18.24-16.94,6.99,0,11.36,3.09,14.13,6.92l-4.53,2.21c-1.87-2.75-5.39-4.76-9.6-4.76-7.2,0-12.75,5.21-12.75,12.57s5.55,12.57,12.75,12.57c4.21,0,7.73-2.01,9.6-4.76l4.53,2.21c-2.83,3.83-7.15,6.92-14.13,6.92-10.13,0-18.24-6.87-18.24-16.94"></path><ellipse class="cls-4" cx="5.22" cy="106.4" rx="4.72" ry="3.9"></ellipse></svg> 