<svg viewBox="0 0 492 492" xmlns="http://www.w3.org/2000/svg"><circle cx="246" cy="246" fill="#7dc143" r="246"/><path d="m246.79 405.45c-31.8-2.14-53.95-8.57-71.82-20.72-14.65-9.65-25-23.23-31.44-40.38-2.15-6.79-3.58-13.22-5.36-26.08l73.6-13.22c1.43 15 4.29 22.51 10.72 29.66 6.08 6.43 13.22 9.64 24.3 11.07v-67.53c-27.87-5.72-44.31-10.72-59-18.22-28.23-14.3-44.66-41.09-44.66-73.25 0-35.73 21.79-66.46 55.38-79.33a136.5 136.5 0 0 1 48.24-9.64v-19.66h24.3v20c23.22 1.43 40.37 6.08 57.53 15 23.22 12.15 37.87 32.52 44.66 63.25l-73.24 12.52c-2.5-19.65-11.79-29.3-28.94-31.8v59c41.45 7.86 58.24 13.57 74 24.29 23.94 16.4 36.08 39.59 36.08 69.64 0 57.53-41.81 94-110 96.12v27.51h-24.3zm0-248.69c-20 1.43-31.09 11.44-31.09 27.52 0 9.29 4.29 16.43 12.51 21.08 3.57 2.14 7.5 3.57 18.58 6.43zm24.3 189.38c23.94-1.79 35.73-12.51 35.73-32.87 0-11.44-4.65-19.66-13.58-24.3-5.72-2.86-9.65-4.29-22.15-7.15z" fill="#fff" transform="translate(-10 -10)"/></svg>