<svg id="Layer_1" data-name="Layer 1" xmlns="http://www.w3.org/2000/svg" viewBox="0 0 492 492"><defs><style>.cls-1{fill:#7dc143;}.cls-2{fill:#fff;}</style></defs><g id="link"><circle class="cls-1" cx="246" cy="246" r="246"/><g id="link-2" data-name="link"><path class="cls-2" d="M289,223.3A67.8,67.8,0,0,0,277.25,214a70.32,70.32,0,0,0-87.05,9.34l-63.46,62.93a68.89,68.89,0,0,0-20.41,48.85c0,38.22,31.22,69.23,69.8,69.25a69.76,69.76,0,0,0,49.34-20.17l52.38-51.91a4.91,4.91,0,0,0,1.48-3.53,5,5,0,0,0-5-4.92h-2a84.48,84.48,0,0,1-31.93-6.13,5,5,0,0,0-5.44,1.09l-37.67,37.37a30.15,30.15,0,0,1-42.36,0,29.5,29.5,0,0,1,0-42l63.71-63.08a30.14,30.14,0,0,1,42.31,0,20.58,20.58,0,0,0,28,0,19.45,19.45,0,0,0,0-27.78Z" transform="translate(-10 -10)"/><path class="cls-2" d="M385.22,127.94a70.31,70.31,0,0,0-98.79,0L234.1,179.75a4.91,4.91,0,0,0-1,5.44,5,5,0,0,0,4.69,3h1.85a84.5,84.5,0,0,1,31.88,6.18,5,5,0,0,0,5.43-1.09l37.57-37.17a30.15,30.15,0,0,1,42.36,0,29.5,29.5,0,0,1,0,42L310,244.41l-.4.44L293.27,261A30.13,30.13,0,0,1,251,261a20.58,20.58,0,0,0-28,0,19.6,19.6,0,0,0,0,27.88,69.22,69.22,0,0,0,20,13.84c1.05.5,2.09.89,3.14,1.34s2.15.79,3.19,1.18,2.15.75,3.2,1l2.94.79c2,.5,4,.89,6,1.24a71,71,0,0,0,7.43.69h3.79l3-.35c1.09,0,2.24-.29,3.54-.29h1.69l3.45-.5,1.59-.29,2.9-.6h.55a69.93,69.93,0,0,0,32.37-18.19l63.51-62.93A68.77,68.77,0,0,0,385.22,127.94Z" transform="translate(-10 -10)"/></g></g><g id="education"><circle class="cls-1" cx="246" cy="246" r="246"/><g id="cap"><g id="Layer_5" data-name="Layer 5"><path class="cls-2" d="M276.73,318.42a42.08,42.08,0,0,1-41.46,0l-93.85-57.56s-8.47-5.2-8.47,6.57V324.9C133,355.18,188,387.82,256,387.82s123.05-32.64,123.05-62.92V264.19c0-9.45-6-4.83-6-4.83Z" transform="translate(-10 -10)"/><path class="cls-2" d="M412.08,215.07c7.22-4.42,7.22-11.66,0-16.08l-143-71.5c-7.21-4.42-19-4.42-26.22,0L99.92,199c-7.22,4.42-7.22,11.66,0,16.08l143,87.69c7.21,4.42,19,4.42,26.22,0" transform="translate(-10 -10)"/><path class="cls-2" d="M406.17,345V248.2s.07-4.59-2.65-3.07c-2.19,1.21-7.54,4.2-9.42,5.84-2.18,1.89-1.69,6.13-1.69,6.13V345a2.58,2.58,0,0,1-1.58,2.15,16.72,16.72,0,1,0,16.87,0A2.47,2.47,0,0,1,406.17,345Z" transform="translate(-10 -10)"/></g></g></g><g id="question_mark" data-name="question mark"><circle class="cls-1" cx="246" cy="246" r="246"/><g id="question"><path class="cls-2" d="M285.08,313.62H227.46c0-57.62,30.73-76.83,51.86-88.35q11.52-5.76,17.29-11.53c9.6-9.6,5.76-23.05,3.84-26.89C294.69,173.4,281.24,160,256.27,160c-40.34,0-48,36.49-48,44.18l-57.63-7.69c3.85-32.65,32.66-94.12,105.65-94.12,44.18,0,82.6,25,98,61.47,13.45,32.65,7.68,67.23-15.37,90.28-9.6,9.6-21.12,15.37-30.73,21.13C290.84,284.81,285.08,294.42,285.08,313.62Z" transform="translate(-10 -10)"/><path class="cls-2" d="M294.69,371.25a38.42,38.42,0,1,1-38.42-38.42A38.42,38.42,0,0,1,294.69,371.25Z" transform="translate(-10 -10)"/></g></g><g id="fun_fact" data-name="fun fact"><circle class="cls-1" cx="246" cy="246" r="246"/><g id="exclamation_point" data-name="exclamation point"><path class="cls-2" d="M256,359.47a25.76,25.76,0,0,0,25.66-23.6L299.07,128a43.22,43.22,0,1,0-86.14,0l17.41,207.9A25.76,25.76,0,0,0,256,359.47Z" transform="translate(-10 -10)"/><path class="cls-2" d="M256,374.77a28.05,28.05,0,1,0,28.05,28.05A28,28,0,0,0,256,374.77Z" transform="translate(-10 -10)"/></g></g><g id="quote"><circle class="cls-1" cx="246" cy="246" r="246"/><g id="quote-2" data-name="quote"><path class="cls-2" d="M210.47,246.11a67.15,67.15,0,0,0-18.52-2.7,58.42,58.42,0,0,0-23.23,4.75c5.84-21.37,19.87-58.25,47.81-62.4a6.63,6.63,0,0,0,5.41-4.78l6.11-21.84a6.64,6.64,0,0,0-5.49-8.36,46.54,46.54,0,0,0-6.25-.42c-33.53,0-66.75,35-80.76,85.12-8.23,29.41-10.64,73.61,9.62,101.44,11.34,15.57,27.89,23.89,49.18,24.72h.26a58.86,58.86,0,0,0,15.86-115.53Z" transform="translate(-10 -10)"/><path class="cls-2" d="M374.91,273.91a59,59,0,0,0-35.39-27.8,67.15,67.15,0,0,0-18.52-2.7,58.38,58.38,0,0,0-23.23,4.75c5.84-21.37,19.86-58.25,47.81-62.4A6.66,6.66,0,0,0,351,181l6.11-21.84a6.64,6.64,0,0,0-5.49-8.36,46.54,46.54,0,0,0-6.25-.42c-33.54,0-66.75,35-80.77,85.12-8.22,29.41-10.63,73.61,9.63,101.45,11.34,15.56,27.89,23.88,49.17,24.71h.27a58.86,58.86,0,0,0,51.25-87.73Z" transform="translate(-10 -10)"/></g></g><g id="food"><circle class="cls-1" cx="246" cy="246" r="246"/><g id="food-2" data-name="food"><path class="cls-2" d="M330,381.22c3,3,11.87-1,14.88-4l5-5c3-3,7-11.87,4-14.88l-74.61-70.81-19.51,20.55Z" transform="translate(-10 -10)"/><path class="cls-2" d="M206.26,217.36c9.71-16.88,4.58-37.34-10.71-52.63-18.06-18.06-57.07-35.72-75.13-17.66s-.4,57.07,17.66,75.13c15,15,35,20.23,51.68,11.25l35.35,37.27L243.79,253Z" transform="translate(-10 -10)"/><path class="cls-2" d="M298.18,216.84,150.08,357.4c-3,3,.95,11.87,4,14.88l5,5c2.26,2.25,7.78,5,11.68,5a4.49,4.49,0,0,0,3.21-1.07L315,232.56A34.48,34.48,0,0,0,327.21,236c12.52,1.15,25.56-4.34,36.06-14.83,35.57-35.56,42-43.39,31-57.1l-42,40.24a5.12,5.12,0,0,1-3.59,1.51,4.35,4.35,0,0,1-3.11-1.27l-1.12-1.12a4.36,4.36,0,0,1-1.27-3.12,5.23,5.23,0,0,1,1.55-3.62l38.11-44.72-2.72-2.72c-1.63-1.63-3.16-3.16-4.59-4.61l-44.89,38.28a5,5,0,0,1-3.46,1.4,4.32,4.32,0,0,1-3.11-1.27L323,181.9a4.38,4.38,0,0,1-1.27-3.12,5.19,5.19,0,0,1,1.55-3.62l40-41.78c-12.92-9.39-20.77-1.56-55.08,32.74-11.41,11.42-16.9,25.85-14.37,39.32A35.52,35.52,0,0,0,298.18,216.84Z" transform="translate(-10 -10)"/></g></g></svg>