<svg id="Layer_1" data-name="Layer 1" xmlns="http://www.w3.org/2000/svg" viewBox="0 0 492 492"><defs><style>.cls-1{fill:#7dc143;}.cls-2{fill:#fff;}</style></defs><g id="link"><circle class="cls-1" cx="246" cy="246" r="246"/><g id="link-2" data-name="link"><path class="cls-2" d="M289,223.3A67.8,67.8,0,0,0,277.25,214a70.32,70.32,0,0,0-87.05,9.34l-63.46,62.93a68.89,68.89,0,0,0-20.41,48.85c0,38.22,31.22,69.23,69.8,69.25a69.76,69.76,0,0,0,49.34-20.17l52.38-51.91a4.91,4.91,0,0,0,1.48-3.53,5,5,0,0,0-5-4.92h-2a84.48,84.48,0,0,1-31.93-6.13,5,5,0,0,0-5.44,1.09l-37.67,37.37a30.15,30.15,0,0,1-42.36,0,29.5,29.5,0,0,1,0-42l63.71-63.08a30.14,30.14,0,0,1,42.31,0,20.58,20.58,0,0,0,28,0,19.45,19.45,0,0,0,0-27.78Z" transform="translate(-10 -10)"/><path class="cls-2" d="M385.22,127.94a70.31,70.31,0,0,0-98.79,0L234.1,179.75a4.91,4.91,0,0,0-1,5.44,5,5,0,0,0,4.69,3h1.85a84.5,84.5,0,0,1,31.88,6.18,5,5,0,0,0,5.43-1.09l37.57-37.17a30.15,30.15,0,0,1,42.36,0,29.5,29.5,0,0,1,0,42L310,244.41l-.4.44L293.27,261A30.13,30.13,0,0,1,251,261a20.58,20.58,0,0,0-28,0,19.6,19.6,0,0,0,0,27.88,69.22,69.22,0,0,0,20,13.84c1.05.5,2.09.89,3.14,1.34s2.15.79,3.19,1.18,2.15.75,3.2,1l2.94.79c2,.5,4,.89,6,1.24a71,71,0,0,0,7.43.69h3.79l3-.35c1.09,0,2.24-.29,3.54-.29h1.69l3.45-.5,1.59-.29,2.9-.6h.55a69.93,69.93,0,0,0,32.37-18.19l63.51-62.93A68.77,68.77,0,0,0,385.22,127.94Z" transform="translate(-10 -10)"/></g></g></svg>