<?xml version="1.0" encoding="UTF-8"?> <svg xmlns="http://www.w3.org/2000/svg" id="Layer_1" version="1.1" viewBox="0 0 1200 656.3"><defs><style> .st0 { fill: #73c167; } </style></defs><path class="st0" d="M1096.6,345.7v-137.1h-141.5v-74.3c0,0-53.4,0-53.4,0l-.8,453.9-55.7.4V13.5l-220.9,170v247.1h-57v159h-54.8c0,0,0-297.2,0-297.2h-53.4v59.6l-86-67.7-138.8,121.1v184.1h-56.5v-155.2h-50l-6.4-.3c-25.9,0-42.8-21-42.8-47,0-18.1,6-33.8,21.1-41.6,0,0-31.3-14.5-31.1-47.6,0-28.5,19.5-48.8,47.7-53.5,14.2-2.4,37.8,2.9,48.2,13.7,0,0,5.5-13.6,18.4-23.1,8.3-6.1,16.1-13.3,40.7-14.7,34-1.9,71.4,30,68.3,63.6,0,0,0,.3,0,.4l42.8-37.4c-16.2-42-61.1-80.3-119.7-74.6-47.7,4.8-60.1,32.3-60.1,32.3-15.9-8.8-31.7-10.5-50.4-8.1-49.9,6.5-84.1,49.3-84.9,94.4-.8,40.4,17.5,55.7,17.5,55.7-7.4,12.1-16.1,36.6-3.4,71.3,6.3,17.1,13.1,25.9,25.5,37.9,22.7,22.1,45.8,26.6,58.9,27.8l9.6.5v105.6h-.2v53.5h160.5v-213.3l87.1-76.1,84.3,66.3v223h161.7v-159h57.1V209.7l113.9-87.6v520.9h163.6l-.3-380.9h88.1v137.1h84.1v243.3h53.5v-296.8h-84.2Z"></path></svg> 