<?xml version="1.0" encoding="UTF-8"?>
<svg id="Layer_1" xmlns="http://www.w3.org/2000/svg" width="289px" height="72px"  version="1.1" viewBox="0 0 360 63.8">
  <!-- Generator: Adobe Illustrator 29.0.0, SVG Export Plug-In . SVG Version: 2.1.0 Build 186)  -->
  <defs>
    <style>
      .st0 {
        fill: #73c167;
      }

      .st1 {
        fill: #174a7c;
      }
    </style>
  </defs>
  <path class="st0" d="M106,33.9v-13.4h-13.8v-7.3s-5.2,0-5.2,0v44.3c0,0-5.5,0-5.5,0V1.4l-21.6,16.6v24.1h-5.6v15.5h-5.4s0-29,0-29h-5.2v5.8l-8.4-6.6-13.6,11.8v18h-5.5v-15.2h-5.5c-2.5,0-4.2-2.1-4.2-4.6,0-1.8.6-3.3,2.1-4.1,0,0-3.1-1.4-3-4.6,0-2.8,1.9-4.8,4.7-5.2,1.4-.2,3.7.3,4.7,1.3,0,0,.5-1.3,1.8-2.3.8-.6,1.6-1.3,4-1.4,3.3-.2,7,2.9,6.7,6.2,0,0,0,0,0,0l4.2-3.7c-1.6-4.1-6-7.8-11.7-7.3-4.7.5-5.9,3.2-5.9,3.2-1.6-.9-3.1-1-4.9-.8-4.9.6-8.2,4.8-8.3,9.2,0,3.9,1.7,5.4,1.7,5.4-.7,1.2-1.6,3.6-.3,7,.6,1.7,1.3,2.5,2.5,3.7,2.2,2.2,4.5,2.6,5.8,2.7h.9v10.4h0v5.2h15.7v-20.8l8.5-7.4,8.2,6.5v21.8h15.8v-15.5h5.6v-26.8l11.1-8.6v50.9h16V25.7s8.6,0,8.6,0v13.4h8.2v23.8h5.2v-29h-8.2Z"/>
  <g>
    <path class="st1" d="M352.3,36h0c0-1.9,1.5-3.4,3.4-3.4s3.4,1.5,3.4,3.4h0c0,1.9-1.5,3.4-3.4,3.4s-3.4-1.5-3.4-3.4ZM358.8,36h0c0-1.7-1.3-3.1-3-3.1s-3.1,1.4-3.1,3.1h0c0,1.7,1.3,3.1,3,3.1s3.1-1.4,3.1-3.1ZM354,36h0c0-1,.8-1.9,1.8-1.9s1.1.2,1.4.6l-.4.5c-.3-.2-.6-.4-1-.4-.6,0-1.1.5-1.1,1.2h0c0,.7.5,1.2,1.1,1.2s.7-.2,1-.4l.4.4c-.4.4-.8.6-1.4.6-1,0-1.8-.8-1.8-1.8Z"/>
    <g>
      <path class="st1" d="M129.3,62.7v-31.6h7.1v25.6h9.9v6h-17.1Z"/>
      <path class="st1" d="M150.6,62.7v-31.6h7.1v31.6h-7.1Z"/>
      <path class="st1" d="M170.7,62.7l-9.5-31.6h7.6l3.8,14.7c.5,1.7.9,3.4,1.3,5.1.4,1.6.8,3.3,1.3,5.1h.2c.5-1.7.9-3.4,1.3-5.1.4-1.6.8-3.3,1.3-5.1l3.7-14.7h7.3l-9.5,31.6h-8.6Z"/>
      <path class="st1" d="M186.9,62.7l9.9-31.6h8.6l9.9,31.6h-7.6l-1.9-7.5h-9.6l-1.9,7.5h-7.3ZM198.3,46.7l-.8,2.9h6.7l-.7-2.9c-.5-1.6-.9-3.3-1.3-5-.4-1.8-.8-3.5-1.3-5.1h-.2c-.4,1.7-.8,3.4-1.2,5.2-.4,1.8-.8,3.4-1.3,5Z"/>
      <path class="st1" d="M218.7,62.7v-31.6h10.8c1.6,0,3.2.1,4.6.4,1.4.2,2.6.7,3.7,1.3,1,.6,1.9,1.4,2.5,2.4.6,1,.9,2.3.9,3.8s0,1.4-.3,2.1c-.2.7-.5,1.4-.8,2-.4.6-.8,1.2-1.3,1.6-.5.5-1.1.8-1.7,1.1v.2c.8.2,1.5.5,2.2.9.7.4,1.3.9,1.8,1.5.5.6.9,1.3,1.2,2.2.3.8.4,1.8.4,2.8,0,1.6-.3,3-.9,4.2-.6,1.2-1.5,2.1-2.6,2.9-1.1.8-2.4,1.3-3.9,1.7-1.5.4-3.1.6-4.8.6h-11.7ZM225.8,43.8h3.3c1.7,0,3-.3,3.8-1,.8-.7,1.2-1.6,1.2-2.7s-.4-2.1-1.2-2.6c-.8-.5-2-.8-3.7-.8h-3.4v7.1ZM225.8,57.2h4c3.9,0,5.9-1.4,5.9-4.3s-.5-2.4-1.5-3c-1-.6-2.4-.9-4.4-.9h-4v8.1Z"/>
      <path class="st1" d="M248,62.7v-31.6h7.1v31.6h-7.1Z"/>
      <path class="st1" d="M262.5,62.7v-31.6h7.1v25.6h9.9v6h-17.1Z"/>
      <path class="st1" d="M285.1,62.7v-31.6h7.1v31.6h-7.1Z"/>
      <path class="st1" d="M305.8,62.7v-25.6h-8.7v-6h24.5v6h-8.7v25.6h-7.2Z"/>
      <path class="st1" d="M334.1,62.7v-11.2l-9.5-20.3h7.7l2.8,7.3c.5,1.2.9,2.3,1.3,3.5.4,1.1.8,2.3,1.3,3.5h.2c.5-1.2.9-2.4,1.3-3.5.4-1.1.9-2.3,1.3-3.5l2.9-7.3h7.5l-9.5,20.3v11.2h-7.1Z"/>
    </g>
  </g>
</svg>