<svg xmlns="http://www.w3.org/2000/svg" xmlns:xlink="http://www.w3.org/1999/xlink" width="289px" height="72px" viewBox="0 0 289 72" version="1.1">
    <!-- Generator: Sketch 44.1 (41455) - http://www.bohemiancoding.com/sketch -->
    <title>logo-livability-full-color</title>
    <desc>Created with Sketch.</desc>
    <defs/>
    <g id="symbols" stroke="none" stroke-width="1" fill="none" fill-rule="evenodd">
        <g id="logo-livability-full" fill-rule="nonzero">
            <g id="logo-livability-full-color">
                <path d="M36.2183406,0 C16.209607,0 0,16.1103448 0,35.9965517 C0,55.8827586 16.209607,71.9931034 36.2183406,71.9931034 C56.2270742,71.9931034 72.4366812,55.8827586 72.4366812,35.9965517 C72.4366812,16.1103448 56.2270742,0 36.2183406,0 Z M56.6069869,45.4362069 L56.6069869,23.662069 C56.6069869,23.0327586 56.1004367,22.4034483 55.3406114,22.4034483 L49.8951965,22.4034483 C49.1353712,22.4034483 48.628821,22.9068966 48.628821,23.662069 L48.628821,52.3586207 L46.0960699,52.3586207 L46.0960699,26.6827586 L42.930131,26.6827586 C42.2969432,26.6827586 41.790393,27.0603448 41.790393,27.6896552 L41.790393,50.4706897 L31.6593886,50.4706897 L31.6593886,39.3948276 L27.860262,35.8706897 L24.1877729,39.5206897 L24.1877729,50.5965517 L15.1965066,50.5965517 L15.1965066,39.5206897 L14.6899563,39.5206897 C14.0567686,39.5206897 12.6637555,39.2689655 11.3973799,38.1362069 C10.7641921,37.5068966 10.3842795,37.1293103 10.1310044,36.2482759 C9.49781659,34.4862069 10.1310044,33.2275862 10.510917,32.5982759 C10.510917,32.5982759 9.62445415,31.8431034 9.62445415,29.7034483 C9.62445415,27.437931 11.3973799,25.1724138 13.930131,24.9206897 C14.9432314,24.7948276 15.7030568,24.9206897 16.4628821,25.2982759 C16.4628821,25.2982759 17.0960699,23.9137931 19.5021834,23.662069 C23.9344978,23.2844828 26.8471616,27.5637931 25.7074236,30.2068966 C25.7074236,30.2068966 25.9606987,30.4586207 26.4672489,30.962069 L24.5676856,32.85 C22.9213974,31.2137931 22.7947598,31.087931 22.7947598,31.087931 C23.4279476,30.2068966 23.5545852,29.4517241 23.5545852,29.4517241 C23.6812227,27.6896552 21.7816594,26.0534483 20.0087336,26.1793103 C18.7423581,26.3051724 18.3624454,26.5568966 17.9825328,26.9344828 C17.349345,27.437931 17.0960699,28.0672414 17.0960699,28.0672414 C16.5895197,27.5637931 15.3231441,27.1862069 14.5633188,27.312069 C13.1703057,27.5637931 12.1572052,28.5706897 12.1572052,30.0810345 C12.1572052,31.7172414 13.8034934,32.4724138 13.8034934,32.4724138 C13.0436681,32.85 12.5371179,33.7310345 12.5371179,34.612069 C12.5371179,35.9965517 13.6768559,37.0034483 14.9432314,37.0034483 L15.3231441,37.0034483 L17.8558952,37.0034483 L17.8558952,48.0793103 L21.6550218,48.0793103 L21.6550218,38.5137931 L27.9868996,32.3465517 L31.5327511,35.9965517 L31.5327511,32.7241379 L34.1921397,32.7241379 L34.1921397,48.2051724 L39.1310044,48.2051724 L39.1310044,28.0672414 C39.1310044,25.9275862 40.3973799,24.5431034 42.8034934,24.5431034 L45.9694323,24.5431034 L45.9694323,23.9137931 C45.9694323,23.9137931 45.8427948,20.137931 49.768559,20.137931 L55.3406114,20.137931 C57.7467249,20.137931 59.139738,21.2706897 59.139738,23.9137931 L59.139738,42.037931 C59.139738,42.5413793 59.5196507,43.0448276 60.1528384,43.0448276 L62.8122271,43.0448276 L62.8122271,45.687931 L56.6069869,45.687931 L56.6069869,45.4362069 Z" id="Shape" fill="#7DC143"/>
                <g id="Group" transform="translate(82.314410, 22.655172)">
                    <path d="M199.834061,3.77586207 L199.834061,3.77586207 C199.834061,1.88793103 201.353712,0.377586207 203.253275,0.377586207 C205.152838,0.377586207 206.672489,1.88793103 206.672489,3.65 L206.672489,3.65 C206.672489,5.41206897 205.152838,7.04827586 203.253275,7.04827586 C201.227074,7.04827586 199.834061,5.53793103 199.834061,3.77586207 Z M206.165939,3.77586207 L206.165939,3.77586207 C206.165939,2.13965517 204.899563,0.755172414 203.253275,0.755172414 C201.606987,0.755172414 200.213974,2.13965517 200.213974,3.77586207 L200.213974,3.77586207 C200.213974,5.41206897 201.480349,6.79655172 203.126638,6.79655172 C204.899563,6.67068966 206.165939,5.41206897 206.165939,3.77586207 Z M201.353712,3.77586207 L201.353712,3.77586207 C201.353712,2.76896552 202.113537,1.88793103 203.253275,1.88793103 C203.886463,1.88793103 204.393013,2.13965517 204.646288,2.39137931 L204.139738,3.02068966 C203.886463,2.76896552 203.633188,2.64310345 203.253275,2.64310345 C202.620087,2.64310345 202.240175,3.14655172 202.240175,3.77586207 L202.240175,3.77586207 C202.240175,4.40517241 202.620087,4.90862069 203.253275,4.90862069 C203.633188,4.90862069 203.886463,4.78275862 204.139738,4.53103448 L204.646288,5.03448276 C204.266376,5.41206897 203.886463,5.6637931 203.126638,5.6637931 C202.113537,5.53793103 201.353712,4.78275862 201.353712,3.77586207 Z" id="Shape" fill="#666666"/>
                    <g id="Shape">
                        <polygon fill="#7DC143" points="0.759825328 0.377586207 3.67248908 0.377586207 3.67248908 23.662069 18.3624454 23.662069 18.3624454 26.3051724 0.759825328 26.3051724"/>
                        <polygon fill="#7DC143" points="23.0480349 0.377586207 25.9606987 0.377586207 25.9606987 26.3051724 23.0480349 26.3051724"/>
                        <polygon fill="#7DC143" points="30.5196507 0.377586207 33.8122271 0.377586207 43.0567686 22.7810345 52.4279476 0.503448276 55.5938865 0.503448276 44.3231441 26.5568966 41.790393 26.5568966"/>
                        <path d="M65.7248908,0.251724138 L68.510917,0.251724138 L80.4148472,26.3051724 L77.2489083,26.3051724 L74.209607,19.5086207 L60.0262009,19.5086207 L56.9868996,26.3051724 L53.9475983,26.3051724 L65.7248908,0.251724138 Z M72.9432314,16.8655172 L66.9912664,3.65 L61.0393013,16.8655172 L72.9432314,16.8655172 Z" fill="#666666"/>
                        <path d="M84.5938865,0.377586207 L95.7379913,0.377586207 C98.7772926,0.377586207 101.056769,1.25862069 102.576419,2.64310345 C103.716157,3.77586207 104.222707,5.16034483 104.222707,6.79655172 L104.222707,6.92241379 C104.222707,10.3206897 102.196507,12.0827586 100.043668,12.9637931 C103.082969,13.8448276 105.615721,15.6068966 105.615721,19.2568966 L105.615721,19.3827586 C105.615721,23.787931 101.816594,26.4310345 96.1179039,26.4310345 L84.4672489,26.4310345 L84.4672489,0.377586207 L84.5938865,0.377586207 Z M95.231441,11.9568966 C98.7772926,11.9568966 101.183406,10.3206897 101.183406,7.3 L101.183406,7.17413793 C101.183406,4.65689655 99.1572052,2.89482759 95.3580786,2.89482759 L87.3799127,2.89482759 L87.3799127,11.8310345 L95.231441,11.8310345 L95.231441,11.9568966 Z M96.2445415,23.662069 C100.170306,23.662069 102.703057,21.9 102.703057,19.0051724 L102.703057,18.8793103 C102.703057,16.1103448 100.296943,14.4741379 95.7379913,14.4741379 L87.5065502,14.4741379 L87.5065502,23.662069 L96.2445415,23.662069 L96.2445415,23.662069 Z" fill="#666666"/>
                        <polygon fill="#666666" points="110.80786 0.377586207 113.720524 0.377586207 113.720524 26.3051724 110.80786 26.3051724"/>
                        <polygon fill="#666666" points="120.432314 0.377586207 123.344978 0.377586207 123.344978 23.662069 138.034934 23.662069 138.034934 26.3051724 120.432314 26.3051724"/>
                        <polygon fill="#666666" points="142.847162 0.377586207 145.759825 0.377586207 145.759825 26.3051724 142.847162 26.3051724"/>
                        <polygon fill="#666666" points="159.436681 3.14655172 150.69869 3.14655172 150.69869 0.503448276 171.213974 0.503448276 171.213974 3.14655172 162.475983 3.14655172 162.475983 26.4310345 159.436681 26.4310345 159.436681 3.14655172"/>
                        <polygon fill="#666666" points="183.877729 16.1103448 172.9869 0.503448276 176.532751 0.503448276 185.270742 13.4672414 194.135371 0.503448276 197.554585 0.503448276 186.663755 16.1103448 186.663755 26.4310345 183.624454 26.4310345 183.624454 16.1103448"/>
                    </g>
                </g>
            </g>
        </g>
    </g>
</svg>