<svg id="Layer_1" data-name="Layer 1" xmlns="http://www.w3.org/2000/svg" viewBox="0 0 492 492"><defs><style>.cls-1{fill:#7dc143;}.cls-2{fill:#fff;}</style></defs><g id="link"><circle class="cls-1" cx="246" cy="246" r="246"/><g id="link-2" data-name="link"><path class="cls-2" d="M289,223.3A67.8,67.8,0,0,0,277.25,214a70.32,70.32,0,0,0-87.05,9.34l-63.46,62.93a68.89,68.89,0,0,0-20.41,48.85c0,38.22,31.22,69.23,69.8,69.25a69.76,69.76,0,0,0,49.34-20.17l52.38-51.91a4.91,4.91,0,0,0,1.48-3.53,5,5,0,0,0-5-4.92h-2a84.48,84.48,0,0,1-31.93-6.13,5,5,0,0,0-5.44,1.09l-37.67,37.37a30.15,30.15,0,0,1-42.36,0,29.5,29.5,0,0,1,0-42l63.71-63.08a30.14,30.14,0,0,1,42.31,0,20.58,20.58,0,0,0,28,0,19.45,19.45,0,0,0,0-27.78Z" transform="translate(-10 -10)"/><path class="cls-2" d="M385.22,127.94a70.31,70.31,0,0,0-98.79,0L234.1,179.75a4.91,4.91,0,0,0-1,5.44,5,5,0,0,0,4.69,3h1.85a84.5,84.5,0,0,1,31.88,6.18,5,5,0,0,0,5.43-1.09l37.57-37.17a30.15,30.15,0,0,1,42.36,0,29.5,29.5,0,0,1,0,42L310,244.41l-.4.44L293.27,261A30.13,30.13,0,0,1,251,261a20.58,20.58,0,0,0-28,0,19.6,19.6,0,0,0,0,27.88,69.22,69.22,0,0,0,20,13.84c1.05.5,2.09.89,3.14,1.34s2.15.79,3.19,1.18,2.15.75,3.2,1l2.94.79c2,.5,4,.89,6,1.24a71,71,0,0,0,7.43.69h3.79l3-.35c1.09,0,2.24-.29,3.54-.29h1.69l3.45-.5,1.59-.29,2.9-.6h.55a69.93,69.93,0,0,0,32.37-18.19l63.51-62.93A68.77,68.77,0,0,0,385.22,127.94Z" transform="translate(-10 -10)"/></g></g><g id="health"><circle class="cls-1" cx="246" cy="246" r="246"/><g id="health-2" data-name="health"><path class="cls-2" d="M230.4,213.77Z" transform="translate(-10 -10)"/><path class="cls-2" d="M384.35,166.94C354.86,122,287.27,128.38,254.93,164c-11.65-12-33.9-28.82-67.2-28.82-53.65.65-77.34,43.26-78.6,85.14-1.94,75.72,95.25,151.11,140.1,177a11.45,11.45,0,0,0,11.41,0C321,362,445.73,260.65,384.35,166.94ZM254.93,374.08c-15.27-9.62-58-38.23-88.8-75.45h44.34a11.39,11.39,0,0,0,10.84-7.91l8.82-27.46L250.83,331a11.39,11.39,0,0,0,21.56.67l16.42-43.89,1.8,4.07A11.38,11.38,0,0,0,301,298.63h42.73c-30.82,37.22-73.54,65.84-88.82,75.45Zm105.25-98.23H308.44L298.34,253a11.39,11.39,0,0,0-21.08.61l-14.45,38.62-21.52-70.42a11.38,11.38,0,0,0-21.73-.15l-17.4,54.17H149.69c-10.76-17.55-17.77-36.35-17.77-55.53,0-17.35,10-62.36,55.81-62.36,23.29-.76,46.84,14,57.58,30a11.29,11.29,0,0,0,19.24,0c10.64-15.94,34.19-30.8,57.59-30,45.79,0,55.81,45,55.81,62.36,0,19.19-7,38-17.77,55.53Z" transform="translate(-10 -10)"/></g></g><g id="love"><circle class="cls-1" cx="246" cy="246" r="246"/><path id="heart" class="cls-2" d="M384,159.89a82,82,0,0,0-60.84-26.31A76.83,76.83,0,0,0,275.32,150,97.55,97.55,0,0,0,256,170a97.29,97.29,0,0,0-19.32-20,76.83,76.83,0,0,0-47.8-16.39A82,82,0,0,0,128,159.89c-15.56,16.76-24.13,39.67-24.13,64.5,0,25.56,9.59,48.95,30.17,73.62,18.41,22.08,44.88,44.48,75.52,70.42,10.46,8.86,22.33,18.91,34.64,29.6a17.95,17.95,0,0,0,23.51,0c12.32-10.7,24.19-20.75,34.66-29.61,30.64-25.94,57.1-48.34,75.51-70.42,20.58-24.67,30.17-48.06,30.17-73.62C408.09,199.56,399.52,176.65,384,159.89Z" transform="translate(-10 -10)"/></g></svg>