<svg id="Layer_1" data-name="Layer 1" xmlns="http://www.w3.org/2000/svg" viewBox="0 0 492 492"><defs><style>.cls-1{fill:#7dc143;}.cls-2{fill:#fff;}</style></defs><g id="link"><circle class="cls-1" cx="246" cy="246" r="246"/><g id="link-2" data-name="link"><path class="cls-2" d="M289,223.3A67.8,67.8,0,0,0,277.25,214a70.32,70.32,0,0,0-87.05,9.34l-63.46,62.93a68.89,68.89,0,0,0-20.41,48.85c0,38.22,31.22,69.23,69.8,69.25a69.76,69.76,0,0,0,49.34-20.17l52.38-51.91a4.91,4.91,0,0,0,1.48-3.53,5,5,0,0,0-5-4.92h-2a84.48,84.48,0,0,1-31.93-6.13,5,5,0,0,0-5.44,1.09l-37.67,37.37a30.15,30.15,0,0,1-42.36,0,29.5,29.5,0,0,1,0-42l63.71-63.08a30.14,30.14,0,0,1,42.31,0,20.58,20.58,0,0,0,28,0,19.45,19.45,0,0,0,0-27.78Z" transform="translate(-10 -10)"/><path class="cls-2" d="M385.22,127.94a70.31,70.31,0,0,0-98.79,0L234.1,179.75a4.91,4.91,0,0,0-1,5.44,5,5,0,0,0,4.69,3h1.85a84.5,84.5,0,0,1,31.88,6.18,5,5,0,0,0,5.43-1.09l37.57-37.17a30.15,30.15,0,0,1,42.36,0,29.5,29.5,0,0,1,0,42L310,244.41l-.4.44L293.27,261A30.13,30.13,0,0,1,251,261a20.58,20.58,0,0,0-28,0,19.6,19.6,0,0,0,0,27.88,69.22,69.22,0,0,0,20,13.84c1.05.5,2.09.89,3.14,1.34s2.15.79,3.19,1.18,2.15.75,3.2,1l2.94.79c2,.5,4,.89,6,1.24a71,71,0,0,0,7.43.69h3.79l3-.35c1.09,0,2.24-.29,3.54-.29h1.69l3.45-.5,1.59-.29,2.9-.6h.55a69.93,69.93,0,0,0,32.37-18.19l63.51-62.93A68.77,68.77,0,0,0,385.22,127.94Z" transform="translate(-10 -10)"/></g></g><g id="education"><circle class="cls-1" cx="246" cy="246" r="246"/><g id="cap"><g id="Layer_5" data-name="Layer 5"><path class="cls-2" d="M276.73,318.42a42.08,42.08,0,0,1-41.46,0l-93.85-57.56s-8.47-5.2-8.47,6.57V324.9C133,355.18,188,387.82,256,387.82s123.05-32.64,123.05-62.92V264.19c0-9.45-6-4.83-6-4.83Z" transform="translate(-10 -10)"/><path class="cls-2" d="M412.08,215.07c7.22-4.42,7.22-11.66,0-16.08l-143-71.5c-7.21-4.42-19-4.42-26.22,0L99.92,199c-7.22,4.42-7.22,11.66,0,16.08l143,87.69c7.21,4.42,19,4.42,26.22,0" transform="translate(-10 -10)"/><path class="cls-2" d="M406.17,345V248.2s.07-4.59-2.65-3.07c-2.19,1.21-7.54,4.2-9.42,5.84-2.18,1.89-1.69,6.13-1.69,6.13V345a2.58,2.58,0,0,1-1.58,2.15,16.72,16.72,0,1,0,16.87,0A2.47,2.47,0,0,1,406.17,345Z" transform="translate(-10 -10)"/></g></g></g><g id="question_mark" data-name="question mark"><circle class="cls-1" cx="246" cy="246" r="246"/><g id="question"><path class="cls-2" d="M285.08,313.62H227.46c0-57.62,30.73-76.83,51.86-88.35q11.52-5.76,17.29-11.53c9.6-9.6,5.76-23.05,3.84-26.89C294.69,173.4,281.24,160,256.27,160c-40.34,0-48,36.49-48,44.18l-57.63-7.69c3.85-32.65,32.66-94.12,105.65-94.12,44.18,0,82.6,25,98,61.47,13.45,32.65,7.68,67.23-15.37,90.28-9.6,9.6-21.12,15.37-30.73,21.13C290.84,284.81,285.08,294.42,285.08,313.62Z" transform="translate(-10 -10)"/><path class="cls-2" d="M294.69,371.25a38.42,38.42,0,1,1-38.42-38.42A38.42,38.42,0,0,1,294.69,371.25Z" transform="translate(-10 -10)"/></g></g><g id="fun_fact" data-name="fun fact"><circle class="cls-1" cx="246" cy="246" r="246"/><g id="exclamation_point" data-name="exclamation point"><path class="cls-2" d="M256,359.47a25.76,25.76,0,0,0,25.66-23.6L299.07,128a43.22,43.22,0,1,0-86.14,0l17.41,207.9A25.76,25.76,0,0,0,256,359.47Z" transform="translate(-10 -10)"/><path class="cls-2" d="M256,374.77a28.05,28.05,0,1,0,28.05,28.05A28,28,0,0,0,256,374.77Z" transform="translate(-10 -10)"/></g></g><g id="quote"><circle class="cls-1" cx="246" cy="246" r="246"/><g id="quote-2" data-name="quote"><path class="cls-2" d="M210.47,246.11a67.15,67.15,0,0,0-18.52-2.7,58.42,58.42,0,0,0-23.23,4.75c5.84-21.37,19.87-58.25,47.81-62.4a6.63,6.63,0,0,0,5.41-4.78l6.11-21.84a6.64,6.64,0,0,0-5.49-8.36,46.54,46.54,0,0,0-6.25-.42c-33.53,0-66.75,35-80.76,85.12-8.23,29.41-10.64,73.61,9.62,101.44,11.34,15.57,27.89,23.89,49.18,24.72h.26a58.86,58.86,0,0,0,15.86-115.53Z" transform="translate(-10 -10)"/><path class="cls-2" d="M374.91,273.91a59,59,0,0,0-35.39-27.8,67.15,67.15,0,0,0-18.52-2.7,58.38,58.38,0,0,0-23.23,4.75c5.84-21.37,19.86-58.25,47.81-62.4A6.66,6.66,0,0,0,351,181l6.11-21.84a6.64,6.64,0,0,0-5.49-8.36,46.54,46.54,0,0,0-6.25-.42c-33.54,0-66.75,35-80.77,85.12-8.22,29.41-10.63,73.61,9.63,101.45,11.34,15.56,27.89,23.88,49.17,24.71h.27a58.86,58.86,0,0,0,51.25-87.73Z" transform="translate(-10 -10)"/></g></g><g id="food"><circle class="cls-1" cx="246" cy="246" r="246"/><g id="food-2" data-name="food"><path class="cls-2" d="M330,381.22c3,3,11.87-1,14.88-4l5-5c3-3,7-11.87,4-14.88l-74.61-70.81-19.51,20.55Z" transform="translate(-10 -10)"/><path class="cls-2" d="M206.26,217.36c9.71-16.88,4.58-37.34-10.71-52.63-18.06-18.06-57.07-35.72-75.13-17.66s-.4,57.07,17.66,75.13c15,15,35,20.23,51.68,11.25l35.35,37.27L243.79,253Z" transform="translate(-10 -10)"/><path class="cls-2" d="M298.18,216.84,150.08,357.4c-3,3,.95,11.87,4,14.88l5,5c2.26,2.25,7.78,5,11.68,5a4.49,4.49,0,0,0,3.21-1.07L315,232.56A34.48,34.48,0,0,0,327.21,236c12.52,1.15,25.56-4.34,36.06-14.83,35.57-35.56,42-43.39,31-57.1l-42,40.24a5.12,5.12,0,0,1-3.59,1.51,4.35,4.35,0,0,1-3.11-1.27l-1.12-1.12a4.36,4.36,0,0,1-1.27-3.12,5.23,5.23,0,0,1,1.55-3.62l38.11-44.72-2.72-2.72c-1.63-1.63-3.16-3.16-4.59-4.61l-44.89,38.28a5,5,0,0,1-3.46,1.4,4.32,4.32,0,0,1-3.11-1.27L323,181.9a4.38,4.38,0,0,1-1.27-3.12,5.19,5.19,0,0,1,1.55-3.62l40-41.78c-12.92-9.39-20.77-1.56-55.08,32.74-11.41,11.42-16.9,25.85-14.37,39.32A35.52,35.52,0,0,0,298.18,216.84Z" transform="translate(-10 -10)"/></g></g><g id="active"><circle class="cls-1" cx="246" cy="246" r="246"/><path id="active-2" data-name="active" class="cls-2" d="M257.41,335.94a22,22,0,0,1,0,31.18L238,386.56a22.07,22.07,0,0,1-31.18,0l-81.36-81.35a22.08,22.08,0,0,1,0-31.18l19.45-19.45a22,22,0,0,1,31.18,0Zm-128.7-9.54a4.42,4.42,0,0,0-6.83.73,21.87,21.87,0,0,0,2.77,27.64l32.58,32.58a21.85,21.85,0,0,0,27.63,2.77,4.42,4.42,0,0,0,.74-6.83ZM270.79,211.19a8.84,8.84,0,0,0-12.48,0l-47.12,47.12a8.82,8.82,0,0,0,0,12.48l30,30a8.83,8.83,0,0,0,12.47,0l47.13-47.13a8.82,8.82,0,0,0,0-12.47Zm112.51-25.6a4.42,4.42,0,0,0,6.83-.74,21.87,21.87,0,0,0-2.78-27.62l-32.58-32.58a21.87,21.87,0,0,0-27.63-2.78,4.42,4.42,0,0,0-.73,6.83Zm-78.09-60.16a22.08,22.08,0,0,0-31.18,0l-19.45,19.45a22,22,0,0,0,0,31.18l81.36,81.36a22,22,0,0,0,31.18,0L386.56,238a22.07,22.07,0,0,0,0-31.18Z" transform="translate(-10 -10)"/></g><g id="health"><circle class="cls-1" cx="246" cy="246" r="246"/><g id="health-2" data-name="health"><path class="cls-2" d="M230.4,213.77Z" transform="translate(-10 -10)"/><path class="cls-2" d="M384.35,166.94C354.86,122,287.27,128.38,254.93,164c-11.65-12-33.9-28.82-67.2-28.82-53.65.65-77.34,43.26-78.6,85.14-1.94,75.72,95.25,151.11,140.1,177a11.45,11.45,0,0,0,11.41,0C321,362,445.73,260.65,384.35,166.94ZM254.93,374.08c-15.27-9.62-58-38.23-88.8-75.45h44.34a11.39,11.39,0,0,0,10.84-7.91l8.82-27.46L250.83,331a11.39,11.39,0,0,0,21.56.67l16.42-43.89,1.8,4.07A11.38,11.38,0,0,0,301,298.63h42.73c-30.82,37.22-73.54,65.84-88.82,75.45Zm105.25-98.23H308.44L298.34,253a11.39,11.39,0,0,0-21.08.61l-14.45,38.62-21.52-70.42a11.38,11.38,0,0,0-21.73-.15l-17.4,54.17H149.69c-10.76-17.55-17.77-36.35-17.77-55.53,0-17.35,10-62.36,55.81-62.36,23.29-.76,46.84,14,57.58,30a11.29,11.29,0,0,0,19.24,0c10.64-15.94,34.19-30.8,57.59-30,45.79,0,55.81,45,55.81,62.36,0,19.19-7,38-17.77,55.53Z" transform="translate(-10 -10)"/></g></g><g id="tourism"><circle class="cls-1" cx="246" cy="246" r="246"/><g id="tourism-2" data-name="tourism"><path class="cls-2" d="M147,147h50.32v16.77H147Z" transform="translate(-10 -10)"/><path class="cls-2" d="M314.71,147H365v16.77H314.71Z" transform="translate(-10 -10)"/><path class="cls-2" d="M256.58,243.52l32.47-8.39,4.2,16.24-32.48,8.39Z" transform="translate(-10 -10)"/><path class="cls-2" d="M146.14,180.52a32.75,32.75,0,0,0-32.72,32.72V349.09a32.76,32.76,0,0,0,32.72,32.72h17.6V180.52Z" transform="translate(-10 -10)"/><path class="cls-2" d="M331.48,180.52H299.07l-7.86-35.38a19,19,0,0,0-18.63-14.95H239.42a19,19,0,0,0-18.63,14.95l-7.86,35.38H180.52V381.81h151Zm-30.33,34.17,12.6,48.72-65,16.79-12.59-48.72Zm-64-65.91a2.28,2.28,0,0,1,2.25-1.81h33.16a2.28,2.28,0,0,1,2.25,1.81l7.06,31.74H230.11ZM225.25,348.26a28,28,0,1,1,27.95-28A28,28,0,0,1,225.25,348.26Z" transform="translate(-10 -10)"/><circle class="cls-2" cx="215.25" cy="310.3" r="11.18"/><path class="cls-2" d="M365.86,180.52h-17.6V381.81h17.6a32.76,32.76,0,0,0,32.72-32.72V213.24A32.75,32.75,0,0,0,365.86,180.52Z" transform="translate(-10 -10)"/></g></g><g id="nightlife"><circle class="cls-1" cx="246" cy="246" r="246"/><g id="drink"><path class="cls-2" d="M344,139.75A41.92,41.92,0,0,0,273.24,161H214.18l-9.26-27.8a8.38,8.38,0,1,0-15.9,5.3l7.5,22.5H180.2A8.38,8.38,0,0,0,172,171.23l3.81,16.92a90.44,90.44,0,0,1-1.14,44.6,75.29,75.29,0,0,0,55.59,94,79.6,79.6,0,0,0,8.57,1.39v39.59H213.73a8.38,8.38,0,0,0,0,16.76h67.06a8.38,8.38,0,1,0,0-16.76H255.62V328.09a75.22,75.22,0,0,0,64.93-92.59,128.14,128.14,0,0,1-3.7-24.33A41.86,41.86,0,0,0,344,139.75ZM210.1,234.31,190,241c.26-1.21.43-2.44.77-3.64a107.22,107.22,0,0,0,1.39-52.9l-1.51-6.69H202.1L220.18,232A53.86,53.86,0,0,0,210.1,234.31Zm92.25-50c-3.28,14.54-2.78,31.23,0,45.94l-23.5,8.53A36.14,36.14,0,0,1,250.06,237a48.78,48.78,0,0,0-11.95-4.2l-18.34-55h84.06Z" transform="translate(-10 -10)"/></g></g><g id="adventure"><circle class="cls-1" cx="246" cy="246" r="246"/><g id="compass"><path class="cls-2" d="M256,118.11C180,118.11,118.11,180,118.11,256S180,393.89,256,393.89,393.89,332,393.89,256,332,118.11,256,118.11Zm0,251.8A113.91,113.91,0,1,1,369.91,256,114.05,114.05,0,0,1,256,369.91Z" transform="translate(-10 -10)"/><path class="cls-2" d="M320.2,191.82a5.94,5.94,0,0,0-6.61-1.27l-83.93,36a6,6,0,0,0-3.16,3.15l-36,83.93a6,6,0,0,0,1.27,6.61,6.14,6.14,0,0,0,4.25,1.74,6.34,6.34,0,0,0,2.36-.48l83.93-36a6.1,6.1,0,0,0,3.16-3.16l36-83.93A6,6,0,0,0,320.2,191.82ZM256,268a12,12,0,1,1,12-12A12,12,0,0,1,256,268Z" transform="translate(-10 -10)"/></g></g><g id="neighborhood"><circle class="cls-1" cx="246" cy="246" r="246"/><g id="houses"><path class="cls-2" d="M349.64,313.7h17v17h-17Z" transform="translate(-10 -10)"/><path class="cls-2" d="M349.64,245.81h17v17h-17Z" transform="translate(-10 -10)"/><path class="cls-2" d="M398.16,196.62,330,132.7a8.49,8.49,0,0,0-11.61,0L302.5,147.59l39.09,36.65a25.55,25.55,0,0,1,8.05,18.57v26H375.1a8.48,8.48,0,0,1,8.48,8.48v33.95a8.48,8.48,0,0,1-8.48,8.48H349.64v17H375.1a8.48,8.48,0,0,1,8.48,8.48v34a8.49,8.49,0,0,1-8.48,8.49H349.64v33.94h42.71a8.49,8.49,0,0,0,8.49-8.48V202.81A8.47,8.47,0,0,0,398.16,196.62Z" transform="translate(-10 -10)"/><path class="cls-2" d="M193.63,132.7a8.49,8.49,0,0,0-11.61,0l-68.18,63.92a8.47,8.47,0,0,0-2.68,6.19v170.3a8.49,8.49,0,0,0,8.49,8.48h42.71V347.65H136.9a8.49,8.49,0,0,1-8.48-8.49v-34a8.48,8.48,0,0,1,8.48-8.48h25.46v-17H136.9a8.48,8.48,0,0,1-8.48-8.48V237.32a8.49,8.49,0,0,1,8.48-8.49h25.46v-26a25.55,25.55,0,0,1,8-18.57l39.09-36.66Z" transform="translate(-10 -10)"/><path class="cls-2" d="M145.39,313.7h17v17h-17Z" transform="translate(-10 -10)"/><path class="cls-2" d="M145.39,245.81h17v17h-17Z" transform="translate(-10 -10)"/><path class="cls-2" d="M247.51,330.67h17v50.92h-17Z" transform="translate(-10 -10)"/><path class="cls-2" d="M247.51,245.81h17v17h-17Z" transform="translate(-10 -10)"/><path class="cls-2" d="M261.8,132.7a8.48,8.48,0,0,0-11.6,0L182,196.62a8.47,8.47,0,0,0-2.68,6.19V381.59h51.2V330.67h-3.11a8.49,8.49,0,1,1,0-17h57.14a8.49,8.49,0,1,1,0,17h-3.11v50.92h51.2V202.81a8.47,8.47,0,0,0-2.68-6.19Zm22.77,147.05H227.43a8.49,8.49,0,1,1,0-17h3.11V237.32a8.49,8.49,0,0,1,8.49-8.49H273a8.49,8.49,0,0,1,8.49,8.49v25.46h3.11a8.49,8.49,0,1,1,0,17Z" transform="translate(-10 -10)"/></g></g><g id="neighborhood-2" data-name="neighborhood"><circle class="cls-1" cx="246" cy="246" r="246"/><g id="houses-2" data-name="houses"><path class="cls-2" d="M349.64,313.7h17v17h-17Z" transform="translate(-10 -10)"/><path class="cls-2" d="M349.64,245.81h17v17h-17Z" transform="translate(-10 -10)"/><path class="cls-2" d="M398.16,196.62,330,132.7a8.49,8.49,0,0,0-11.61,0L302.5,147.59l39.09,36.65a25.55,25.55,0,0,1,8.05,18.57v26H375.1a8.48,8.48,0,0,1,8.48,8.48v33.95a8.48,8.48,0,0,1-8.48,8.48H349.64v17H375.1a8.48,8.48,0,0,1,8.48,8.48v34a8.49,8.49,0,0,1-8.48,8.49H349.64v33.94h42.71a8.49,8.49,0,0,0,8.49-8.48V202.81A8.47,8.47,0,0,0,398.16,196.62Z" transform="translate(-10 -10)"/><path class="cls-2" d="M193.63,132.7a8.49,8.49,0,0,0-11.61,0l-68.18,63.92a8.47,8.47,0,0,0-2.68,6.19v170.3a8.49,8.49,0,0,0,8.49,8.48h42.71V347.65H136.9a8.49,8.49,0,0,1-8.48-8.49v-34a8.48,8.48,0,0,1,8.48-8.48h25.46v-17H136.9a8.48,8.48,0,0,1-8.48-8.48V237.32a8.49,8.49,0,0,1,8.48-8.49h25.46v-26a25.55,25.55,0,0,1,8-18.57l39.09-36.66Z" transform="translate(-10 -10)"/><path class="cls-2" d="M145.39,313.7h17v17h-17Z" transform="translate(-10 -10)"/><path class="cls-2" d="M145.39,245.81h17v17h-17Z" transform="translate(-10 -10)"/><path class="cls-2" d="M247.51,330.67h17v50.92h-17Z" transform="translate(-10 -10)"/><path class="cls-2" d="M247.51,245.81h17v17h-17Z" transform="translate(-10 -10)"/><path class="cls-2" d="M261.8,132.7a8.48,8.48,0,0,0-11.6,0L182,196.62a8.47,8.47,0,0,0-2.68,6.19V381.59h51.2V330.67h-3.11a8.49,8.49,0,1,1,0-17h57.14a8.49,8.49,0,1,1,0,17h-3.11v50.92h51.2V202.81a8.47,8.47,0,0,0-2.68-6.19Zm22.77,147.05H227.43a8.49,8.49,0,1,1,0-17h3.11V237.32a8.49,8.49,0,0,1,8.49-8.49H273a8.49,8.49,0,0,1,8.49,8.49v25.46h3.11a8.49,8.49,0,1,1,0,17Z" transform="translate(-10 -10)"/></g></g><g id="metro"><circle class="cls-1" cx="246" cy="246" r="246"/><g id="metro-2" data-name="metro"><g id="Layer_1-2" data-name="Layer 1"><path class="cls-2" d="M374.2,388.48l-44.49-81a26.34,26.34,0,0,0,21.91-25.89V162a57.81,57.81,0,0,0-57.77-57.77h-75.7a58.51,58.51,0,0,0-58.44,58.43V281.57a25.83,25.83,0,0,0,21.92,25.89l-43.83,81c-3.32,6.64-1.33,14.61,5.31,17.93,2,1.32,4,1.32,6,1.32a12.84,12.84,0,0,0,11.29-6.64l4-6.64H347.64l4,6.64a12.33,12.33,0,0,0,11.29,6.64,19.58,19.58,0,0,0,6-1.32C375.53,403.09,377.52,395.12,374.2,388.48Zm-62.42-59.77H200.22l11.29-20.58h89Zm-2-44.49A19.26,19.26,0,1,1,329.05,265C329,274.93,320.41,284.22,309.79,284.22ZM183,170c0-20.59,16.61-37.19,36.53-37.19h72.38c19.92,0,37.18,16.6,37.18,37.19v31.87c0,7.3-6,12.62-13.28,12.62H196.24a12.61,12.61,0,0,1-12.62-12.62L183,170Zm19.26,75A19.26,19.26,0,1,1,183,264.3,19.28,19.28,0,0,1,202.21,245ZM175,374.53l14.61-25.9H322.4L337,374.53Z" transform="translate(-10 -10)"/></g></g></g></svg>