<?xml version="1.0" encoding="UTF-8"?>
<svg id="Layer_1" xmlns="http://www.w3.org/2000/svg" version="1.1" viewBox="0 0 289 51.3">
  <!-- Generator: Adobe Illustrator 29.2.1, SVG Export Plug-In . SVG Version: 2.1.0 Build 116)  -->
  <defs>
    <style>
      .st0 {
        fill: #73c167;
      }

      .st1 {
        fill: #fff;
      }
    </style>
  </defs>
  <path class="st0" d="M85.1,26.4v-10.8h-11.1v-5.9h-4.2v35.6h-4.4V.3l-17.3,13.3v19.3h-4.5v12.4h-4.3v-23.3h-4.2v4.7l-6.7-5.3-10.9,9.5v14.4h-4.4v-12.2h-4.4c-2,0-3.4-1.7-3.4-3.7s.5-2.6,1.7-3.3c0,0-2.5-1.1-2.4-3.7,0-2.2,1.5-3.9,3.8-4.2,1.1-.2,3,.2,3.8,1,0,0,.4-1,1.4-1.8.6-.5,1.3-1,3.2-1.1,2.6-.2,5.6,2.3,5.4,5h0l3.4-3c-1.3-3.3-4.8-6.3-9.4-5.9-3.8.4-4.7,2.6-4.7,2.6-1.3-.7-2.5-.8-3.9-.6-3.9.5-6.6,3.9-6.7,7.4,0,3.1,1.4,4.3,1.4,4.3-.6,1-1.3,2.9-.2,5.6.5,1.4,1,2,2,3,1.8,1.8,3.6,2.1,4.7,2.2h.7v8.3h0v4.2h12.6v-16.7l6.8-5.9,6.6,5.2v17.5h12.7v-12.4h4.5V15.6l8.9-6.9v40.9h12.8v-29.8h6.9v10.8h6.6v19.1h4.2v-23.3h-6.7Z"/>
  <g>
    <path class="st1" d="M282.8,28.1h0c0-1.5,1.2-2.7,2.7-2.7s2.7,1.2,2.7,2.7h0c0,1.5-1.2,2.7-2.7,2.7s-2.7-1.2-2.7-2.7ZM288,28.1h0c0-1.4-1-2.5-2.4-2.5s-2.5,1.1-2.5,2.5h0c0,1.4,1,2.5,2.4,2.5s2.5-1.1,2.5-2.5ZM284.2,28.1h0c0-.8.6-1.5,1.4-1.5s.9.2,1.1.5l-.3.4c-.2-.2-.5-.3-.8-.3-.5,0-.9.4-.9,1h0c0,.6.4,1,.9,1s.6-.2.8-.3l.3.3c-.3.3-.6.5-1.1.5-.8,0-1.4-.6-1.4-1.4Z"/>
    <g>
      <path class="st1" d="M103.8,49.5v-25.4h5.7v20.6h7.9v4.8h-13.7,0Z"/>
      <path class="st1" d="M120.9,49.5v-25.4h5.7v25.4h-5.7Z"/>
      <path class="st1" d="M137,49.5l-7.6-25.4h6.1l3.1,11.8c.4,1.4.7,2.7,1,4.1.3,1.3.6,2.6,1,4.1h.2c.4-1.4.7-2.7,1-4.1.3-1.3.6-2.6,1-4.1l3-11.8h5.9l-7.6,25.4h-7.1Z"/>
      <path class="st1" d="M150,49.5l7.9-25.4h6.9l7.9,25.4h-6.1l-1.5-6h-7.7l-1.5,6h-5.9ZM159.2,36.7l-.6,2.3h5.4l-.6-2.3c-.4-1.3-.7-2.6-1-4-.3-1.4-.6-2.8-1-4.1h-.2c-.3,1.4-.6,2.7-1,4.2s-.6,2.7-1,4h0Z"/>
      <path class="st1" d="M175.6,49.5v-25.4h8.7c1.3,0,2.6,0,3.7.3,1.1.2,2.1.6,3,1,.8.5,1.5,1.1,2,1.9s.7,1.8.7,3.1,0,1.1-.2,1.7c-.2.6-.4,1.1-.6,1.6-.3.5-.6,1-1,1.3-.4.4-.9.6-1.4.9v.2c.6.2,1.2.4,1.8.7s1,.7,1.4,1.2.7,1,1,1.8c.2.6.3,1.4.3,2.2,0,1.3-.2,2.4-.7,3.4-.5,1-1.2,1.7-2.1,2.3-.9.6-1.9,1-3.1,1.4s-2.5.5-3.9.5h-9.5ZM181.3,34.3h2.6c1.4,0,2.4-.2,3.1-.8s1-1.3,1-2.2-.3-1.7-1-2.1-1.6-.6-3-.6h-2.7v5.7h0ZM181.3,45.1h3.2c3.1,0,4.7-1.1,4.7-3.5s-.4-1.9-1.2-2.4-1.9-.7-3.5-.7h-3.2v6.5h0Z"/>
      <path class="st1" d="M199.1,49.5v-25.4h5.7v25.4h-5.7Z"/>
      <path class="st1" d="M210.7,49.5v-25.4h5.7v20.6h7.9v4.8h-13.7,0Z"/>
      <path class="st1" d="M228.9,49.5v-25.4h5.7v25.4h-5.7Z"/>
      <path class="st1" d="M245.5,49.5v-20.6h-7v-4.8h19.7v4.8h-7v20.6h-5.8,0Z"/>
      <path class="st1" d="M268.2,49.5v-9l-7.6-16.3h6.2l2.2,5.9c.4,1,.7,1.8,1,2.8.3.9.6,1.8,1,2.8h.2c.4-1,.7-1.9,1-2.8s.7-1.8,1-2.8l2.3-5.9h6l-7.6,16.3v9h-5.9Z"/>
    </g>
  </g>
</svg>