<?xml version="1.0" encoding="UTF-8"?>
<svg xmlns="http://www.w3.org/2000/svg" xmlns:xlink="http://www.w3.org/1999/xlink" viewBox="0 0 360 576">
  <defs>
    <style>
      .cls-1, .cls-2, .cls-3, .cls-4, .cls-5, .cls-6, .cls-7, .cls-8, .cls-9, .cls-10, .cls-11, .cls-12, .cls-13, .cls-14, .cls-15, .cls-16 {
        stroke-width: 0px;
      }

      .cls-1, .cls-6 {
        fill: #d8e9e9;
      }

      .cls-17 {
        clip-path: url(#clippath);
      }

      .cls-2, .cls-18 {
        fill: none;
      }

      .cls-3 {
        fill: #979ec7;
      }

      .cls-4 {
        fill: #d2e2e3;
      }

      .cls-5, .cls-12 {
        fill: #adc8ca;
      }

      .cls-6, .cls-19, .cls-20 {
        mix-blend-mode: multiply;
      }

      .cls-7 {
        fill: #80453f;
      }

      .cls-8 {
        fill: #2f4a60;
      }

      .cls-18 {
        stroke: #fff;
        stroke-width: 4px;
      }

      .cls-9 {
        fill: #6e8190;
      }

      .cls-21, .cls-12 {
        opacity: .5;
      }

      .cls-10 {
        fill: #8cdfb6;
      }

      .cls-11 {
        fill: #131e26;
      }

      .cls-13 {
        fill: #212121;
      }

      .cls-22 {
        isolation: isolate;
      }

      .cls-14 {
        fill: #a77c77;
      }

      .cls-15 {
        fill: #e64d3c;
      }

      .cls-16 {
        fill: #fff;
      }

      .cls-20 {
        opacity: .2;
      }
    </style>
    <clipPath id="clippath">
      <path class="cls-2" d="M269.75,415.6c15.52,0,28.09-12.58,28.09-28.09V101.22c0-15.52-12.58-28.09-28.09-28.09h-118.16c-15.52,0-28.09,12.58-28.09,28.09v286.29c0,15.52,12.58,28.09,28.09,28.09h118.16Z"/>
    </clipPath>
  </defs>
  <g class="cls-22">
    <g id="Layer_2" data-name="Layer 2">
      <g>
        <g>
          <path class="cls-7" d="M192.79,537.94l77.26-133.81c16.64-28.82,6.77-65.68-22.06-82.32l-52.99-30.59c-33.26-19.2-75.49-11.8-100.23,17.57l-13.57,16.11,23.42,82.45c3.82,11.22,2.62,23.54-3.31,33.8l-19.04,32.98,73.69,42.54,36.84,21.27h0,0Z"/>
          <path class="cls-7" d="M318.82,165.15l-41.4,41.4c-3.25,3.25-7.56,5.04-12.16,5.04s-8.91-1.79-12.15-5.04h0c-6.7-6.7-6.7-17.61,0-24.31l41.4-41.4c6.7-6.7,17.61-6.7,24.31,0,3.35,3.35,5.03,7.75,5.03,12.16s-1.68,8.8-5.03,12.16Z"/>
          <polygon class="cls-11" points="194.35 576 21.48 576 82.26 474.12 203.67 544.22 194.35 576"/>
        </g>
        <rect class="cls-4" x="123.5" y="73.12" width="174.35" height="342.48" rx="28.09" ry="28.09"/>
        <g class="cls-17">
          <g>
            <polygon class="cls-6" points="269.69 326.93 258.36 338.26 241.15 321.35 241.18 321.33 237.02 317.22 245.2 312.2 248.53 315.47 254.78 312.33 269.69 326.93"/>
            <polygon class="cls-6" points="269.63 349.92 293.13 373.2 297.86 373.09 297.71 356.33 280.96 338.89 269.63 349.92"/>
            <polygon class="cls-6" points="266.27 301.55 287.9 322.99 292.62 322.88 292.48 306.35 279.69 294.26 266.27 301.55"/>
            <polygon class="cls-10" points="232.73 279.11 254.2 257.42 280.85 284.93 252.98 299.65 232.73 279.11"/>
            <polygon class="cls-10" points="258.71 436.46 210.67 436.46 210.01 301.67 258.71 349.98 258.71 436.46"/>
            <polygon class="cls-10" points="203.73 167.08 220.2 150.85 242.7 150.65 242.7 204.95 203.73 167.08"/>
            <polygon class="cls-10" points="129.68 77.25 216.18 76.64 182.36 112.32 167.49 97.58 129.68 116 129.68 77.25"/>
            <polygon class="cls-10" points="239.16 92.59 273.55 58.44 293.36 77.72 259.54 111.55 239.16 92.59"/>
            <g class="cls-19">
              <polygon class="cls-12" points="137.57 121.06 150.56 132.96 171.01 111.85 166.04 107.19 137.57 121.06"/>
              <path class="cls-12" d="M220.17,85.43l-12.64,12.18c-1.17,1.13-1.82,2.65-1.83,4.28,0,1.63.63,3.16,1.79,4.3,1.13,1.11,2.61,1.71,4.19,1.71.03,0,.05,0,.08,0,1.61-.02,3.11-.67,4.22-1.82l12.26-12.66-8.08-8Z"/>
              <polygon class="cls-12" points="139.49 166.25 147.51 174.2 176.69 145.76 167.93 137.17 139.49 166.25"/>
              <polygon class="cls-12" points="173.8 131.82 181.96 139.9 190.67 131.62 182.06 123.17 173.8 131.82"/>
              <polygon class="cls-12" points="270.16 110.91 277.46 118.15 304.02 92.32 296 84.45 270.16 110.91"/>
              <polygon class="cls-12" points="212.23 130.97 223.61 142.84 253.05 142.75 265.92 129.25 239.3 103.79 212.23 130.97"/>
              <polygon class="cls-12" points="172.41 171.57 180.43 179.51 209.91 150.78 201.15 142.18 172.41 171.57"/>
              <polygon class="cls-12" points="178.01 204.87 185.32 212.11 211.87 186.28 203.85 178.41 178.01 204.87"/>
              <rect class="cls-12" x="221.04" y="198.56" width="12.25" height="23.12" transform="translate(-82.04 222.12) rotate(-44.99)"/>
              <path class="cls-12" d="M236.75,228.28l13.54,13.32c2.39,2.35,6.26,2.33,8.62-.03h0c1.16-1.16,1.8-2.71,1.79-4.35,0-1.64-.66-3.18-1.83-4.34l-13.47-13.26-8.66,8.66Z"/>
              <path class="cls-12" d="M216.34,267.79l7.97,7.97,18.68-18.68-7.97-7.97-18.68,18.68Z"/>
              <polygon class="cls-12" points="221.43 301.6 225.19 305.24 240 297.32 232.79 290.33 221.43 301.6"/>
              <rect class="cls-12" x="212.82" y="271.42" width="4.43" height="11.27" transform="translate(-132.93 233.2) rotate(-45)"/>
              <path class="cls-12" d="M193.56,226.5v24.86c0,10.14,12.21,15.28,19.47,8.19h0s16.15-16.35,16.15-16.35l-25.97-25.79-9.64,9.09Z"/>
              <polygon class="cls-12" points="128.54 275.52 128.07 310.76 142.66 296.66 143.15 275.52 128.54 275.52"/>
              <g class="cls-21">
                <path class="cls-5" d="M171.79,319.51c-1.17,1.17-1.17,3.07,0,4.24l5.82,5.82,4.24-4.24-5.82-5.82c-.76-.76-1.65-.88-2.12-.88s-1.35.11-2.12.88Z"/>
              </g>
              <path class="cls-12" d="M114.15,346.98l8.75,8.59,24.78-25.33c2.19-2.24,2.16-5.85-.06-8.05-2.2-2.18-5.79-2.19-8.01-.03l-25.46,24.82Z"/>
              <rect class="cls-12" x="187.34" y="330.43" width="5.99" height="15.23" transform="translate(-183.29 233.59) rotate(-45)"/>
              <polygon class="cls-12" points="122.92 383.01 131.67 391.6 160.42 362.21 152.4 354.27 122.92 383.01"/>
              <polygon class="cls-12" points="184.09 398.27 202.62 398.27 202.48 377.24 185.16 360.18 165.65 379.83 184.09 398.27"/>
              <polygon class="cls-12" points="157.46 348.62 166.07 357.07 174.33 348.43 166.17 340.35 157.46 348.62"/>
              <g class="cls-21">
                <path class="cls-5" d="M266.71,387.31h12.83c.91,0,1.56-.43,1.91-1.28.35-.85.2-1.6-.45-2.25l-8.62-8.57h-5.66v12.09Z"/>
              </g>
              <polygon class="cls-1" points="266.57 407.6 290.17 407.6 289.97 395.51 266.36 395.51 266.57 407.6"/>
              <polygon class="cls-12" points="265.57 257.38 292.55 283.89 292.64 267.23 274.18 248.77 265.57 257.38"/>
              <polygon class="cls-12" points="158.49 185.36 166.65 193.44 175.37 185.16 166.76 176.71 158.49 185.36"/>
            </g>
            <polygon class="cls-10" points="125.08 267.51 125.08 163.69 185.27 223.32 141.98 267.51 125.08 267.51"/>
            <path class="cls-3" d="M261.82,169.69l13.23-13.43c4.44-4.51,10.48-7.08,16.81-7.15h0c13.4-.15,24.32,10.7,24.26,24.09l-.12,26.57c-.1,21.33-25.9,31.93-40.96,16.83l-13.11-13.14c-9.3-9.32-9.35-24.4-.11-33.78Z"/>
            <path class="cls-3" d="M240.39,436.46h-13.04v-57.67c0-11.08-4.32-21.5-12.15-29.34h0s-37.66-37.67-37.66-37.67c-10.3-10.3-15.97-23.99-15.97-38.56v-19.12c0-11.08-4.32-21.5-12.15-29.34l-57.25-57.25,9.22-9.22,57.25,57.25c10.3,10.3,15.97,23.99,15.97,38.56v19.12c0,11.08,4.32,21.5,12.15,29.34l37.66,37.66h0c10.3,10.31,15.97,24,15.97,38.57v57.67Z"/>
            <g>
              <line class="cls-18" x1="273.6" y1="58.82" x2="147.09" y2="185.34"/>
              <line class="cls-18" x1="232.28" y1="62.41" x2="128.22" y2="166.47"/>
              <line class="cls-18" x1="117.04" y1="155.09" x2="185.27" y2="223.32"/>
              <line class="cls-18" x1="204.06" y1="167.04" x2="305.13" y2="268.11"/>
              <polyline class="cls-18" points="220.11 149.74 167.49 97.58 118.18 121.65"/>
              <line class="cls-18" x1="240.1" y1="92.33" x2="277.22" y2="128.99"/>
              <line class="cls-18" x1="242.7" y1="204.95" x2="242.7" y2="150.65"/>
              <line class="cls-18" x1="258.71" y1="435.8" x2="258.71" y2="349.98"/>
              <line class="cls-18" x1="258.71" y1="349.98" x2="281.16" y2="327.53"/>
              <polyline class="cls-18" points="295.55 111.69 256.49 150.75 220.2 150.85 166.42 204.68"/>
              <line class="cls-18" x1="306.93" y1="64.13" x2="259.54" y2="111.55"/>
              <line class="cls-18" x1="232.73" y1="279.11" x2="314.16" y2="360.53"/>
              <line class="cls-18" x1="210.67" y1="301.67" x2="210.67" y2="436.19"/>
              <line class="cls-18" x1="210.46" y1="373.87" x2="143.54" y2="306.94"/>
              <line class="cls-18" x1="274.35" y1="237.33" x2="210.01" y2="301.67"/>
              <line class="cls-18" x1="185.63" y1="348.36" x2="121.29" y2="412.7"/>
              <line class="cls-18" x1="166.03" y1="328.43" x2="101.69" y2="392.76"/>
              <line class="cls-18" x1="280.85" y1="284.93" x2="223.82" y2="315.06"/>
              <polyline class="cls-18" points="151.56 258.06 151.56 298.46 126.88 323.15"/>
              <line class="cls-18" x1="203.35" y1="206.27" x2="293.01" y2="295.96"/>
              <line class="cls-18" x1="155.29" y1="380.79" x2="210.66" y2="436.19"/>
              <polyline class="cls-18" points="306.86 398.52 185.92 277.58 185.92 223.32"/>
              <polyline class="cls-18" points="223.32 186.3 142.13 267.49 120.64 267.49"/>
            </g>
            <g class="cls-20">
              <path class="cls-13" d="M269.75,84.45c9.25,0,16.77,7.52,16.77,16.77v286.29c0,9.25-7.52,16.77-16.77,16.77h-118.16c-9.25,0-16.77-7.52-16.77-16.77V101.22c0-9.25,7.52-16.77,16.77-16.77h118.16M269.75,82.45h-118.16c-10.35,0-18.77,8.42-18.77,18.77v286.29c0,10.35,8.42,18.77,18.77,18.77h118.16c10.35,0,18.77-8.42,18.77-18.77V101.22c0-10.35-8.42-18.77-18.77-18.77h0Z"/>
            </g>
            <g>
              <path class="cls-15" d="M256.89,161.05s-9.82-13.91-9.82-18.93v-.44c0-5.42,4.41-9.83,9.83-9.83s9.83,4.41,9.83,9.83v.44c0,5.02-9.83,18.93-9.83,18.93Z"/>
              <path class="cls-16" d="M256.89,146.99c-2.83,0-5.13-2.3-5.13-5.13s2.3-5.13,5.13-5.13,5.13,2.3,5.13,5.13-2.3,5.13-5.13,5.13Z"/>
            </g>
          </g>
        </g>
        <path class="cls-9" d="M293.46,159.07h4.38c2.94,0,5.32,2.38,5.32,5.32v39.07c0,2.94-2.38,5.32-5.32,5.32h-4.38v-49.71Z"/>
        <path class="cls-9" d="M127.88,160.3h-4.38c-2.94,0-5.32-2.38-5.32-5.32v-20.42c0-2.94,2.38-5.32,5.32-5.32h4.38v31.06Z"/>
        <path class="cls-9" d="M127.88,201.3h-4.38c-2.94,0-5.32-2.38-5.32-5.32v-20.42c0-2.94,2.38-5.32,5.32-5.32h4.38v31.06Z"/>
        <path class="cls-8" d="M269.75,82.45c10.35,0,18.77,8.42,18.77,18.77v286.29c0,10.35-8.42,18.77-18.77,18.77h-118.16c-10.35,0-18.77-8.42-18.77-18.77V101.22c0-10.35,8.42-18.77,18.77-18.77h118.16M269.75,73.12h-118.16c-15.52,0-28.09,12.58-28.09,28.09v286.29c0,15.52,12.58,28.09,28.09,28.09h118.16c15.52,0,28.09-12.58,28.09-28.09V101.22c0-15.52-12.58-28.09-28.09-28.09h0Z"/>
        <g>
          <path class="cls-7" d="M318.82,232.26l-14.73,14.73c-3.25,3.25-7.56,5.04-12.16,5.04s-8.91-1.79-12.15-5.04h0c-6.7-6.7-6.7-17.61,0-24.31l14.73-14.73c6.7-6.7,17.61-6.7,24.31,0,3.35,3.35,5.03,7.75,5.03,12.16s-1.68,8.8-5.03,12.16Z"/>
          <path class="cls-7" d="M115.01,213.92l-35.62,78.59c-2.56,7-2.91,14.61-1,21.81l21.64,76.91,15.97-81.68,20.56-56.23c5.88-16.07-1.33-33.73-16.19-41.32-2-1.02-4.45-.13-5.37,1.91Z"/>
          <path class="cls-14" d="M301.22,241.4c4.38-4.38,4.38-11.48,0-15.86-4.38-4.38-11.48-4.38-15.86,0-4.38,4.38-4.38,11.48,0,15.86,4.38,4.38,11.48,4.38,15.86,0"/>
          <path class="cls-7" d="M318.82,277.38l-14.73,14.73c-3.25,3.25-7.56,5.04-12.16,5.04s-8.91-1.79-12.15-5.04h0c-6.7-6.7-6.7-17.61,0-24.31l14.73-14.73c6.7-6.7,17.61-6.7,24.31,0,3.35,3.35,5.03,7.75,5.03,12.16s-1.68,8.8-5.03,12.16Z"/>
          <path class="cls-14" d="M301.22,286.52c4.38-4.38,4.38-11.48,0-15.86-4.38-4.38-11.48-4.38-15.86,0-4.38,4.38-4.38,11.48,0,15.86,4.38,4.38,11.48,4.38,15.86,0"/>
          <circle class="cls-7" cx="304.5" cy="330.75" r="17.33" transform="translate(-144.69 312.19) rotate(-45)"/>
        </g>
      </g>
    </g>
  </g>
</svg>