<?xml version="1.0" encoding="UTF-8"?>
<svg id="Layer_1" data-name="Layer 1" xmlns="http://www.w3.org/2000/svg" viewBox="0 0 2000 2000">
  <defs>
    <style>
      .cls-1 {
        fill: #3b3b4d;
      }

      .cls-1, .cls-2, .cls-3, .cls-4, .cls-5, .cls-6, .cls-7, .cls-8, .cls-9 {
        stroke-width: 0px;
      }

      .cls-2 {
        fill: #c86f45;
      }

      .cls-3 {
        fill: #f7941d;
        opacity: .25;
      }

      .cls-4 {
        fill: #d4b8ce;
      }

      .cls-5 {
        fill: #d0777c;
      }

      .cls-6 {
        opacity: .1;
      }

      .cls-6, .cls-8, .cls-9 {
        fill: #291304;
      }

      .cls-7 {
        fill: #ffd15f;
      }

      .cls-8 {
        opacity: .18;
      }
    </style>
  </defs>
  <g>
    <path class="cls-8" d="M1445.61,753.8c9.44,1.89,24.55-41.54,32.1-41.54s43.05-3.37,61.18-26.23c18.13-22.86-6.42-75.73-19.64-85.18-13.22-9.44-94.41,22.66-94.41,22.66l20.77,130.29Z"/>
    <path class="cls-2" d="M1440.74,835.3l-4.65,45.28-223.55-5.56,5.07-42s63.7-10.05,76.72-22.14c4.97-4.59,7.49-16.49,8.73-29.42.7-7.47.99-15.33,1.04-22.31.11-12.69-.47-22.61-.47-22.61l53.84-2.47s.11.78.34,2.2c.4,2.39,1.1,6.6,2.05,11.84,3.41,18.82,10.09,50.95,17.19,59.98,10.22,13.01,63.7,27.2,63.7,27.2Z"/>
    <path class="cls-2" d="M1255.57,872.94l-28.3,47.67-3.47,5.86s-59-17.13-85.18-33.03c-.11-.06-.21-.13-.32-.19-35.93-21.93-88.55-74.55-97.62-88.15-9.09-13.64-47.07-31.53-72.33-51.9-24.59-19.8-47.01-54.58-54.01-55.58s-24.7-10.4-35.34-19.39c-14.49-12.24-27.32-29.27-33.52-41.03-3.79-7.17-5.12-12.39-2.88-13.39,11.8-5.31,15.92,17,26.08,14.15,13.03-3.64-49.7-54.46-21.63-52.81,12.1.72,49.04,32.06,60.65,42.53,14.61,13.18,16.5,30.45,30.88,39.46,14.4,8.99,81.31,38.3,104.39,53.82,23.07,15.52,62.53,50.56,68.52,58.64,0,0,17.11,8,34.2,15.46,6.83,2.98,25.74,16.03,46.02,30.62,30.41,21.89,63.85,47.27,63.85,47.27Z"/>
    <path class="cls-2" d="M1467.97,861.33s91.37,50.9,103.69,62.27c12.31,11.37,25.09,22.56,25.09,22.56,8.78,2.02,47.84,24.38,68.93,37.76,21.09,13.39,73.36,55.3,85.96,63.89,12.6,8.59,39.78,10.44,51.32,16.11,12.59,6.19,37.77,20.39,46.46,30.9,6.66,8.05-47.67-11.31-53.54-4.37-2.77,3.27,28.41,10.95,30.47,16.4,2.06,5.45-51.26-4.71-57.82-8.19-11.03-5.86-25.65-16.8-29.03-22.2-3.38-5.4-50.48-17.33-75.63-30.4-25.85-13.43-47.72-29.8-62.18-32.34-14.46-2.54-73.84-34.96-104.75-56.66-22.52-15.8-61.15-50.18-61.15-50.18l32.18-45.56Z"/>
    <path class="cls-4" d="M1535.97,898.24c-4.4,6.6-26.1,58.86-36.16,68.77-1.27,1.25-2.35,1.84-3.19,1.56-7.47-2.47-40.9-24.09-45.49-17.28-2.26,3.38-5.5,17.47-9.52,36.29-7.04,32.88-16.52,80.19-27.51,109.95-5.73,15.52-161,9.94-170.92,9.94s-56.66-110.71-57.59-139.51c-.15-4.95-.11-9.43.04-13.49.13-3.72.34-7.09.53-10.17.89-13.72,1.4-21.42-6.85-27.35-2.67-1.93-6.28-3.66-11.08-5.37-19.35-6.87-90.51-52.05-90.45-63.51.02-1.88,1.12-5.56,3.02-10.3v-.02c8.14-20.6,30.66-61.25,39.72-61.25,8.76.02,52.09,40.01,70.66,39.97,26.54-.04,40.86,6.2,55.13,7.13,8.42.55,53.15,18.48,80.32,17.96,64.65-1.23,99.67-14.57,108.04-13.64,8.37.93,12.82,2.79,27.87,11.15,15.06,8.37,78.39,51.73,73.43,59.17Z"/>
    <path class="cls-2" d="M1511.98,1608s11.93,129.71,18.9,162.89c5.35,25.45,26.65,84.35,30.96,96.75,5.72,16.42,24.98,61.99,11.98,61.02-29.73-2.21-44.93-42.42-58.3-55.06-13.38-12.64-29.47-16.71-42.67-22.96-17.64-8.35-20.87-49.96-10.95-64.77,16.56-24.73-18.41-144.02-25.51-163.98-8.43-23.68,75.6-13.89,75.6-13.89Z"/>
    <path class="cls-2" d="M1219.97,1592.64s3.52,121.02,0,150.07c-3.72,30.67-68.46,27.88-85.14,39.73-45.52,32.34-4.55,38.2,45.18,36.48,49.73-1.71,43.9-3.86,64.13-5.58,20.23-1.71,27.18,7.73,39.18.87,12-6.86,5.14-30.87,0-48.01-5.14-17.15,10.02-161.18,12.72-169.76,2.71-8.57-76.07-3.81-76.07-3.81Z"/>
    <path class="cls-1" d="M1290.46,1066.47c-5.23-2.68-70.18,1.24-83.81,0-13.63-1.24,17.35,13.91,17.35,36.08s-9.06,40.94-22.22,80.77c-22.39,67.79-3.43,524.21,3.83,535.03,8.88,13.23,78.06,18.59,90.42,0,9.7-14.59,34.67-270.21,37.01-285.08,1.02-6.44,2.73-33.83,4.34-66.52,2.11-42.78,4.05-94.66,4.05-120.59,0-52.05-31.6-169.77-50.97-179.68Z"/>
    <path class="cls-1" d="M1308.4,1064.61c18.24,3.1,109.89.62,126.31-10.8,12.3-8.56-14.9,28.92-3.76,53.57,29.04,64.28,26.99,52.96,36.06,92.93,8.03,35.36,90.6,511.24,79.18,523.63-11.42,12.39-85.3,16.11-99.78,9.91-14.48-6.2-84.84-338.62-96.83-386.08-8.14-32.22-36.91-114.46-41.17-132.59-9.91-42.13-21.98-154.29,0-150.56Z"/>
    <path class="cls-2" d="M1438.37,672.31c-5.03,25.86-1.25,26.65-30.86,46.04-29.59,19.41-15.86,16.75-44.88,28.66-.93.38-1.84.76-2.77,1.1-2.26.91-4.51,1.78-6.79,2.6-16.52,6.01-33.12,9.85-48.96,8.44-8.59-.74-16.98-3.02-24.98-7.34-3.96-2.14-7.32-4.51-10.13-7.08-29.65-26.92.42-74.29.3-82.65-.17-10.43-7.78-27.17-.15-34.18,6.13-5.65,12.48,5.86,30.9,2.62,23.81-4.17,67.55-66.57,100.68-29.99,25.19,27.79,42.68,45.95,37.66,71.78Z"/>
    <path class="cls-9" d="M1448.98,632.73c-1.94-4.6,5.62-32.87,25.42-33.06,18.84-.17,40.81,0,45.89,35.56,3.53,24.68,17.22,30.98-7.36,54.87-16.44,15.98-39.27,3.66-48.34-8.79-10.32-14.16-10.86-37.35-15.61-48.59Z"/>
    <path class="cls-9" d="M1356.15,597.09c12.54,2.78-2.65,37.86,13.35,71.54,16,33.67,14.99,56.05-9.65,76.94-7.23,6.13,15.45,20.21,29.55,25.11,23.04,8.02,51.35-14.69,64.88-29.41,28.55-31.08,20.75-79.6,9.19-94.98-7.62-10.14-2.14-28.53-30.27-54.69-23.67-22-74.45-24.76-91.54,12.16-1.75,3.77,8.78-7.94,14.51-6.67Z"/>
    <path class="cls-5" d="M1455.61,611.12s-2.15-.15-4.23,3.17c-2.08,3.32,10.31,25.26,13.31,33.61,4.13,11.51,5.79,40.74,9.63,43.38,3.84,2.64,10.18,4.84,8.17,4.03-2.87-1.15-9.71-32.55-12.53-40.02-2.83-7.47-10.15-36.84-14.34-44.16Z"/>
    <path class="cls-2" d="M1370.63,717.25s22.97,2.99,23.29,10.65c.32,7.65-8.93,21.92-21.46,22.91-12.54.99-19.32-5.37-22.58-4.6-3.26.76,20.76-28.95,20.76-28.95Z"/>
    <path class="cls-8" d="M1353.06,750.71c-2.73,5.37-6.39,10.3-11.31,13.98-8.75,6.56-23.8,9.97-38.39,12.08.7-6.41.68-12.83.73-18.82,15.84,1.2,32.44-2.08,48.96-7.24Z"/>
    <path class="cls-6" d="M1186.16,944.3c.89-13.72,1.4-21.42-6.85-27.35,9.18-1.16,16.88-3.04,20.83-6.43,9.69-8.31-.93,14.87-13.98,33.79Z"/>
  </g>
  <g>
    <path class="cls-7" d="M610.97,453.46c-21.62,18.18,79.37,198.3,40.86,218.36-38.5,20.07-193.65-112.01-225.72-114.79-32.07-2.77-206.05,92.48-246.2,63.94-11.64-8.27-6.84-26.88,5.66-49.39,27.84-50.13,93.97-119.56,102.41-137.28,12.24-25.68-157.35-113.41-136.16-145.84,17.32-26.49,185.72,17.76,206.78,6.2,21.05-11.55,61.05-159.98,108.33-155.89,46.57,4.03,83.65,160.79,88.85,177.95,2.01,6.66,31.33,9.15,66.31,11.03,55.1,2.98,124.28,4.51,123.04,18.72-2,23.23-112.54,88.8-134.18,106.99Z"/>
    <path class="cls-3" d="M610.97,453.46c-21.62,18.18,79.37,198.3,40.86,218.36-38.5,20.07-193.65-112.01-225.72-114.79-32.07-2.77-206.05,92.48-246.2,63.94-11.64-8.27-6.84-26.88,5.66-49.39,89.29,3.48,288.15-144.39,436.53-243.83,55.1,2.98,124.28,4.51,123.04,18.72-2,23.23-112.54,88.8-134.18,106.99Z"/>
  </g>
  <path class="cls-6" d="M1108.79,1744.47c-.67.66-1.24.97-1.68.82-3.94-1.3-21.56-12.7-23.98-9.11-1.19,1.78-2.9,9.21-5.02,19.13-.47-4.6-1.14-12.32-1.65-22.92-.62-12.69,19.15,1.36,32.33,12.08Z"/>
</svg>