<svg fill="none" height="50" viewBox="0 0 60 50" width="60" xmlns="http://www.w3.org/2000/svg" xmlns:xlink="http://www.w3.org/1999/xlink"><clipPath id="a"><path d="m0 0h59.8261v50h-59.8261z"/></clipPath><g clip-path="url(#a)" fill="#6CC24A"><path d="m4.24353 50v-16.1027h9.77307v16.1027z"/><path d="m28.4046 23.0527v26.9473h-9.773v-26.9473z"/><path d="m43.5561 27.5719v22.4282h-9.773v-22.4282z"/><path d="m58.1237 18.5337v31.4664h-9.773v-31.4664z"/><path d="m59.8261.153086-10.5099-.153086 3.7577 3.86798-15.0392 14.60852-15.3759-11.11407-22.007712 20.45847c-.824624.7674-.871571 2.0574-.10614 2.8821.402107.4327.947092.6511 1.494122.6511.496 0 .99608-.1817 1.38798-.545l19.55625-18.1785 15.4372 11.159 17.4968-16.99461 3.7577 3.86801z"/></g></svg>