<svg fill="none" height="50" viewBox="0 0 62 50" width="62" xmlns="http://www.w3.org/2000/svg" xmlns:xlink="http://www.w3.org/1999/xlink"><clipPath id="a"><path d="m0 0h61.2548v50h-61.2548z"/></clipPath><g clip-path="url(#a)" fill="#6CC24A"><path d="m34.5597 36.8397c-2.4394 1.3802-5.4232 1.3802-7.8626 0l-17.7988-10.9167s-1.6057-.9868-1.6057 1.2463v10.8996c.00851 5.7423 10.4402 11.9332 23.3369 11.9332 12.8966 0 23.3369-6.1909 23.3369-11.9332v-11.5142c0-1.7929-1.1379-.9167-1.1379-.9167l-18.2667 11.2017z"/><path d="m60.2276 17.2374c1.3696-.838 1.3696-2.2118 0-3.0498l-27.1183-13.558045c-1.3675-.837942-3.6027-.837942-4.9723 0l-27.10978 13.560145c-1.369627.838-1.369627 2.2119 0 3.0498l27.12038 16.6312c1.3675.838 3.6027.838 4.9723 0"/><path d="m59.1067 41.8801v-18.3581s.0128-.8699-.5019-.5828c-.4147.2297-1.4292.7976-1.7865 1.1081-.4126.3594-.3211 1.1633-.3211 1.1633v16.6695c-.017.1808-.1319.3382-.2999.4083-1.5121.8826-2.0225 2.8265-1.1378 4.3386.8826 1.5121 2.8265 2.0226 4.3386 1.1378 1.5121-.8826 2.0225-2.8264 1.1378-4.3385-.2744-.4701-.6678-.8635-1.1378-1.1379-.168-.068-.2808-.2275-.2893-.4083z"/></g></svg>