<svg fill="none" height="50" viewBox="0 0 58 50" width="58" xmlns="http://www.w3.org/2000/svg" xmlns:xlink="http://www.w3.org/1999/xlink"><clipPath id="a"><path d="m.268311 0h57v50h-57z"/></clipPath><g clip-path="url(#a)" fill="#fff"><path d="m43.4933 49.7734c.589.5855 2.356-.1889 2.964-.7934l.988-.9822c.589-.5856 1.387-2.3423.798-2.9468l-14.858-14.0158-3.876 4.0612z"/><path d="m18.8693 17.3404c1.938-3.3434.912-7.38572-2.128-10.40801-3.61-3.57008-11.36204-7.064601-14.97204-3.49452-3.61 3.57008-.076 11.29583 3.515 14.86593 2.983 2.9656 6.97304 4.0045 10.29804 2.2289l7.03 7.3857 3.724-3.5134-7.467-7.0457z"/><path d="m37.1663 17.246-29.48801 27.8239c-.589.5856.19 2.3423.798 2.9468l.988.9822c.456.4534 1.55801.9823 2.31801.9823.228 0 .456-.0567.646-.2078l28.082-29.4296c.76.3778 1.577.6045 2.432.68 2.489.2267 5.092-.85 7.182-2.9278 7.087-7.0457 8.36-8.59463 6.175-11.2958l-8.36 7.9713c-.19.1889-.437.3022-.722.3022-.228 0-.456-.0944-.627-.2455l-.228-.2267c-.171-.17-.247-.3778-.247-.6234 0-.2644.114-.5289.304-.7178l7.581-8.85904-.551-.54779c-.323-.32112-.627-.62335-.912-.90669l-8.93 7.57462c-.19.17-.437.2833-.684.2833-.228 0-.456-.0944-.627-.2455l-.209-.2267c-.171-.17-.247-.37779-.247-.62335 0-.26445.114-.5289.304-.71779l7.98-8.273518c-2.565-1.851152-4.142-.302229-10.963 6.479038-2.28 2.26671-3.363 5.11902-2.869 7.78242.152.7933.456 1.5678.874 2.2478z"/></g></svg>