<svg fill="none" height="50" viewBox="0 0 56 50" width="56" xmlns="http://www.w3.org/2000/svg" xmlns:xlink="http://www.w3.org/1999/xlink"><clipPath id="a"><path d="m0 0h55.3296v50h-55.3296z"/></clipPath><g clip-path="url(#a)" fill="#fff"><path d="m18.8153 27.1518 4.2735-11.9184c.2443-.6841.902-1.12 1.6274-1.105.7254.0263 1.3494.5149 1.5448 1.214l4.2998 15.3048 3.4954-8.795c.2368-.5938.7893-.9998 1.4245-1.0449.6277-.0526 1.2404.2707 1.5636.8194l2.7888 4.7696h12.8092c3.2737-6.476 4.0367-13.5345-.4435-20.37886-5.5928-8.52063-18.4094-7.31038-24.5434-.55627-2.21-2.27016-6.4309-5.46117-12.7452-5.46117-10.17441.124032-14.665879 8.20492-14.90642621 16.1467-.09396379 3.7285 1.08246621 7.4495 3.01811621 11.0088h15.78971z"/><path d="m38.8784 29.7339c-.5901 0-1.1388-.3157-1.4395-.8268l-1.5485-2.6461-4.0555 10.197c-.2518.6352-.8682 1.0524-1.5485 1.0524-.0301 0-.0602 0-.0865 0-.7141-.0376-1.323-.5262-1.5184-1.214l-4.2171-15.023-2.9054 8.1072c-.2368.6615-.8645 1.105-1.5673 1.105h-14.91394c6.00994 8.7011 15.89864 15.9964 21.49514 19.225.669.3834 1.4922.3834 2.1649 0 6.2693-3.6683 16.1844-11.0915 21.9725-19.9767z"/></g></svg>