<?xml version="1.0" encoding="UTF-8"?>
<svg id="Layer_2" data-name="Layer 2" xmlns="http://www.w3.org/2000/svg" viewBox="0 0 322.11 279.12">
  <defs>
    <style>
      .cls-1 {
        fill: #fff;
      }
    </style>
  </defs>
  <g id="categories">
    <g>
      <path class="cls-1" d="m9.52,40.92h136.59c4.03,12.69,15.9,21.89,29.93,21.89s25.9-9.2,29.93-21.89h106.62c5.25,0,9.52-4.26,9.52-9.52s-4.26-9.52-9.52-9.52h-106.62c-4.03-12.69-15.9-21.89-29.93-21.89s-25.9,9.2-29.93,21.89H9.52c-5.25,0-9.52,4.26-9.52,9.52s4.26,9.52,9.52,9.52Z"/>
      <path class="cls-1" d="m9.52,257.22h136.59c4.03,12.69,15.9,21.89,29.93,21.89s25.9-9.2,29.93-21.89h106.62c5.25,0,9.52-4.26,9.52-9.52s-4.26-9.52-9.52-9.52h-106.62c-4.03-12.69-15.9-21.89-29.93-21.89s-25.9,9.2-29.93,21.89H9.52c-5.25,0-9.52,4.26-9.52,9.52s4.26,9.52,9.52,9.52Z"/>
      <path class="cls-1" d="m310.22,130.04h-43.84c-4.03-12.69-15.9-21.89-29.93-21.89s-25.9,9.2-29.93,21.89H11.89c-5.25,0-9.52,4.26-9.52,9.52s4.26,9.52,9.52,9.52h194.61c4.03,12.69,15.9,21.89,29.93,21.89s25.9-9.2,29.93-21.89h43.84c5.25,0,9.52-4.26,9.52-9.52s-4.26-9.52-9.52-9.52Z"/>
    </g>
  </g>
</svg>