<svg viewBox="0 0 1000 1000" xmlns="http://www.w3.org/2000/svg"><g fill="#4d79b4"><path d="m240.6 396.3h518.7c11.8 0 21.5-9.7 21.5-21.6s-9.7-21.7-21.5-21.7h-1.3c-9.7-118.6-99.4-214.4-214.8-233.8v-30.8h-38v-75.6c0-3-2.3-5.5-5.2-5.5s-5.5 2.5-5.5 5.5v75.6h-37.8v30.8c-115.7 19.4-205.1 115.2-215 233.8h-1.1c-12 0-21.5 9.7-21.5 21.7s9.5 21.6 21.5 21.6z"/><path d="m759.4 400.8h-518.8c-14.3 0-26-11.7-26-26s10-24.5 23-26c11.5-117.1 99-212.2 214.6-233.3v-31.5h37.8v-71.2c0-5.4 4.6-9.9 10-9.9s9.7 4.5 9.7 9.9v71.1h38v31.5c55.6 10.2 107.3 38.7 145.8 80.4 38.8 42 63.1 96.1 68.6 152.8 13 1.4 23.2 12.6 23.2 26.1s-11.7 26-26 26zm-518.8-43.3c-9.5 0-17 7.6-17 17.2s7.6 17.1 17 17.1h518.7c9.4 0 17-7.7 17-17.1s-7.6-17.2-17-17.2h-5.4l-.3-4.1c-9.5-116-96.3-210.5-211.1-229.8l-3.7-.6v-30.1h-38v-80.1c0-.5-.4-1-.8-1s-1 .5-1 1v80.1h-37.8v30.1l-3.7.6c-114.7 19.2-201.6 113.7-211.3 229.8l-.3 4.1h-5.2z"/><path d="m867.4 938.6h-27v-248.6h27c14.7 0 27-12 27-27s-12.3-27-27-27h-734.8c-15 0-27 12.3-27 27s12 27 27 27h27v248.6h-27c-15 0-27 12.2-27 27s12 27 27 27h734.8c14.7 0 27-12 27-27s-12.3-27-27-27zm-586.9 0h-45.4v-248.6h45.4zm121.1 0h-45.3v-248.6h45.3zm121 0h-45.4v-248.6h45.4zm121.1 0h-45.4v-248.6h45.4zm120.9 0h-45.4v-248.6h45.4z"/><path d="m867.4 997.1h-734.8c-17.4 0-31.5-14.1-31.5-31.5s14.1-31.5 31.5-31.5h22.5v-239.6h-22.5c-17.4 0-31.5-14.1-31.5-31.5s14.1-31.5 31.5-31.5h734.8c17.4 0 31.5 14.1 31.5 31.5s-14.1 31.5-31.5 31.5h-22.5v239.6h22.5c17.4 0 31.5 14.1 31.5 31.5s-14.1 31.5-31.5 31.5zm-734.8-54c-12.4 0-22.5 10.1-22.5 22.5s10.1 22.5 22.5 22.5h734.8c12.4 0 22.5-10.1 22.5-22.5s-10.3-22.5-22.5-22.5h-31.5v-257.6h31.5c12.4 0 22.5-10.1 22.5-22.5s-10.3-22.5-22.5-22.5h-734.8c-12.4 0-22.5 10.1-22.5 22.5s10.1 22.5 22.5 22.5h31.5v257.6zm636.5 0h-54.4v-257.6h54.4zm-45.4-9h36.4v-239.6h-36.4zm-75.5 9h-54.4v-257.6h54.4zm-45.4-9h36.4v-239.6h-36.4zm-75.7 9h-54.4v-257.6h54.4zm-45.4-9h36.4v-239.6h-36.4zm-75.6 9h-54.3v-257.6h54.3zm-45.3-9h36.4v-239.6h-36.4zm-75.8 9h-54.4v-257.6h54.4zm-45.4-9h36.4v-239.6h-36.4z"/><path d="m208.1 488.1h27.2c0 .4-.2.9-.2 1.2v116.5h54v7.3c0-.4-.2-2.6-.2-3h25.7c0 .4-.2 2.7-.2 3v-3.7l54-3.6v-116.5c0-.4-.2 123-.2 122.6l25.8-123.8c0 .4-.2 124.7-.2 125.1v-7.3h54v-116.5c0-.4-.2 123-.2 122.6h25.6c0 .4-.2-122.9-.2-122.6v116.5h54v-116.5c0-.4-.2 123-.2 122.6h25.7c0 .4-.2-122.9-.2-122.6v116.5h54v7.3c0-.4-.2-124.6-.2-125.1l25.5 123.8c0 .4-.2-122.9-.2-122.6v116.5h54v-116.5c0-.4-.2 123-.2 122.6h25.8c0 .4-.2-122.9-.2-122.6v116.5h54v-116.5c0-.4-.2-.8-.2-1.2h27.2c15 0 27-12 27-27s-12-27-27-27h-583.5c-14.8 0-27 12.3-27 27s12 27 26.8 27z"/><path d="m769.3 610.3h-63v-117.8h-16.4v117.8h-63v.7l-16.1-1.8v1.1h-63v-117.8h-16.4v117.8h-63v-117.8h-16.2v117.8h-63v-1.1h-16.4v1.1h-63v-117.8h-16.4v117.8h-63v-117.8h-22.5c-17.2 0-31.3-14.1-31.3-31.5s14.1-31.5 31.5-31.5h583.5c17.4 0 31.5 14.1 31.5 31.5s-14.1 31.5-31.5 31.5h-22.5v117.8zm-54-9h45.1v-111.7c-.1-.4-.2-1-.2-1.6v-4.5h31.7c12.4 0 22.5-10.1 22.5-22.5s-10.1-22.5-22.5-22.5h-583.6c-12.2 0-22.5 10.3-22.5 22.5s10 22.5 22.3 22.5h31.7v4.5c0 .7-.1 1.3-.2 1.6v111.7h45.1v-111.8c0-.4-.2-.9-.2-1.5v-4.5h34.7v4.5c0 .7-.1 1.3-.2 1.6v111.7h45.1v-111.7c-.1-.4-.2-1-.2-1.6v-4.5h34.7v4.5c0 .7-.1 1.3-.2 1.6v111.7h45.1v-111.7c-.1-.4-.2-1-.2-1.6v-4.5h34.5v4.5c0 .7-.1 1.3-.2 1.6v111.7h45.1v-111.7c-.1-.4-.2-1-.2-1.6v-4.5h34.7v4.5c0 .6 0 1.2-.2 1.5v111.8h45.1v-111.7c-.1-.4-.2-1-.2-1.6v-4.5h34.5v4.5c0 .7-.1 1.3-.2 1.6v111.7h45.1v-111.7c-.1-.4-.2-1-.2-1.6v-4.5h34.7v4.5c0 .7-.1 1.3-.2 1.6v111.7z"/></g><path d="m486.2 575.1c-39.6-2.7-67.2-10.7-89.5-25.8-18.3-12-31.1-28.9-39.2-50.3-2.7-8.5-4.5-16.5-6.7-32.5l91.7-16.5c1.8 18.7 5.3 28 13.4 36.9 7.6 8 16.5 12 30.3 13.8v-84.1c-34.7-7.1-55.2-13.4-73.5-22.7-35.2-17.8-55.6-51.2-55.6-91.3s27.1-82.8 69-98.8c19.1-7.6 39.5-11.7 60.1-12v-24.5h30.3v24.9c28.9 1.8 50.3 7.6 71.7 18.7 28.9 15.1 47.2 40.5 55.6 78.8l-91.2 15.6c-3.1-24.5-14.7-36.5-36.1-39.6v73.5c51.6 9.8 72.6 16.9 92.2 30.3 29.8 20.4 44.9 49.3 44.9 86.8 0 71.7-52.1 117.1-137 119.7v34.3h-30.3v-35.2zm0-309.8c-24.9 1.8-38.7 14.3-38.7 34.3s5.3 20.5 15.6 26.3c4.4 2.7 9.3 4.4 23.1 8zm30.3 235.9c29.8-2.2 44.5-15.6 44.5-40.9s-5.8-24.5-16.9-30.3c-7.1-3.6-12-5.3-27.6-8.9z" fill="#fff"/></svg>