<svg viewBox="0 0 850.4 850.4" xmlns="http://www.w3.org/2000/svg"><g fill="#4d79b4"><path d="m760.5 630.8h-40.7l68.2 71.1h-571.4l68.2-71.1h-40.7l-81 87.3v110.9c0 8.2 6.7 14.9 14.9 14.9h648.5c8.2 0 14.9-6.7 14.9-14.9v-110.9l-81-87.3zm-181.4 161.3h-153.6c-12.6 0-22.7-10.2-22.7-22.8s10.2-22.7 22.7-22.7h153.6c12.6 0 22.7 10.2 22.7 22.7s-10.2 22.8-22.7 22.8z"/><path d="m264.9 497.8v-46.1c12.3-2.7 23.6-6.2 33.8-10.7 25.3-11.1 45.1-27.5 59.2-49 14.1-21.6 21.2-45.1 21.2-70.6s-5.3-41.4-15.9-58.9c-10.6-17.6-27.5-32.3-50.8-44.1-23.3-11.9-61.8-23.6-115.6-35.2-21.7-4.5-35.5-9.4-41.3-14.7-6-5.1-9-10.8-9-17.1s3.6-16.1 10.9-22.1c7.2-6.1 18-9.1 32.3-9.1s31 4.1 40.9 12.2 16.3 21.2 19.4 39.1l116-6.8c-5.1-41.3-21-71.4-47.7-90.3-14.3-10.2-32.2-17.5-53.5-22.2v-46.2h-132.9v46.8c-10.3 2.3-19.7 5.3-27.9 8.9-23.8 10.4-41.6 24.7-53.5 42.9s-17.8 37.5-17.8 58c0 31.1 11.6 56.8 34.7 76.9 23 20.1 61.5 36.2 115.5 48.3 33 7.2 54 14.9 63 23.1 9.1 8.1 13.6 17.4 13.6 27.7s-4.8 20.4-14.3 28.7c-9.5 8.2-23 12.3-40.6 12.3s-41.7-8-54.3-24.2c-7.8-10-12.9-24.4-15.5-43.5l-117.1 7.3c3.4 40.2 18.2 73.3 44.3 99.4 15.7 15.7 39.1 26.6 69.9 32.8v46.3h132.9z"/><path d="m359.8 452.4c.8 1.7 1.3 3.6 1.3 5.5v4.6c0 7.3-5.9 13.2-13.2 13.2h-24.4c-2.6 1.3-5.2 2.6-7.9 3.8-2.8 1.2-5.7 2.4-8.7 3.6v14.8c0 1 0 2-.1 3 6.2 1.1 10.8 6.5 10.8 13v4.6c0 7.3-5.9 13.2-13.2 13.2h-14.7c-7 5.1-15.5 8.2-24.8 8.2h-75.9l-7 14.2c-.8 1.5-1.4 3.2-1.8 4.9s-.6 3.5-.6 5.2v76.8l34.9-37.6c7.6-8.2 18.3-12.9 29.6-12.9h516.4c11.2 0 21.9 4.7 29.6 12.9l34.9 37.6v-76.8c0-1.7-.2-3.5-.6-5.2s-1-3.4-1.8-4.9l-90-182.1v-114c0-9.9-8-17.9-17.9-17.9h-92.3v-32.1h90.4c5.9 0 10.7-4.8 10.7-10.7v-87c0-5.9-4.8-10.7-10.7-10.7h-228.4c-5.9 0-10.7 4.8-10.7 10.7v87c0 5.9 4.8 10.7 10.7 10.7h90.4v32.1h-176.2c.1.2.3.5.5.7 8.8 14.6 14.9 30.3 18.4 46.9h233.4c8 0 14.5 6.5 14.5 14.5v38.2c0 8-6.5 14.4-14.5 14.4h-233.3c-2.9 14.5-7.7 28.5-14.3 41.9.7 1.6 1.1 3.4 1.1 5.3v4.6c0 7.3-5.9 13.2-13.2 13.2h-1.7c-8.5 12.1-18.4 23-29.8 32.5zm44.7 66c0 7.3-5.9 13.2-13.2 13.2h-38.8c-7.3 0-13.2-5.9-13.2-13.2v-4.6c0-7.3 5.9-13.2 13.2-13.2h38.8c7.3 0 13.2 5.9 13.2 13.2zm86.9 0c0 7.3-5.9 13.2-13.2 13.2h-38.8c-7.3 0-13.2-5.9-13.2-13.2v-4.6c0-7.3 5.9-13.2 13.2-13.2h38.8c7.3 0 13.2 5.9 13.2 13.2zm-21.7-55.8v-4.6c0-7.3 5.9-13.2 13.2-13.2h38.8c7.3 0 13.2 5.9 13.2 13.2v4.6c0 7.3-5.9 13.2-13.2 13.2h-38.8c-7.3 0-13.2-5.9-13.2-13.2zm108.6 55.8c0 7.3-5.9 13.2-13.2 13.2h-38.8c-7.3 0-13.2-5.9-13.2-13.2v-4.6c0-7.3 5.9-13.2 13.2-13.2h38.8c7.3 0 13.2 5.9 13.2 13.2zm-21.7-55.8v-4.6c0-7.3 5.9-13.2 13.2-13.2h38.8c7.3 0 13.2 5.9 13.2 13.2v4.6c0 7.3-5.9 13.2-13.2 13.2h-38.8c-7.3 0-13.2-5.9-13.2-13.2zm108.7 55.8c0 7.3-5.9 13.2-13.2 13.2h-38.8c-7.3 0-13.2-5.9-13.2-13.2v-4.6c0-7.3 5.9-13.2 13.2-13.2h38.8c7.3 0 13.2 5.9 13.2 13.2zm73.7-17.8c7.3 0 13.2 5.9 13.2 13.2v4.6c0 7.3-5.9 13.2-13.2 13.2h-38.8c-7.3 0-13.2-5.9-13.2-13.2v-4.6c0-7.3 5.9-13.2 13.2-13.2zm-43.5-55.9c7.3 0 13.2 5.9 13.2 13.2v4.6c0 7.3-5.9 13.2-13.2 13.2h-38.8c-7.3 0-13.2-5.9-13.2-13.2v-4.6c0-7.3 5.9-13.2 13.2-13.2zm-95.4-42.6c0-7.3 5.9-13.2 13.2-13.2h38.8c7.3 0 13.2 5.9 13.2 13.2v4.6c0 7.3-5.9 13.2-13.2 13.2h-38.8c-7.3 0-13.2-5.9-13.2-13.2zm-86.9 0c0-7.3 5.9-13.2 13.2-13.2h38.8c7.3 0 13.2 5.9 13.2 13.2v4.6c0 7.3-5.9 13.2-13.2 13.2h-38.8c-7.3 0-13.2-5.9-13.2-13.2zm-87 0c0-7.3 5.9-13.2 13.2-13.2h38.8c7.3 0 13.2 5.9 13.2 13.2v4.6c0 7.3-5.9 13.2-13.2 13.2h-38.8c-7.3 0-13.2-5.9-13.2-13.2zm-43.4 55.8c0-7.3 5.9-13.2 13.2-13.2h38.8c7.3 0 13.2 5.9 13.2 13.2v4.6c0 7.3-5.9 13.2-13.2 13.2h-38.8c-7.3 0-13.2-5.9-13.2-13.2z"/></g></svg>