<?xml version="1.0" encoding="utf-8"?>
<!-- Generator: Adobe Illustrator 28.3.0, SVG Export Plug-In . SVG Version: 6.00 Build 0)  -->
<svg version="1.1" id="Layer_1" xmlns="http://www.w3.org/2000/svg" xmlns:xlink="http://www.w3.org/1999/xlink" x="0px" y="0px"
	 viewBox="0 0 512 512" style="enable-background:new 0 0 512 512;" xml:space="preserve">
<style type="text/css">
	.st0{fill:#F49753;}
</style>
<path class="st0" d="M448,96c0-17.7-14.3-32-32-32s-32,14.3-32,32s14.3,32,32,32S448,113.7,448,96z M320,96c0-53,43-96,96-96
	s96,43,96,96s-43,96-96,96S320,149,320,96z M144,64c-26.5,0-48,21.5-48,48v164.5c0,17.3-7.1,31.9-15.3,42.5
	C70.2,332.6,64,349.5,64,368c0,44.2,35.8,80,80,80s80-35.8,80-80c0-18.5-6.2-35.4-16.7-48.9c-8.2-10.6-15.3-25.2-15.3-42.5V112
	C192,85.5,170.5,64,144,64z M32,112C32,50.2,82.1,0,144,0s112,50.1,112,112v164.5c0,0.1,0.1,0.3,0.2,0.6c0.2,0.6,0.8,1.6,1.7,2.8
	c18.9,24.4,30.1,55,30.1,88.1c0,79.5-64.5,144-144,144S0,447.5,0,368c0-33.2,11.2-63.8,30.1-88.1c0.9-1.2,1.5-2.2,1.7-2.8
	c0.1-0.3,0.2-0.5,0.2-0.6V112z M192,368c0,26.5-21.5,48-48,48s-48-21.5-48-48c0-20.9,13.4-38.7,32-45.3V265c0-8.8,7.2-16,16-16
	s16,7.2,16,16v57.7C178.6,329.3,192,347.1,192,368z"/>
</svg>
