<svg viewBox="0 0 512 512" xmlns="http://www.w3.org/2000/svg"><g fill="#6cc24a"><path d="m3 387h497.7v25h-497.7z"/><path d="m-29 286.6h165.4v56.4h-165.4z" transform="matrix(0 -1 1 0 -261.1 368.5)"/><path d="m64.6 305.2h128.2v56.4h-128.2z" transform="matrix(0 -1 1 0 -204.7 462.1)"/><path d="m128.2 293.9h150.9v56.4h-150.9z" transform="matrix(0 -1 1 0 -118.4 525.7)"/><path d="m144.9 238.5h267.5v56.4h-267.5z" transform="matrix(0 -1 1 0 12 545.4)"/><path d="m400.7 136.5c-18 0-32.6 14.6-32.6 32.6v111.8c0 11.8-4.8 21.7-10.4 28.9-7.1 9.2-11.4 20.7-11.4 33.3 0 30 24.3 54.4 54.4 54.4s54.4-24.3 54.4-54.4-4.2-24.1-11.4-33.2c-5.6-7.2-10.4-17.1-10.4-28.9v-111.9c0-18-14.6-32.6-32.6-32.6zm-76.1 32.6c0-42 34.1-76.1 76.1-76.1s76.1 34.1 76.1 76.1v111.8s0 .2.1.4c.1.4.5 1.1 1.2 1.9 12.8 16.6 20.5 37.4 20.5 59.9 0 54-43.8 97.9-97.9 97.9s-97.9-43.8-97.9-97.9 7.6-43.4 20.5-59.9c.6-.8 1-1.5 1.2-1.9s.1-.3.1-.4z" stroke="#fff" stroke-miterlimit="10" stroke-width="8"/><path d="m400.8 384.8c-23 0-41.6-18.7-41.6-41.6s8.5-29.4 21.8-36.6v-97.7c0-11 8.9-19.9 19.9-19.9s19.9 8.9 19.9 19.9v97.7c13.2 7.2 21.8 21.2 21.8 36.6 0 23-18.7 41.6-41.6 41.6z"/></g><path d="m400.8 198c6 0 10.9 4.9 10.9 10.9v103.5c12.6 4.5 21.8 16.6 21.8 30.8s-14.6 32.6-32.6 32.6-32.6-14.6-32.6-32.6 9.1-26.3 21.8-30.8v-103.5c0-6 4.9-10.9 10.9-10.9m-.2-18c-15.9 0-28.9 13-28.9 28.9v92.7c-13.4 9.3-21.8 24.8-21.8 41.6 0 27.9 22.7 50.6 50.6 50.6s50.6-22.7 50.6-50.6-8.4-32.3-21.8-41.6v-92.7c0-15.9-13-28.9-28.9-28.9z" fill="#fff"/></svg>