<?xml version="1.0" encoding="UTF-8"?>
<svg id="Layer_1" data-name="Layer 1" xmlns="http://www.w3.org/2000/svg" viewBox="0 0 200 200">
  <defs>
    <style>
      .cls-1 {
        fill: #6cc24a;
      }
    </style>
  </defs>
  <path class="cls-1" d="M25.75,25.07c0-6.84-5.53-12.38-12.38-12.38S1,18.23,1,25.07v129.94c0,17.09,13.84,30.94,30.94,30.94h154.69c6.84,0,12.38-5.53,12.38-12.38s-5.53-12.38-12.38-12.38H31.94c-3.4,0-6.19-2.78-6.19-6.19V25.07ZM182.99,58.56c4.83-4.83,4.83-12.68,0-17.52s-12.68-4.83-17.52,0l-40.72,40.76-22.2-22.2c-4.83-4.83-12.68-4.83-17.52,0l-43.31,43.31c-4.83,4.83-4.83,12.68,0,17.52s12.68,4.83,17.52,0l34.57-34.53,22.2,22.2c4.83,4.83,12.68,4.83,17.52,0l49.5-49.5-.04-.04Z"/>
</svg>