<?xml version="1.0" encoding="UTF-8"?>
<svg id="Layer_1" data-name="Layer 1" xmlns="http://www.w3.org/2000/svg" viewBox="0 0 200 200">
  <defs>
    <style>
      .cls-1 {
        fill: #6cc24a;
      }
    </style>
  </defs>
  <path class="cls-1" d="M86.42,21.7l-13.72,5.13c-1.09.4-1.82,1.46-1.82,2.62s.73,2.22,1.82,2.62l13.72,5.13,5.13,13.72c.4,1.09,1.46,1.82,2.62,1.82s2.22-.73,2.62-1.82l5.13-13.72,13.72-5.13c1.09-.4,1.82-1.46,1.82-2.62s-.73-2.22-1.82-2.62l-13.72-5.13-5.13-13.72c-.4-1.09-1.46-1.82-2.62-1.82s-2.22.73-2.62,1.82l-5.13,13.72ZM17.78,150.07c-6.81,6.81-6.81,17.87,0,24.71l12.59,12.59c6.81,6.81,17.87,6.81,24.71,0L193.87,48.56c6.81-6.81,6.81-17.87,0-24.71l-12.59-12.56c-6.81-6.81-17.87-6.81-24.71,0L17.78,150.07ZM177.38,36.22l-38.22,38.22-8.48-8.48,38.22-38.22s8.48,8.48,8.48,8.48ZM3.73,48.82c-1.64.62-2.73,2.18-2.73,3.93s1.09,3.31,2.73,3.93l20.56,7.72,7.72,20.56c.62,1.64,2.18,2.73,3.93,2.73s3.31-1.09,3.93-2.73l7.72-20.56,20.56-7.72c1.64-.62,2.73-2.18,2.73-3.93s-1.09-3.31-2.73-3.93l-20.56-7.72-7.72-20.56c-.62-1.64-2.18-2.73-3.93-2.73s-3.31,1.09-3.93,2.73l-7.72,20.56-20.56,7.72ZM131.85,141.99c-1.64.62-2.73,2.18-2.73,3.93s1.09,3.31,2.73,3.93l20.56,7.72,7.72,20.56c.62,1.64,2.18,2.73,3.93,2.73s3.31-1.09,3.93-2.73l7.72-20.56,20.56-7.72c1.64-.62,2.73-2.18,2.73-3.93s-1.09-3.31-2.73-3.93l-20.56-7.72-7.72-20.56c-.62-1.64-2.18-2.73-3.93-2.73s-3.31,1.09-3.93,2.73l-7.72,20.56-20.56,7.72Z"/>
</svg>