<svg fill="none" height="50" viewBox="0 0 40 50" width="40" xmlns="http://www.w3.org/2000/svg" xmlns:xlink="http://www.w3.org/1999/xlink"><clipPath id="a"><path d="m0 0h39.4688v50h-39.4688z"/></clipPath><g clip-path="url(#a)"><path d="m39.207 46.8304-7.3292-13.3441c2.0798-.3541 3.6035-2.1546 3.611-4.2644v-19.7032c-.005-5.25686-4.2644-9.51620623-9.5187-9.5187h-12.4713c-5.31426.0074813-9.621 4.31172-9.62848 9.62593v19.59107c-.02992 2.1246 1.51122 3.9451 3.61098 4.2643l-7.22195 13.3466c-.546134 1.0948-.2194511 2.4065.87531 2.9551.32918.217.65836.217.98753.217.77307.0025 1.48629-.4165 1.86035-1.0948l.65836-1.0947h30.1895l.6584 1.0947c.3591.6908 1.0823 1.1172 1.8603 1.0948.3392-.02.6733-.0923.9876-.217 1.0872-.5436 1.4164-1.8578.8678-2.9501zm-10.2843-9.8479h-18.3791l1.8604-3.3915h14.6633l1.8579 3.3915zm-.3292-7.3291c-1.7531 0-3.1721-1.4215-3.1721-3.1746s1.4215-3.1721 3.1746-3.1721 3.1721 1.4215 3.1721 3.1746v.005c-.0075 1.6359-1.424 3.1671-3.1721 3.1671zm-20.88777-18.818c0-3.39151 2.73567-6.12717 6.01747-6.12717h11.9252c3.2818 0 6.1247 2.73566 6.1247 6.12717v5.2519c0 1.202-.9876 2.0798-2.1871 2.0798h-19.69822c-1.14713 0-2.07731-.9277-2.0798-2.0748l-.10225-5.2544zm3.17207 12.3566c1.7531 0 3.1721 1.4215 3.1721 3.1721 0 1.7531-1.4215 3.1721-3.1721 3.1721-1.75062 0-3.16957-1.4165-3.17207-3.1671 0-1.7506 1.41397-3.1746 3.16457-3.1796h.0075zm-4.49127 21.3417 2.40649-4.2669h21.87778l2.4065 4.2669h-26.68827z" fill="#fff"/></g></svg>