<?xml version="1.0" encoding="utf-8"?>
<!-- Generator: Adobe Illustrator 28.1.0, SVG Export Plug-In . SVG Version: 6.00 Build 0)  -->
<svg version="1.1" xmlns="http://www.w3.org/2000/svg" xmlns:xlink="http://www.w3.org/1999/xlink" x="0px" y="0px"
	 viewBox="0 0 576.2 576" style="enable-background:new 0 0 576.2 576;" xml:space="preserve">
<style type="text/css">
	.Arched_x0020_Green{fill:url(#SVGID_1_);stroke:#FFFFFF;stroke-width:0.25;stroke-miterlimit:1;}
	.st0{fill:#D2E2E3;}
	.st1{fill:#F29165;}
	.st2{fill:#2F4A60;}
	.st3{clip-path:url(#SVGID_00000085941976950206460010000009324361944313011621_);}
	.st4{fill:#D8E9E9;}
	.st5{fill:#8CDFB6;}
	.st6{opacity:0.5;fill:#ADC8CA;}
	.st7{opacity:0.5;}
	.st8{fill:#ADC8CA;}
	.st9{fill:#979EC7;}
	.st10{fill:none;stroke:#FFFFFF;stroke-width:4;}
	.st11{opacity:0.2;}
	.st12{fill:#212121;}
	.st13{fill:#E64D3C;}
	.st14{fill:#FFFFFF;}
	.st15{fill:#6E8190;}
	.st16{fill:#F9CBB6;}
	.st17{fill:#80453F;}
	.st18{fill:#131E26;}
	.st19{clip-path:url(#SVGID_00000023984472330657203980000009771499047704168859_);}
	.st20{fill:#99C172;}
	.st21{fill:#A77C77;}
</style>
<linearGradient id="SVGID_1_" gradientUnits="userSpaceOnUse" x1="-380" y1="144" x2="-379.2929" y2="143.2929">
	<stop  offset="0" style="stop-color:#1EAB4B"/>
	<stop  offset="0.9831" style="stop-color:#19361A"/>
</linearGradient>
<g id="Layer_1">
	
		<rect x="0.1" y="-0.5" transform="matrix(6.123234e-17 -1 1 6.123234e-17 0.6118 575.5406)" class="st0" width="576" height="576"/>
</g>
<g id="Layer_2">
	<g>
		<g>
			<path class="st17" d="M286.7,538.3l77.3-133.8c16.6-28.8,6.8-65.7-22.1-82.3l-53-30.6c-33.3-19.2-75.5-11.8-100.2,17.6
				l-13.6,16.1l23.4,82.4c3.8,11.2,2.6,23.5-3.3,33.8l-19,33l73.7,42.5L286.7,538.3L286.7,538.3L286.7,538.3L286.7,538.3z"/>
			<path class="st17" d="M412.7,165.5l-41.4,41.4c-3.2,3.2-7.6,5-12.2,5c-4.6,0-8.9-1.8-12.2-5l0,0c-6.7-6.7-6.7-17.6,0-24.3
				l41.4-41.4c6.7-6.7,17.6-6.7,24.3,0c3.4,3.4,5,7.8,5,12.2S416,162.1,412.7,165.5z"/>
			<polygon class="st18" points="288.2,576.3 115.3,576.3 176.1,474.4 297.5,544.5 			"/>
		</g>
		<g>
			<g>
				<path class="st0" d="M363.6,73.4H245.4c-15.5,0-28.1,12.6-28.1,28.1v286.3c0,15.5,12.6,28.1,28.1,28.1h118.2
					c15.5,0,28.1-12.6,28.1-28.1V101.5C391.7,86,379.1,73.4,363.6,73.4z"/>
			</g>
		</g>
		<g>
			<defs>
				<path id="SVGID_00000098183053480346395550000007298001506095605141_" d="M363.6,415.9c15.5,0,28.1-12.6,28.1-28.1V101.5
					c0-15.5-12.6-28.1-28.1-28.1H245.4c-15.5,0-28.1,12.6-28.1,28.1v286.3c0,15.5,12.6,28.1,28.1,28.1H363.6L363.6,415.9z"/>
			</defs>
			<clipPath id="SVGID_00000092436771090288752430000015816471426738688389_">
				<use xlink:href="#SVGID_00000098183053480346395550000007298001506095605141_"  style="overflow:visible;"/>
			</clipPath>
			<g style="clip-path:url(#SVGID_00000092436771090288752430000015816471426738688389_);">
				<g>
					<g>
						<polygon class="st4" points="363.5,327.2 352.2,338.6 335,321.7 335,321.6 330.9,317.5 339.1,312.5 342.4,315.8 348.6,312.7 
													"/>
						<polygon class="st4" points="363.5,350.2 387,373.5 391.7,373.4 391.6,356.7 374.8,339.2 						"/>
						<polygon class="st4" points="360.1,301.9 381.8,323.3 386.5,323.2 386.3,306.7 373.6,294.6 						"/>
						<polygon class="st20" points="326.6,279.4 348.1,257.7 374.7,285.3 346.8,300 						"/>
						<polygon class="st20" points="352.6,436.8 304.5,436.8 303.9,302 352.6,350.3 						"/>
						<polygon class="st20" points="297.6,167.4 314.1,151.2 336.6,151 336.6,205.3 						"/>
						<polygon class="st20" points="223.5,77.6 310,77 276.2,112.6 261.3,97.9 223.5,116.3 						"/>
						<polygon class="st20" points="333,92.9 367.4,58.8 387.2,78 353.4,111.9 						"/>
						<g>
							<polygon class="st6" points="231.4,121.4 244.4,133.3 264.9,112.2 259.9,107.5 							"/>
							<path class="st6" d="M314,85.7l-12.6,12.2c-1.2,1.1-1.8,2.7-1.8,4.3c0,1.6,0.6,3.2,1.8,4.3c1.1,1.1,2.6,1.7,4.2,1.7
								c0,0,0.1,0,0.1,0c1.6,0,3.1-0.7,4.2-1.8l12.3-12.7L314,85.7z"/>
							<polygon class="st6" points="233.3,166.6 241.4,174.5 270.5,146.1 261.8,137.5 							"/>
							<polygon class="st6" points="267.7,132.1 275.8,140.2 284.5,131.9 275.9,123.5 							"/>
							<polygon class="st6" points="364,111.2 371.3,118.5 397.9,92.6 389.9,84.8 							"/>
							<polygon class="st6" points="306.1,131.3 317.5,143.2 346.9,143.1 359.8,129.6 333.2,104.1 							"/>
							<polygon class="st6" points="266.3,171.9 274.3,179.8 303.8,151.1 295,142.5 							"/>
							<polygon class="st6" points="271.9,205.2 279.2,212.4 305.7,186.6 297.7,178.7 							"/>
							
								<rect x="314.9" y="198.9" transform="matrix(0.7072 -0.707 0.707 0.7072 -54.7914 288.5706)" class="st6" width="12.2" height="23.1"/>
							<path class="st6" d="M330.6,228.6l13.5,13.3c2.4,2.3,6.3,2.3,8.6,0l0,0c1.2-1.2,1.8-2.7,1.8-4.4c0-1.6-0.7-3.2-1.8-4.3
								l-13.5-13.3L330.6,228.6z"/>
							<path class="st6" d="M310.2,268.1l8,8l18.7-18.7l-8-8L310.2,268.1z"/>
							<polygon class="st6" points="315.3,301.9 319.1,305.6 333.9,297.6 326.7,290.6 							"/>
							
								<rect x="306.7" y="271.7" transform="matrix(0.7071 -0.7071 0.7071 0.7071 -105.6649 299.6641)" class="st6" width="4.4" height="11.3"/>
							<path class="st6" d="M287.4,226.8v24.9c0,10.1,12.2,15.3,19.5,8.2v0l16.1-16.3l-26-25.8L287.4,226.8z"/>
							<polygon class="st6" points="222.4,275.8 221.9,311.1 236.5,297 237,275.8 							"/>
							<g class="st7">
								<path class="st8" d="M265.6,319.8c-1.2,1.2-1.2,3.1,0,4.2l5.8,5.8l4.2-4.2l-5.8-5.8c-0.8-0.8-1.7-0.9-2.1-0.9
									C267.3,319,266.4,319.1,265.6,319.8z"/>
							</g>
							<path class="st6" d="M208,347.3l8.8,8.6l24.8-25.3c2.2-2.2,2.2-5.8-0.1-8.1c-2.2-2.2-5.8-2.2-8,0L208,347.3z"/>
							
								<rect x="281.2" y="330.8" transform="matrix(0.7071 -0.7071 0.7071 0.7071 -156.025 300.0486)" class="st6" width="6" height="15.2"/>
							<polygon class="st6" points="216.8,383.3 225.5,391.9 254.3,362.5 246.3,354.6 							"/>
							<polygon class="st6" points="277.9,398.6 296.5,398.6 296.3,377.6 279,360.5 259.5,380.2 							"/>
							<polygon class="st6" points="251.3,348.9 259.9,357.4 268.2,348.7 260,340.7 							"/>
							<g class="st7">
								<path class="st8" d="M360.6,387.6h12.8c0.9,0,1.6-0.4,1.9-1.3c0.3-0.8,0.2-1.6-0.5-2.2l-8.6-8.6h-5.7V387.6z"/>
							</g>
							<polygon class="st4" points="360.4,407.9 384,407.9 383.8,395.8 360.2,395.8 							"/>
							<polygon class="st6" points="359.4,257.7 386.4,284.2 386.5,267.6 368,249.1 							"/>
							<polygon class="st6" points="252.3,185.7 260.5,193.8 269.2,185.5 260.6,177 							"/>
						</g>
						<polygon class="st20" points="218.9,267.8 218.9,164 279.1,223.6 235.8,267.8 						"/>
						<path class="st9" d="M355.7,170l13.2-13.4c4.4-4.5,10.5-7.1,16.8-7.1l0,0c13.4-0.2,24.3,10.7,24.3,24.1l-0.1,26.6
							c-0.1,21.3-25.9,31.9-41,16.8l-13.1-13.1C346.5,194.5,346.4,179.4,355.7,170z"/>
						<path class="st9" d="M334.2,436.8h-13v-57.7c0-11.1-4.3-21.5-12.2-29.3l0,0l-37.7-37.7c-10.3-10.3-16-24-16-38.6v-19.1
							c0-11.1-4.3-21.5-12.2-29.3L186,167.8l9.2-9.2l57.3,57.3c10.3,10.3,16,24,16,38.6v19.1c0,11.1,4.3,21.5,12.2,29.3l37.7,37.7
							l0,0c10.3,10.3,16,24,16,38.6V436.8z"/>
						<g>
							<line class="st10" x1="367.5" y1="59.1" x2="240.9" y2="185.7"/>
							<line class="st10" x1="326.1" y1="62.7" x2="222.1" y2="166.8"/>
							<line class="st10" x1="210.9" y1="155.4" x2="279.1" y2="223.6"/>
							<line class="st10" x1="297.9" y1="167.4" x2="399" y2="268.4"/>
							<polyline class="st10" points="314,150.1 261.3,97.9 212,122 							"/>
							<line class="st10" x1="334" y1="92.6" x2="371.1" y2="129.3"/>
							<line class="st10" x1="336.6" y1="205.3" x2="336.6" y2="151"/>
							<line class="st10" x1="352.6" y1="436.1" x2="352.6" y2="350.3"/>
							<line class="st10" x1="352.6" y1="350.3" x2="375" y2="327.9"/>
							<polyline class="st10" points="389.4,112 350.3,151.1 314.1,151.2 260.3,205 							"/>
							<line class="st10" x1="400.8" y1="64.4" x2="353.4" y2="111.9"/>
							<line class="st10" x1="326.6" y1="279.4" x2="408" y2="360.9"/>
							<line class="st10" x1="304.5" y1="302" x2="304.5" y2="436.5"/>
							<line class="st10" x1="304.3" y1="374.2" x2="237.4" y2="307.3"/>
							<line class="st10" x1="368.2" y1="237.6" x2="303.9" y2="302"/>
							<line class="st10" x1="279.5" y1="348.7" x2="215.1" y2="413"/>
							<line class="st10" x1="259.9" y1="328.7" x2="195.6" y2="393.1"/>
							<line class="st10" x1="374.7" y1="285.3" x2="317.7" y2="315.4"/>
							<polyline class="st10" points="245.4,258.4 245.4,298.8 220.7,323.5 							"/>
							<line class="st10" x1="297.2" y1="206.6" x2="386.9" y2="296.3"/>
							<line class="st10" x1="249.2" y1="381.1" x2="304.5" y2="436.5"/>
							<polyline class="st10" points="400.7,398.8 279.8,277.9 279.8,223.6 							"/>
							<polyline class="st10" points="317.2,186.6 236,267.8 214.5,267.8 							"/>
						</g>
						<g>
							<g class="st11">
								<path class="st12" d="M363.6,84.8c9.2,0,16.8,7.5,16.8,16.8v286.3c0,9.2-7.5,16.8-16.8,16.8H245.4
									c-9.2,0-16.8-7.5-16.8-16.8V101.5c0-9.2,7.5-16.8,16.8-16.8H363.6 M363.6,82.8H245.4c-10.3,0-18.8,8.4-18.8,18.8v286.3
									c0,10.3,8.4,18.8,18.8,18.8h118.2c10.3,0,18.8-8.4,18.8-18.8V101.5C382.4,91.2,374,82.8,363.6,82.8L363.6,82.8z"/>
							</g>
						</g>
						<g>
							<path class="st13" d="M350.7,161.4c0,0-9.8-13.9-9.8-18.9V142c0-5.4,4.4-9.8,9.8-9.8c5.4,0,9.8,4.4,9.8,9.8v0.4
								C360.6,147.5,350.7,161.4,350.7,161.4z"/>
							<path class="st14" d="M350.7,147.3c-2.8,0-5.1-2.3-5.1-5.1c0-2.8,2.3-5.1,5.1-5.1c2.8,0,5.1,2.3,5.1,5.1
								C355.9,145,353.6,147.3,350.7,147.3z"/>
						</g>
					</g>
				</g>
			</g>
		</g>
		<g>
			<g>
				<path class="st15" d="M387.3,159.4h4.4c2.9,0,5.3,2.4,5.3,5.3v39.1c0,2.9-2.4,5.3-5.3,5.3h-4.4V159.4z"/>
			</g>
		</g>
		<g>
			<g>
				<path class="st15" d="M221.7,160.6h-4.4c-2.9,0-5.3-2.4-5.3-5.3v-20.4c0-2.9,2.4-5.3,5.3-5.3h4.4V160.6z"/>
			</g>
		</g>
		<g>
			<g>
				<path class="st15" d="M221.7,201.6h-4.4c-2.9,0-5.3-2.4-5.3-5.3v-20.4c0-2.9,2.4-5.3,5.3-5.3h4.4V201.6z"/>
			</g>
		</g>
		<path class="st2" d="M363.6,82.8c10.3,0,18.8,8.4,18.8,18.8v286.3c0,10.3-8.4,18.8-18.8,18.8H245.4c-10.3,0-18.8-8.4-18.8-18.8
			V101.5c0-10.3,8.4-18.8,18.8-18.8H363.6 M363.6,73.4H245.4c-15.5,0-28.1,12.6-28.1,28.1v286.3c0,15.5,12.6,28.1,28.1,28.1h118.2
			c15.5,0,28.1-12.6,28.1-28.1V101.5C391.7,86,379.1,73.4,363.6,73.4L363.6,73.4z"/>
		<g>
			<path class="st17" d="M412.7,232.6l-14.7,14.7c-3.2,3.2-7.6,5-12.2,5s-8.9-1.8-12.2-5l0,0c-6.7-6.7-6.7-17.6,0-24.3l14.7-14.7
				c6.7-6.7,17.6-6.7,24.3,0c3.4,3.4,5,7.8,5,12.2C417.7,224.8,416,229.2,412.7,232.6z"/>
			<path class="st17" d="M208.9,214.2l-35.6,78.6c-2.6,7-2.9,14.6-1,21.8l21.6,76.9l16-81.7l20.6-56.2c5.9-16.1-1.3-33.7-16.2-41.3
				C212.2,211.3,209.8,212.2,208.9,214.2z"/>
			<path class="st21" d="M395.1,241.7c4.4-4.4,4.4-11.5,0-15.9c-4.4-4.4-11.5-4.4-15.9,0c-4.4,4.4-4.4,11.5,0,15.9
				C383.6,246.1,390.7,246.1,395.1,241.7"/>
			<path class="st17" d="M412.7,277.7l-14.7,14.7c-3.2,3.2-7.6,5-12.2,5s-8.9-1.8-12.2-5l0,0c-6.7-6.7-6.7-17.6,0-24.3l14.7-14.7
				c6.7-6.7,17.6-6.7,24.3,0c3.4,3.4,5,7.8,5,12.2C417.7,269.9,416,274.3,412.7,277.7z"/>
			<path class="st21" d="M395.1,286.8c4.4-4.4,4.4-11.5,0-15.9c-4.4-4.4-11.5-4.4-15.9,0c-4.4,4.4-4.4,11.5,0,15.9
				C383.6,291.2,390.7,291.2,395.1,286.8"/>
			
				<ellipse transform="matrix(0.7071 -0.7071 0.7071 0.7071 -117.4256 378.6506)" class="st17" cx="398.4" cy="331.1" rx="17.3" ry="17.3"/>
		</g>
	</g>
</g>
</svg>
