<svg xmlns="http://www.w3.org/2000/svg" xmlns:xlink="http://www.w3.org/1999/xlink" id="logo-icon" width="72px" height="72px" viewBox="0 0 72 72" version="1.1">
    <!-- Generator: Sketch 44.1 (41455) - http://www.bohemiancoding.com/sketch -->
    <g id="symbols" stroke="none" stroke-width="1" fill="none" fill-rule="evenodd">
        <g id="logo-livability-full" fill-rule="nonzero">
            <g id="logo-livability-full-color">
                <path d="M36.2183406,0 C16.209607,0 0,16.1103448 0,35.9965517 C0,55.8827586 16.209607,71.9931034 36.2183406,71.9931034 C56.2270742,71.9931034 72.4366812,55.8827586 72.4366812,35.9965517 C72.4366812,16.1103448 56.2270742,0 36.2183406,0 Z M56.6069869,45.4362069 L56.6069869,23.662069 C56.6069869,23.0327586 56.1004367,22.4034483 55.3406114,22.4034483 L49.8951965,22.4034483 C49.1353712,22.4034483 48.628821,22.9068966 48.628821,23.662069 L48.628821,52.3586207 L46.0960699,52.3586207 L46.0960699,26.6827586 L42.930131,26.6827586 C42.2969432,26.6827586 41.790393,27.0603448 41.790393,27.6896552 L41.790393,50.4706897 L31.6593886,50.4706897 L31.6593886,39.3948276 L27.860262,35.8706897 L24.1877729,39.5206897 L24.1877729,50.5965517 L15.1965066,50.5965517 L15.1965066,39.5206897 L14.6899563,39.5206897 C14.0567686,39.5206897 12.6637555,39.2689655 11.3973799,38.1362069 C10.7641921,37.5068966 10.3842795,37.1293103 10.1310044,36.2482759 C9.49781659,34.4862069 10.1310044,33.2275862 10.510917,32.5982759 C10.510917,32.5982759 9.62445415,31.8431034 9.62445415,29.7034483 C9.62445415,27.437931 11.3973799,25.1724138 13.930131,24.9206897 C14.9432314,24.7948276 15.7030568,24.9206897 16.4628821,25.2982759 C16.4628821,25.2982759 17.0960699,23.9137931 19.5021834,23.662069 C23.9344978,23.2844828 26.8471616,27.5637931 25.7074236,30.2068966 C25.7074236,30.2068966 25.9606987,30.4586207 26.4672489,30.962069 L24.5676856,32.85 C22.9213974,31.2137931 22.7947598,31.087931 22.7947598,31.087931 C23.4279476,30.2068966 23.5545852,29.4517241 23.5545852,29.4517241 C23.6812227,27.6896552 21.7816594,26.0534483 20.0087336,26.1793103 C18.7423581,26.3051724 18.3624454,26.5568966 17.9825328,26.9344828 C17.349345,27.437931 17.0960699,28.0672414 17.0960699,28.0672414 C16.5895197,27.5637931 15.3231441,27.1862069 14.5633188,27.312069 C13.1703057,27.5637931 12.1572052,28.5706897 12.1572052,30.0810345 C12.1572052,31.7172414 13.8034934,32.4724138 13.8034934,32.4724138 C13.0436681,32.85 12.5371179,33.7310345 12.5371179,34.612069 C12.5371179,35.9965517 13.6768559,37.0034483 14.9432314,37.0034483 L15.3231441,37.0034483 L17.8558952,37.0034483 L17.8558952,48.0793103 L21.6550218,48.0793103 L21.6550218,38.5137931 L27.9868996,32.3465517 L31.5327511,35.9965517 L31.5327511,32.7241379 L34.1921397,32.7241379 L34.1921397,48.2051724 L39.1310044,48.2051724 L39.1310044,28.0672414 C39.1310044,25.9275862 40.3973799,24.5431034 42.8034934,24.5431034 L45.9694323,24.5431034 L45.9694323,23.9137931 C45.9694323,23.9137931 45.8427948,20.137931 49.768559,20.137931 L55.3406114,20.137931 C57.7467249,20.137931 59.139738,21.2706897 59.139738,23.9137931 L59.139738,42.037931 C59.139738,42.5413793 59.5196507,43.0448276 60.1528384,43.0448276 L62.8122271,43.0448276 L62.8122271,45.687931 L56.6069869,45.687931 L56.6069869,45.4362069 Z" id="Shape" fill="#7DC143"/>
               
            </g>
        </g>
    </g>
</svg>