<svg id="Layer_1" data-name="Layer 1" xmlns="http://www.w3.org/2000/svg" viewBox="0 0 492 492"><defs><style>.cls-1{fill:#7dc143;}.cls-2{fill:#fff;}.cls-3{fill:none;stroke:#fff;stroke-miterlimit:10;stroke-width:14px;}</style></defs><g id="link"><circle class="cls-1" cx="246" cy="246" r="246"/><g id="link-2" data-name="link"><path class="cls-2" d="M289,223.3A67.8,67.8,0,0,0,277.25,214a70.32,70.32,0,0,0-87.05,9.34l-63.46,62.93a68.89,68.89,0,0,0-20.41,48.85c0,38.22,31.22,69.23,69.8,69.25a69.76,69.76,0,0,0,49.34-20.17l52.38-51.91a4.91,4.91,0,0,0,1.48-3.53,5,5,0,0,0-5-4.92h-2a84.48,84.48,0,0,1-31.93-6.13,5,5,0,0,0-5.44,1.09l-37.67,37.37a30.15,30.15,0,0,1-42.36,0,29.5,29.5,0,0,1,0-42l63.71-63.08a30.14,30.14,0,0,1,42.31,0,20.58,20.58,0,0,0,28,0,19.45,19.45,0,0,0,0-27.78Z" transform="translate(-10 -10)"/><path class="cls-2" d="M385.22,127.94a70.31,70.31,0,0,0-98.79,0L234.1,179.75a4.91,4.91,0,0,0-1,5.44,5,5,0,0,0,4.69,3h1.85a84.5,84.5,0,0,1,31.88,6.18,5,5,0,0,0,5.43-1.09l37.57-37.17a30.15,30.15,0,0,1,42.36,0,29.5,29.5,0,0,1,0,42L310,244.41l-.4.44L293.27,261A30.13,30.13,0,0,1,251,261a20.58,20.58,0,0,0-28,0,19.6,19.6,0,0,0,0,27.88,69.22,69.22,0,0,0,20,13.84c1.05.5,2.09.89,3.14,1.34s2.15.79,3.19,1.18,2.15.75,3.2,1l2.94.79c2,.5,4,.89,6,1.24a71,71,0,0,0,7.43.69h3.79l3-.35c1.09,0,2.24-.29,3.54-.29h1.69l3.45-.5,1.59-.29,2.9-.6h.55a69.93,69.93,0,0,0,32.37-18.19l63.51-62.93A68.77,68.77,0,0,0,385.22,127.94Z" transform="translate(-10 -10)"/></g></g><g id="health"><circle class="cls-1" cx="246" cy="246" r="246"/><g id="health-2" data-name="health"><path class="cls-2" d="M230.4,213.77Z" transform="translate(-10 -10)"/><path class="cls-2" d="M384.35,166.94C354.86,122,287.27,128.38,254.93,164c-11.65-12-33.9-28.82-67.2-28.82-53.65.65-77.34,43.26-78.6,85.14-1.94,75.72,95.25,151.11,140.1,177a11.45,11.45,0,0,0,11.41,0C321,362,445.73,260.65,384.35,166.94ZM254.93,374.08c-15.27-9.62-58-38.23-88.8-75.45h44.34a11.39,11.39,0,0,0,10.84-7.91l8.82-27.46L250.83,331a11.39,11.39,0,0,0,21.56.67l16.42-43.89,1.8,4.07A11.38,11.38,0,0,0,301,298.63h42.73c-30.82,37.22-73.54,65.84-88.82,75.45Zm105.25-98.23H308.44L298.34,253a11.39,11.39,0,0,0-21.08.61l-14.45,38.62-21.52-70.42a11.38,11.38,0,0,0-21.73-.15l-17.4,54.17H149.69c-10.76-17.55-17.77-36.35-17.77-55.53,0-17.35,10-62.36,55.81-62.36,23.29-.76,46.84,14,57.58,30a11.29,11.29,0,0,0,19.24,0c10.64-15.94,34.19-30.8,57.59-30,45.79,0,55.81,45,55.81,62.36,0,19.19-7,38-17.77,55.53Z" transform="translate(-10 -10)"/></g></g><g id="love"><circle class="cls-1" cx="246" cy="246" r="246"/><path id="heart" class="cls-2" d="M384,159.89a82,82,0,0,0-60.84-26.31A76.83,76.83,0,0,0,275.32,150,97.55,97.55,0,0,0,256,170a97.29,97.29,0,0,0-19.32-20,76.83,76.83,0,0,0-47.8-16.39A82,82,0,0,0,128,159.89c-15.56,16.76-24.13,39.67-24.13,64.5,0,25.56,9.59,48.95,30.17,73.62,18.41,22.08,44.88,44.48,75.52,70.42,10.46,8.86,22.33,18.91,34.64,29.6a17.95,17.95,0,0,0,23.51,0c12.32-10.7,24.19-20.75,34.66-29.61,30.64-25.94,57.1-48.34,75.51-70.42,20.58-24.67,30.17-48.06,30.17-73.62C408.09,199.56,399.52,176.65,384,159.89Z" transform="translate(-10 -10)"/></g><g id="adventure"><circle class="cls-1" cx="246" cy="246" r="246"/><g id="compass"><path class="cls-2" d="M256,119c-75.55,0-137,61.47-137,137s61.47,137,137,137,137-61.47,137-137S331.56,119,256,119Zm0,264A127,127,0,1,1,383,256,127.13,127.13,0,0,1,256,383Z" transform="translate(-10 -10)"/><path class="cls-2" d="M236.65,240.76l.72-.66,26.29-17.75a32.79,32.79,0,0,0-7.66-.93,33.25,33.25,0,0,0-33.26,33.26A32.56,32.56,0,0,0,224,263.4Z" transform="translate(-10 -10)"/><path class="cls-2" d="M270.35,271l-.73.65-22.34,15.1A33.11,33.11,0,0,0,286.65,242Z" transform="translate(-10 -10)"/><path class="cls-2" d="M256,139.2A116.81,116.81,0,1,0,372.81,256,116.95,116.95,0,0,0,256,139.2Zm-12.53,8.67h9.06l8,11.13h.09V147.87h7.59V168h-8.7l-8.43-11.25h-.06V168h-7.59V147.87ZM172.24,271.63h-7.79l-2.73-11.13h-.06l-2.75,11.13h-7.79l-5.85-20.08h7.67l2.6,12.26h.05l2.95-12.26h6.33l2.92,12.26h.06l2.59-12.26h7.68Zm92.57,90.72c-2.08,1.18-5.35,1.76-9.8,1.76-1.52,0-3-.08-4.56-.22a15.46,15.46,0,0,1-4.12-.95,7.29,7.29,0,0,1-3-2,5.23,5.23,0,0,1-1.14-3.54h9.57a1.55,1.55,0,0,0,.84,1.43,6.37,6.37,0,0,0,2.7.42,4.76,4.76,0,0,0,2.5-.45,1.4,1.4,0,0,0,.65-1.19,1.25,1.25,0,0,0-.32-.82,1.86,1.86,0,0,0-1.12-.52L248,354.89a8.37,8.37,0,0,1-2.5-.74,5.91,5.91,0,0,1-1.7-1.25,4.78,4.78,0,0,1-1-1.67,6.45,6.45,0,0,1-.31-2,5.54,5.54,0,0,1,.9-3.22,6.3,6.3,0,0,1,2.47-2,12.25,12.25,0,0,1,3.68-1.06,32.68,32.68,0,0,1,4.57-.3,31.6,31.6,0,0,1,5.74.44,13.4,13.4,0,0,1,4,1.26,6.27,6.27,0,0,1,2.34,2.06,6,6,0,0,1,.88,2.82h-9.23a1.52,1.52,0,0,0-.32-1,2.2,2.2,0,0,0-.88-.61,5.91,5.91,0,0,0-1.19-.31,7,7,0,0,0-1.29-.12,5.4,5.4,0,0,0-2.48.4,1.16,1.16,0,0,0-.7,1.05,1,1,0,0,0,.22.68,1.24,1.24,0,0,0,.83.35l9.47,1.41a9.55,9.55,0,0,1,4.76,1.87,4.89,4.89,0,0,1,1.71,4A5.83,5.83,0,0,1,264.81,362.35Zm33.33-102.5a42.53,42.53,0,0,1-37.47,36.76l-4.61,28.16-4.62-28.16a41.91,41.91,0,0,1-13.23-3.76l-49.54,33.44,29.61-52.77a41.44,41.44,0,0,1-4.07-12.07l-29-4.74,28.45-4.66a42.48,42.48,0,0,1,37-39.76l4.69-28.68,4.67,28.51a41.38,41.38,0,0,1,13.4,3.63l44.91-30.31-26.21,46.68a42.14,42.14,0,0,1,6.18,18.39l28.42,4.65ZM363,251.48v4.89H350.56v2.7H364V264H342.64V243.88H364v4.9H350.56v2.69H363Z" transform="translate(-10 -10)"/><path class="cls-2" d="M283.67,236.24l0-.07,5-8.94s0,0,0,.05l13.83-24.66-23.69,16,.06,0-8.8,5.94-.07,0-29.15,19.68-14.42,25.68a.3.3,0,0,1,0,.08l-5,8.94,0-.06-17,30.22,28.39-19.17-.05,0,8.21-5.53.06,0,25-16.9ZM254.31,263a8.28,8.28,0,1,1,8.27-8.27A8.27,8.27,0,0,1,254.31,263Z" transform="translate(-10 -10)"/></g></g><g id="city"><circle class="cls-1" cx="246" cy="246" r="246"/><g id="building"><path class="cls-2" d="M291.23,125.36a8.13,8.13,0,0,0-8.13-8.13H228.9a8.13,8.13,0,0,0-8.13,8.13v13.56h70.46Z" transform="translate(-10 -10)"/><path class="cls-2" d="M386.64,378.5h-3.26V299.91a8.15,8.15,0,0,0-4.49-7.28L359,282.69V378.5H342.73v-122a8.11,8.11,0,0,0-3.62-6.76l-48.79-32.53A8.14,8.14,0,0,0,277.68,224V378.5H261.42V224a24.39,24.39,0,0,1,37.93-20.29l8.15,5.43V163.31a8.14,8.14,0,0,0-8.14-8.13H212.64a8.14,8.14,0,0,0-8.14,8.13v9.21h13.56a24.42,24.42,0,0,1,24.39,24.4V378.5H226.19V196.92a8.13,8.13,0,0,0-8.13-8.13H169.27a8.13,8.13,0,0,0-8.13,8.13V305.33h19a24.42,24.42,0,0,1,24.39,24.39V378.5H188.24V329.72a8.13,8.13,0,0,0-8.13-8.13H136.75a8.13,8.13,0,0,0-8.13,8.13V378.5h-3.26a8.14,8.14,0,0,0,0,16.27H386.64a8.14,8.14,0,0,0,0-16.27Zm-84.57-94.86a8.14,8.14,0,0,1,16.27,0v16.27a8.14,8.14,0,0,1-16.27,0Zm0,48.79a8.14,8.14,0,0,1,16.27,0v16.26a8.14,8.14,0,0,1-16.27,0ZM201.79,283.64a8.13,8.13,0,1,1-16.26,0V267.38a8.13,8.13,0,0,1,16.26,0Zm0-48.78a8.13,8.13,0,0,1-16.26,0V218.6a8.13,8.13,0,0,1,16.26,0ZM150.3,359.53a8.13,8.13,0,0,1,16.26,0v19H150.3Z" transform="translate(-10 -10)"/></g></g><g id="active"><circle class="cls-1" cx="246" cy="246" r="246"/><path id="bike" class="cls-2" d="M359.72,236a61.29,61.29,0,0,0-14.43,1.71l-24.48-58.75L342,171.84a9.69,9.69,0,0,0-6.12-18.38l-31.78,10.62a9.7,9.7,0,0,0-5.22,12.67l6.09,14.6-84.88,22.07-8.72-20.34h13.47a9.69,9.69,0,1,0,0-19.37H183.39a9.69,9.69,0,0,0,0,19.37h7l12.9,30.08-18.77,21.9a61.53,61.53,0,1,0,28.59,62.11h32.57a9.67,9.67,0,0,0,7.82-4l62.47-85.67,11.49,27.6A61.53,61.53,0,1,0,359.72,236ZM152.28,339.67A42.18,42.18,0,1,1,171.63,260l-26.71,31.16a9.69,9.69,0,0,0,7.36,16h41A42.24,42.24,0,0,1,152.28,339.67Zm21.05-51.86L211.74,243l19.2,44.81Zm74.5-9.77-20-46.62,66.59-17.31Zm111.89,61.63A42.16,42.16,0,0,1,335,263.35l15.77,37.87a9.69,9.69,0,0,0,17.88-7.45l-15.79-37.89a42.18,42.18,0,1,1,6.85,83.79Z" transform="translate(-10 -10)"/></g><g id="music"><circle class="cls-1" cx="246" cy="246" r="246"/><g id="notes"><path class="cls-2" d="M230.7,175c-14.65-10.74-29.68-24-40.37-40L181,120.94a8.12,8.12,0,0,0-14.88,4.51V252.93a32.4,32.4,0,1,0,16.25,28V152.13c11.48,14.51,25.84,26.5,38.76,36a24.37,24.37,0,0,1-14.38,44,8.13,8.13,0,1,0,0,16.25,40.63,40.63,0,0,0,24-73.41Z" transform="translate(-10 -10)"/><path class="cls-2" d="M384.32,183.72l-114.84,32.5a8.14,8.14,0,0,0-5.9,7.82V334.19a32.11,32.11,0,0,0-16.25-4.52,32.5,32.5,0,1,0,32.5,32.5v-99.5l98.59-27.86v66.88a32.11,32.11,0,0,0-16.25-4.52,32.5,32.5,0,1,0,32.5,32.5V191.54A8.13,8.13,0,0,0,384.32,183.72Z" transform="translate(-10 -10)"/></g></g><g id="pets"><circle class="cls-1" cx="246" cy="246" r="246"/><g id="paw"><path class="cls-2" d="M329.63,277c-20.69-25-46.84-38.73-73.63-38.73S203.06,252,182.37,277c-18.59,22.46-29.69,50.75-29.69,75.69,0,12.12,3.7,21.35,11,27.43s16.72,8,27.34,8c11.3,0,23.85-2.3,36.18-4.56,10.77-2,20.95-3.84,28.79-3.84,6.77,0,16.31,1.77,26.42,3.64,23.61,4.39,50.37,9.35,65.83-3.5,7.35-6.11,11.07-15.26,11.07-27.21C359.32,327.76,348.22,299.47,329.63,277Z" transform="translate(-10 -10)"/><path class="cls-2" d="M331.74,141.39c-7.57-11.16-18.4-17.56-29.73-17.56s-22.17,6.4-29.74,17.56c-6.95,10.25-10.78,23.71-10.78,37.91s3.83,27.65,10.78,37.9c7.57,11.16,18.41,17.56,29.74,17.56s22.16-6.4,29.73-17.56c7-10.25,10.79-23.71,10.79-37.9S338.7,151.64,331.74,141.39Z" transform="translate(-10 -10)"/><path class="cls-2" d="M239.73,141.39c-7.57-11.16-18.41-17.56-29.74-17.56s-22.17,6.4-29.73,17.56c-7,10.25-10.79,23.71-10.79,37.91s3.83,27.65,10.79,37.9c7.57,11.16,18.4,17.56,29.73,17.56s22.17-6.4,29.74-17.56c7-10.25,10.78-23.71,10.78-37.9S246.68,151.64,239.73,141.39Z" transform="translate(-10 -10)"/><path class="cls-2" d="M407.94,228.46c-3.05-10.38-9.59-17.93-18.41-21.24A29,29,0,0,0,367,208.49c-10.27,4.81-18.67,14.74-23,27.23-3.57,10.22-4,21-1.26,30.4,3.05,10.38,9.59,17.93,18.42,21.24a27,27,0,0,0,9.55,1.72,30.86,30.86,0,0,0,13-3c10.27-4.81,18.67-14.74,23-27.23h0C410.26,248.64,410.7,237.85,407.94,228.46Z" transform="translate(-10 -10)"/><path class="cls-2" d="M168.08,235.72c-4.37-12.5-12.77-22.42-23-27.23a28.92,28.92,0,0,0-22.57-1.27c-8.82,3.31-15.36,10.86-18.41,21.24-2.76,9.39-2.32,20.18,1.25,30.39h0c4.37,12.49,12.76,22.42,23,27.23a30.86,30.86,0,0,0,13,3,27,27,0,0,0,9.55-1.72c8.83-3.32,15.37-10.86,18.42-21.24C172.09,256.73,171.64,245.94,168.08,235.72Z" transform="translate(-10 -10)"/></g></g><g id="metro"><circle class="cls-1" cx="246" cy="246" r="246"/><g id="cities"><circle class="cls-3" cx="246" cy="243.31" r="124.51"/><rect class="cls-1" x="159.12" y="62.78" width="173.76" height="366.47"/><path class="cls-2" d="M196,119.7h5.22v10.43H196Z" transform="translate(-10 -10)"/><path class="cls-2" d="M206.46,124.91h5.22v5.22h-5.22Z" transform="translate(-10 -10)"/><path class="cls-2" d="M216.89,114.48h5.22v15.65h-5.22Z" transform="translate(-10 -10)"/><path class="cls-2" d="M318.57,96.23H308.15V85.8h-2.7l.09-13-5.22,0-.08,13h-2.52V96.23H287.29v7.82h31.28Z" transform="translate(-10 -10)"/><path class="cls-2" d="M271.64,96.23h-13V85.8h-2.69l.08-13-5.21,0-.09,13h-2.52V96.23h-13v7.82h36.5Z" transform="translate(-10 -10)"/><path class="cls-2" d="M204.44,215.48a20.34,20.34,0,0,1,2-2.67V150.25l20.86,5.22V135.34h-36.5v75.85a15,15,0,0,1,2.61-.24,15.69,15.69,0,0,1,11,4.53Zm12.45-74.93h5.22v5.22h-5.22Zm-10.43,0h5.22v5.22h-5.22Zm-10.43,0h5.22v5.22H196ZM196,151h5.22v5.22H196Zm0,10.43h5.22v5.22H196Zm0,10.43h5.22v5.22H196Zm0,10.43h5.22v5.21H196Zm0,10.43h5.22v5.21H196Zm0,10.43h5.22v5.21H196Z" transform="translate(-10 -10)"/><path class="cls-2" d="M289.89,130.2a44.26,44.26,0,0,0-39.46,30.25l-.29.72,3.25.81v46.57a20.84,20.84,0,0,1,28.5,7.61h.18a20.58,20.58,0,0,1,7.82,1.6v-.16a22.41,22.41,0,0,1-5.21-14.47h-5.21v-5.22h5.21v5.22a22.38,22.38,0,0,1,5.21-14.57Zm-26.07,72.93h-5.21v-5.22h5.21Zm0-10.43h-5.21v-5.22h5.21Zm0-10.43h-5.21v-5.21h5.21Zm0-10.43h-5.21v-5.21h5.21Zm0-10.43h-5.21V156.2h5.21Zm10.43,41.72H269v-5.22h5.21Zm0-10.43H269v-5.22h5.21Zm0-10.43H269v-5.21h5.21Zm0-10.43H269v-5.21h5.21Zm0-10.43H269V156.2h5.21Zm0-10.43H269v-5.21h5.21Zm10.43,41.72h-5.21v-5.22h5.21Zm0-10.43h-5.21v-5.21h5.21Zm0-10.43h-5.21v-5.21h5.21Zm0-10.43h-5.21V156.2h5.21Zm0-10.43h-5.21v-5.21h5.21Z" transform="translate(-10 -10)"/><path class="cls-2" d="M258.61,109.27H248.18v43.06a49,49,0,0,1,10.43-14Z" transform="translate(-10 -10)"/><path class="cls-2" d="M211.68,208.52a20.89,20.89,0,0,1,25.42,3.58A15.34,15.34,0,0,1,243,211a15.61,15.61,0,0,1,5.22,1V166.06l-36.5-9.13Zm26.07-41.89H243v5.21h-5.21Zm0,10.43H243v5.21h-5.21Zm0,10.42H243v5.22h-5.21Zm0,10.43H243v5.22h-5.21Zm-10.43-31.28h5.21v5.21h-5.21Zm0,10.43h5.21v5.21h-5.21Zm0,10.42h5.21v5.22h-5.21Zm0,10.43h5.21v5.22h-5.21Zm-10.43-31.28h5.22v5.21h-5.22Zm0,10.43h5.22v5.21h-5.22Zm0,10.42h5.22v5.22h-5.22Zm0,10.43h5.22v5.22h-5.22Z" transform="translate(-10 -10)"/><path class="cls-2" d="M295.11,124.91v59.4a16.3,16.3,0,0,1,7.82-2h-2.61v-5.21h5.22v5.21h-2.61A16.61,16.61,0,0,1,313.36,186a16.83,16.83,0,0,1,7.82-3.53V109.27h-36.5v16.26a49.4,49.4,0,0,1,7.82-.62Zm15.64-10.43H316v5.22h-5.22Zm0,10.43H316v5.22h-5.22Zm0,10.43H316v5.21h-5.22Zm0,10.43H316V151h-5.22Zm0,10.43H316v5.21h-5.22Zm0,10.43H316v5.21h-5.22Zm0,10.43H316v5.21h-5.22Zm-10.43-62.58h5.22v5.22h-5.22Zm0,10.43h5.22v5.22h-5.22Zm0,10.43h5.22v5.21h-5.22Zm0,10.43h5.22V151h-5.22Zm0,10.43h5.22v5.21h-5.22Zm0,10.43h5.22v5.21h-5.22Zm-10.43-52.15h5.22v5.22h-5.22Z" transform="translate(-10 -10)"/><path class="cls-2" d="M326.4,218.46a11.14,11.14,0,0,1-5.22,0V229.2H305.54V218.46a11.14,11.14,0,0,1-5.22,0V229.2h-4.73a15.6,15.6,0,0,0-16.9-7.45A15.64,15.64,0,0,0,250.12,219a10.34,10.34,0,0,0-14.32,0A15.64,15.64,0,0,0,207.16,222a10.32,10.32,0,0,0-3.31-.58l-1.34.09A10.43,10.43,0,0,0,183,226.59a10.6,10.6,0,0,0,.33,2.61h-8.16v5.22H336.83V229.2H326.4Z" transform="translate(-10 -10)"/><path class="cls-2" d="M305.54,203.13v15.33a13.1,13.1,0,0,0,7.82-6,13.1,13.1,0,0,0,7.82,6V203.13h5.22v15.33c5.94-1.46,10.43-7.78,10.43-15.33,0-8.63-5.85-15.65-13-15.65-4.27,0-8.05,2.49-10.43,6.3-2.38-3.81-6.16-6.3-10.43-6.3-7.19,0-13,7-13,15.65,0,7.55,4.49,13.87,10.43,15.33V203.13Z" transform="translate(-10 -10)"/><path class="cls-2" d="M282.07,355.82h41.72V348h-5.22V332.35H316v-13h-5.22v13h-2.6V348H282.07Z" transform="translate(-10 -10)"/><path class="cls-2" d="M263.82,282.81h-5.21v13l5.21-1Z" transform="translate(-10 -10)"/><path class="cls-2" d="M274.25,277.6H269v16.11l5.21-1Z" transform="translate(-10 -10)"/><path class="cls-2" d="M284.68,282.81h-5.21v8.82l5.21-1.05Z" transform="translate(-10 -10)"/><path class="cls-2" d="M268.38,416.93a15.61,15.61,0,0,1,5.87-1.14v-60h2.61v-13h18.25v-49l-46.93,9.38v108a20.86,20.86,0,0,1,20.2,5.7Zm8.48-105.44h10.43v15.65H276.86Zm-20.86,0h10.43v15.65H256Zm0,26.08h10.43v15.64H256Zm0,26.07h10.43v15.64H256Zm0,26.07h10.43v15.65H256Z" transform="translate(-10 -10)"/><path class="cls-2" d="M295.11,410.57a20.45,20.45,0,0,1,5.21.68V371.46H289.89v39.8A20.65,20.65,0,0,1,295.11,410.57Z" transform="translate(-10 -10)"/><path class="cls-2" d="M313.17,421h.19a20.56,20.56,0,0,1,2.61.21V371.46H305.54v41.9A20.71,20.71,0,0,1,313.17,421Z" transform="translate(-10 -10)"/><path class="cls-2" d="M326.4,425.66V361H279.47v55.71c.21.08.44.11.65.19a21.14,21.14,0,0,1,4.56-3.54V366.25h36.5v56.34a20.9,20.9,0,0,1,5.22,3.07Z" transform="translate(-10 -10)"/><path class="cls-2" d="M326.88,434a15.53,15.53,0,0,0-16.9-7.45,15.64,15.64,0,0,0-28.57-2.71,10.34,10.34,0,0,0-14.32,0,15.64,15.64,0,0,0-28.64,2.92,10.42,10.42,0,0,0-3.31-.59l-1.34.1a10.43,10.43,0,0,0-19.52,5.12,10.73,10.73,0,0,0,.34,2.61h-5.31a16.24,16.24,0,0,1-.24-2.61,15.64,15.64,0,0,1,26.65-11.11,20.72,20.72,0,0,1,7.24-7v-94h-36.5V346.9a22.47,22.47,0,0,1,5.22,2.89v-4.4h5.21v5.21h-4.22a25.23,25.23,0,0,1,2.74,2.64,21.38,21.38,0,0,1,9.06,2.58h2.85v1.83a26.88,26.88,0,0,1,10.43,21.63c0,11.33-6.55,21-15.64,24.56v4.41L206.46,426.5V434h-5.21v-9.47l15.64-18.25V399.9c8.83-1.45,15.64-10.13,15.64-20.62,0-11.5-8.18-20.85-18.25-20.85a13,13,0,0,0-1.37.07,17.5,17.5,0,0,0-14.27-7.9c-10.06,0-18.25,9.36-18.25,20.86,0,10.49,6.81,19.17,15.64,20.62V368.85h5.22v25a17.49,17.49,0,0,0,10.43,6.07v4.49l-10.43,12.17V393.83c-.43-.51-.85-1-1.24-1.59-.45,0-.91.08-1.37.08a16.13,16.13,0,0,1-2.61-.24v3.4a11.63,11.63,0,0,0-7.82-3.16c-7.19,0-13,7-13,15.64,0,7.56,4.49,13.88,10.43,15.33V434H175.17v5.21H336.83V434Zm-110-93.87h-5.21V335h5.21Zm0-10.42h-5.21v-5.22h5.21Zm10.43,20.85h-5.21v-5.21h5.21Zm0-10.43h-5.21V335h5.21Zm0-10.42h-5.21v-5.22h5.21Zm5.21-5.22h5.22v5.22h-5.22Zm0,10.43h5.22v5.21h-5.22Zm0,10.43h5.22v5.21h-5.22Zm0,15.64v-5.21h5.22V361Zm-41.71,62.26a12,12,0,0,0,5.21-2.84V434h-5.21Z" transform="translate(-10 -10)"/></g></g></svg>