<svg viewBox="0 0 492 492" xmlns="http://www.w3.org/2000/svg"><circle cx="246" cy="246" fill="#7dc143" r="246"/><path d="m246.79 405.45c-31.8-2.14-53.95-8.57-71.82-20.72-14.65-9.65-25-23.23-31.44-40.38-2.15-6.79-3.58-13.22-5.36-26.08l73.6-13.22c1.43 15 4.29 22.51 10.72 29.66 6.08 6.43 13.22 9.64 24.3 11.07v-67.53c-27.87-5.72-44.31-10.72-59-18.22-28.23-14.3-44.66-41.09-44.66-73.25 0-35.73 21.79-66.46 55.38-79.33a136.5 136.5 0 0 1 48.24-9.64v-19.66h24.3v20c23.22 1.43 40.37 6.08 57.53 15 23.22 12.15 37.87 32.52 44.66 63.25l-73.24 12.52c-2.5-19.65-11.79-29.3-28.94-31.8v59c41.45 7.86 58.24 13.57 74 24.29 23.94 16.4 36.08 39.59 36.08 69.64 0 57.53-41.81 94-110 96.12v27.51h-24.3zm0-248.69c-20 1.43-31.09 11.44-31.09 27.52 0 9.29 4.29 16.43 12.51 21.08 3.57 2.14 7.5 3.57 18.58 6.43zm24.3 189.38c23.94-1.79 35.73-12.51 35.73-32.87 0-11.44-4.65-19.66-13.58-24.3-5.72-2.86-9.65-4.29-22.15-7.15z" fill="#fff" transform="translate(-10 -10)"/><circle cx="246" cy="246" fill="#7dc143" r="246"/><g fill="#fff" stroke="#fff" stroke-miterlimit="10" stroke-width="2" transform="translate(-10 -10)"><path d="m312.27 425c-5.69-1-11.54-1.57-17-3.21-16.42-4.89-31.81-12.09-44.23-24.11-25.56-24.72-37.1-55-34.06-90.5.49-5.75 2-11.41 3.06-17.11a19.71 19.71 0 0 1 .87-2.59l8.89 2.68c-.92 5.44-1.72 10.71-2.75 15.93a3.91 3.91 0 0 0 1.86 4.64c6.51 4.53 6.49 4.67 12.75 0q8-6 15.82-12.19a3.69 3.69 0 0 0 1.07-3.15q-3.72-12.42-7.87-24.71c-.3-.91-1.74-1.43-2.66-2.12-.07 0-.21 0-.32 0-8.64-.29-10.05.71-13 9.21-.39 1.1-.77 2.22-1.3 3.77l-9.09-4.32c.49-1.34.76-2.27 1.16-3.14a116.38 116.38 0 0 1 31.72-40.88c31.45-26.2 82.84-29.83 120.17-4.89 3.67 2.45 3.68 2.43 1.15 6-1.13 1.59-2.27 3.17-3.36 4.69l-21.67-12.38-.75.75c.73 2.57 1.31 5.19 2.24 7.67.8 2.14.6 3.45-1.45 4.87-5.87 4-11.59 8.31-17.3 12.58q-5 3.71-9.67 7.74a4.1 4.1 0 0 0 -1.12 2.8c-.1 7-.15 14.05 0 21.06a5.42 5.42 0 0 0 2 3.66c5.56 4.28 11.6 8 16.85 12.62 3.36 2.95 5.67 3 9.53 1 4.31-2.25 9.24-3.4 14-4.67 3-.8 4.39-2.46 5.26-5.39 3-9.86 6.27-19.61 9.3-29.44.72-2.34 1.71-3.5 4.33-3.21a19.73 19.73 0 0 0 7.5-.73l-11.55-13.09c1.84-2.13 3.87-4.48 6.15-7.1a90.44 90.44 0 0 1 15.59 17.26c.91 1.36 1.73 2.77 2.6 4.16q25.23 40.29 13.62 86.4c-4.74 18.8-14.22 34.84-27.81 48.77-10.51 10.77-22.94 18-36.64 23.67a89.54 89.54 0 0 1 -26.24 6.45 4.73 4.73 0 0 0 -1.18.48h-4.61v-10.16l21.49-3.43.14-.91-8.43-6.26c3.13-9.92 6-19.8 9.41-29.46 1.92-5.41 2.1-9.95-2.35-14.18a26.76 26.76 0 0 1 -4.26-5.81c-1.11-1.87-2.55-2.31-4.61-2.29q-15.12.15-30.26 0c-2.17 0-3.64.49-4.88 2.39-2.21 3.39-4.65 6.65-7.12 9.85a4.6 4.6 0 0 0 -.85 4.78c3.44 10.72 6.59 21.55 10.09 32.25.68 2.12.19 3.15-1.53 4.26-2.13 1.38-4.1 3-6.91 5.12l20.45 3.55c-.31 3.41-.62 6.87-.92 10.33zm-24.12-198.5c-16.56 7.87-31.08 16.86-42.07 32.15 3 0 5.15.18 7.26 0 2.86-.31 4.21.63 5.08 3.54 3 10.16 6.46 20.2 9.62 30.32a4.74 4.74 0 0 0 3.57 3.67c5.05 1.45 10.41 2.51 14.88 5.05 4.64 2.62 7.32 1.44 10.89-1.63 5-4.28 10.61-7.76 15.8-11.78a6 6 0 0 0 2.13-3.94c.21-6.9.15-13.81 0-20.71a4.52 4.52 0 0 0 -1.32-3.05c-3-2.65-6.17-5.16-9.38-7.57-5.26-3.95-10.48-8-16-11.57-3.06-2-4.25-3.88-2.53-7.37.97-1.87 1.22-4.01 2.07-7.11zm117.06 101.72c-1.65-1.49-3-2.93-4.53-4.07-8.05-5.89-16.13-11.75-24.28-17.5a4.67 4.67 0 0 0 -3.54-.64c-5.35 1.56-10.67 3.29-15.92 5.18a4.64 4.64 0 0 0 -2.5 2.57q-4.65 14-8.95 28.14a4.47 4.47 0 0 0 .46 3.3c3.05 4.66 6.35 9.16 9.43 13.81a4.52 4.52 0 0 0 4.34 2.15c10.75-.08 21.51 0 32.26 0 2.09 0 3.19.53 3.71 2.64.64 2.53 1.61 5 2.62 8 10.41-15.59 15-32.2 16-50.93zm-178.42-7.05c-1.31 13.8 7.71 42 15.74 49.83l3.36-9.84h3.66c10.52 0 21.06 0 31.58-.14a5.69 5.69 0 0 0 3.93-2c3.36-4.44 6.48-9.06 9.54-13.71a4.35 4.35 0 0 0 .52-3.22c-2.85-9.42-5.78-18.82-8.89-28.16a5.49 5.49 0 0 0 -3-2.86c-4.92-1.82-9.92-3.49-15-4.89a5.92 5.92 0 0 0 -4.39.8c-7.91 5.52-15.7 11.21-23.48 16.91-1.78 1.31-3.37 2.87-5.06 4.32zm69.65-8.17c2.89 9.18 5.7 18.25 8.69 27.27a3.38 3.38 0 0 0 2.65 1.57c8.34.12 16.68 0 25 .11a2.66 2.66 0 0 0 3-2.23c2.54-8.26 5.2-16.49 7.67-24.77a3.39 3.39 0 0 0 -.8-3c-6.77-5.33-13.68-10.48-20.49-15.78-1.4-1.08-2.38-1-3.72.06-5.49 4.31-11.05 8.54-16.6 12.77-1.73 1.35-3.51 2.6-5.4 4zm61.78 58c-2.4 7.45-4.69 14.51-7 21.58-2.5 7.76-2.45 7.7 4 12.5a4.32 4.32 0 0 0 5 .54c9.87-4.34 17.76-11.32 25.7-18.35 3.89-3.44 5.74-6.8 2.93-11.68-.47-.83-.37-2-.88-2.79s-1.41-1.71-2.15-1.72c-9.14-.08-18.33-.08-27.6-.08zm-105.12.09c-1 3.19-2.07 6.29-2.9 9.44a3.16 3.16 0 0 0 .77 2.5c8.72 9.14 18.07 17.46 29.82 22.63 2.08.92 10.3-3.46 10.57-5.67a3.26 3.26 0 0 0 -.26-1.28c-2.85-9.19-5.71-18.37-8.6-27.62zm143.56-102.58c-7.42.14-5.68-.94-7.73 5.1-2.44 7.14-4.65 14.36-6.78 21.59a3.61 3.61 0 0 0 .84 3.17c5.44 4.36 11 8.57 16.6 12.73s5.7 4.12 11.67 0a4.77 4.77 0 0 0 2.39-5.12c-1.39-11.54-5.11-22.33-9.88-32.85-1.58-3.51-3.58-5.68-7.11-4.62zm-100-34.08c7.27 5.3 14.67 10.77 22.19 16.06a3.71 3.71 0 0 0 3.32-.32c5.22-3.62 10.32-7.44 15.46-11.18 6.73-4.9 6.64-4.87 4.22-12.75-.69-2.24-1.81-3.3-4.09-3.39-9.07-.38-18.23-1.85-27.17-.95-13.18 1.32-10.26-1.2-14 11.92a2.68 2.68 0 0 0 .11.61z"/><path d="m87 253.16c.67-4.75 1.33-9.5 2-14.25.19-1.28.55-2.54.89-4.12l9.22 2-2.62 23.95c19.73-19.17 41.62-32.77 67.9-40.43-2.82-1.46-4.95-2.66-7.17-3.7-8.16-3.83-16.56-6.94-25.53-8.31-1.8-.28-3.53-1.08-5.32-1.2-9.65-.65-16.65 3.43-20.91 12.12-1.2 2.45-2.29 5-3.62 7.85l-9.28-3.07c1.47-3.27 2.72-6.37 4.23-9.35 7.87-15.56 17-18.71 33.67-17.11a78.68 78.68 0 0 1 29.11 8.81c12.67 6.68 25.29 13.68 35.81 23.53 7.89 7.39 15.05 15.56 22.42 23.48 1.46 1.57 2.42 3.61 3.83 5.78l-7.72 5.71c-4-4.87-7.45-9.93-11.7-14.24-5.92-6-12.41-11.42-18.66-17.08-.25-.22-.53-.4-.78-.61-2.73-2.25-4.69-6-9.29-4.51-3.49 1.15-7 2.13-10.52 3.32-3.82 1.31-7.61 2.72-11.37 4.2-11.28 4.45-22 10-31.45 17.61-7.56 6.07-14.35 13.1-21.35 19.85a5.21 5.21 0 0 0 -1.17 3.77 160 160 0 0 0 10.65 45.56 148.25 148.25 0 0 0 30.51 48.65c1.11 1.17 2 2.59 3.61 4.67a35.05 35.05 0 0 0 -3.95 3 39.86 39.86 0 0 0 -3.32 4.37c-6.27-7.91-12.13-14.69-17.3-21.95-15.52-21.87-24.75-46.25-28.82-72.62-.79-5.07-1.33-10.18-2-15.27z"/><path d="m210.83 425c-2.77-.57-5.57-1-8.29-1.73-18.83-5.13-35.66-14.26-51.12-26-3.09-2.35-5.75-5.26-8.81-8.1l6.26-7.07c4.55 3.48 8.81 6.92 13.27 10.05a6.4 6.4 0 0 0 4.49.92 138.82 138.82 0 0 0 45.11-18.38 48.18 48.18 0 0 0 4.09-3.21c1.86 2.91 3.61 5.65 5.62 8.78-13.94 8.89-28.51 16.37-44.43 21.33.1.21.15.6.35.71 10.19 5.48 20.81 9.74 32.33 11.55 11.1 1.75 20.75.31 25.78-11.86l9 4.6c-5.14 8.64-10.47 16.49-21.33 17.87a4.25 4.25 0 0 0 -1.15.54z"/><path d="m217 179.38h33.49v-91.72l-18.8 3.78-2.46-9.65c47.42-13.83 96.9 11.3 117.48 52l-8.11 5.15c-1.88-3.08-3.53-6-5.41-8.8s-3.92-5.26-5.9-7.89c-11 9-23.26 39.66-22.76 57.06h45.29c-.87-5.45-1.5-10.84-2.65-16.12s-2.8-10.29-4.31-15.69l8.77-3.66a109.14 109.14 0 0 1 6.15 60.74l-9.45-1.74c.41-4.16.8-8.14 1.22-12.42h-45.31c.41 3.91.81 7.68 1.24 11.73l-9.66 1.79c-.56-4.59-1.09-8.91-1.66-13.51h-33.54v29.57h-9.92v-29.57h-33.7c-1.07 11.53-2.77 23-7.56 34.14l-8.29-3.26c2.19-10.28 4.35-20.35 6.6-30.9h-45.75v6.09l-9.83 1.19c-.18-5.67-.68-11.1-.47-16.5a110 110 0 0 1 9.77-41.64c4-8.77 9.42-16.46 15.25-24.05 7.92-10.31 18-17.78 29.14-24.13 4.21-2.42 8.51-4.68 13.13-7.2l3.31 9.76c-6.75 3.79-13.32 7.26-19.64 11.14a84 84 0 0 0 -9.34 7.25c-1.4 1.16-2.25 2.4-.61 4.35 15.2 17.99 22.49 39.07 24.29 62.71zm77.35 0c.08-1.13.14-2 .21-2.84 2-21.91 9-41.85 23.2-58.93 2.14-2.58 1.9-4.06-.48-6.08a92.34 92.34 0 0 0 -35-19c-6.95-2-13.8-4.71-21.44-4.2v91.06zm-87.33 0c-1.54-21.57-8.64-40.59-22.62-57.47-13.74 17-21.17 35.9-22.57 57.47z"/><path d="m154.86 273 5.69 10.66 8.6-4.87 5 8.45-8.44 5 6.6 12 8.37-5.61c1.69 3.21 3.2 6.06 4.87 9.25l-8.35 5 6.51 11.3 8.7-4.87 4.78 9.2-8.42 5 5.63 10-8.47 4.92-5.81-9.88-8.53 4.78c-1.61-2.72-3.2-5.4-5-8.37l8.44-5.1-6.37-12.05-8.66 4.86-4.91-8.47 8.4-4.95-6.49-12.12-8.58 5-4.92-8.61 8.44-5-5.87-10.49z"/><path d="m147.38 351.32-7.83 6.47-13.67-20.38 8.52-5c4.37 6.39 8.6 12.53 12.98 18.91z"/><path d="m153.78 372.56c-2.33-2.54-4.47-4.86-6.53-7.12l6.59-7.1 6.49 7z"/><path d="m271.19 109.88c.65-3.15 1.28-6.18 2-9.65l12.35 3.61-3.54 9.23z"/><path d="m295 108.22c2.69 1.64 4.95 3 7.14 4.39 1.49 1 1.92 2.15.6 3.76-1.52 1.85-2.81 3.89-4.36 6.08l-7.85-4.73z"/></g></svg>