<svg enable-background="new 0 0 280.5 267.9" viewBox="0 0 280.5 267.9" xmlns="http://www.w3.org/2000/svg"><g fill="#fff"><path d="m237.9 267h-195.7c-2.6 0-5.1-1-6.9-2.8s-2.9-4.3-2.9-6.9v-162.2c0-2.6 1-5 2.9-6.9 1.8-1.8 4.3-2.8 6.9-2.8s5.1 1 6.9 2.8 2.8 4.3 2.8 6.9v152.5h176.2v-66.3c0-2.6 1-5 2.9-6.9 1.8-1.8 4.3-2.8 6.9-2.8s5.1 1 6.9 2.8 2.9 4.3 2.9 6.9v76.1c0 2.6-1 5.1-2.9 6.9-1.9 1.7-4.2 2.7-6.9 2.7z"/><path d="m237.9 149c-1.3 0-2.6-.2-3.7-.7-1.2-.5-2.3-1.2-3.2-2.1s-1.6-2-2.1-3.1c-.5-1.2-.7-2.5-.7-3.7 0-2.6 1-5 2.8-6.9 1.9-1.7 4.4-2.7 6.9-2.7 2.6 0 5 1 6.9 2.7 1.8 1.8 2.9 4.3 2.9 6.9 0 1.3-.3 2.6-.7 3.7-.5 1.2-1.2 2.3-2.1 3.2s-2 1.6-3.2 2.1c-1.3.4-2.5.7-3.8.6z"/><path d="m270.5 124.3c-2.2 0-4.4-.7-6.1-2.1l-124.4-99-124.5 99c-2 1.5-4.6 2.3-7.1 2-2.6-.3-4.9-1.6-6.5-3.6s-2.4-4.5-2.1-7.1c.3-2.5 1.5-4.9 3.5-6.5l130.6-103.9c1.7-1.4 3.9-2.1 6.1-2.1s4.4.8 6.1 2.1l130.4 103.9c1.6 1.2 2.7 3 3.3 4.9s.5 4-.2 5.9-1.9 3.5-3.6 4.7c-1.5 1.2-3.5 1.8-5.5 1.8z"/><path d="m179.2 267h-78.3c-2.6 0-5.1-1-6.9-2.8s-2.9-4.3-2.9-6.9v-110.3c0-2.6 1-5 2.9-6.9 1.8-1.8 4.3-2.8 6.9-2.8h78.3c2.6 0 5.1 1 6.9 2.8s2.9 4.3 2.9 6.9v110.3c0 2.6-1 5.1-2.9 6.9s-4.3 2.8-6.9 2.8zm-68.5-19.4h58.7v-90.9h-58.7z"/><path d="m140.4 122.3c-1.3 0-2.4-.4-3.3-1.3s-1.3-1.9-1.3-3.2v-5.1c-3.4-.8-6.4-2-9-3.9-2.6-1.8-4.7-4.4-6.3-7.8-.5-1-.6-2.1-.1-3.3s1.4-2 2.7-2.5c1-.4 2.2-.4 3.3.1 1.2.5 2 1.3 2.6 2.4 1.3 2.2 2.9 3.9 4.9 5.1s4.4 1.7 7.3 1.7c3.1 0 5.8-.7 7.9-2 2.2-1.4 3.3-3.5 3.3-6.4 0-2.6-.8-4.7-2.5-6.2s-5.5-3.2-11.6-5.2c-6.6-2-11.1-4.4-13.5-7.2s-3.6-6.2-3.6-10.2c0-4.8 1.6-8.5 4.8-11.2s6.5-4.2 9.8-4.6v-4.9c0-1.2.4-2.3 1.3-3.2s2-1.3 3.3-1.3 2.4.4 3.3 1.3 1.3 1.9 1.3 3.2v4.9c2.9.4 5.4 1.4 7.5 2.7 2.1 1.4 3.9 3.1 5.2 5 .7 1 .8 2 .4 3.2s-1.3 2-2.6 2.6c-1.1.4-2.2.5-3.3.1s-2.2-1.1-3.2-2.2c-1-1-2.1-1.8-3.5-2.4-1.3-.6-3-.9-5-.9-3.4 0-5.9.7-7.7 2.2-1.7 1.4-2.6 3.2-2.6 5.4 0 2.5 1.2 4.4 3.4 5.8 2.3 1.4 6.2 2.9 11.9 4.4 5.2 1.5 9.2 3.9 11.9 7.1s4.1 6.9 4.1 11.2c0 5.2-1.6 9.3-4.8 12-3.2 2.8-7.1 4.4-11.9 5.1v4.9c0 1.2-.4 2.3-1.3 3.2-.6 1.1-1.7 1.4-3.1 1.4z"/></g></svg>