<?xml version="1.0" encoding="UTF-8"?><svg id="a" xmlns="http://www.w3.org/2000/svg" viewBox="0 100 280.45 67.91"><defs><style>.b{fill:#fff;}</style></defs><path class="b" d="M74.9,126.02l-.93-.26-7.82-11.34c-1.46-2.13-3.66-3.91-6.33-5.15-2.67-1.25-5.74-1.9-8.86-1.9H31.27c-3.61,0-7.14,.88-10.07,2.51-2.93,1.64-5.12,3.94-6.27,6.6l-3.72,8.65c-3.13,1.02-5.79,2.73-7.66,4.91-1.88,2.18-2.88,4.74-2.88,7.37v5.92c0,3.78,2.92,7.03,7.1,8.5,.54,2.4,2.13,4.58,4.5,6.19,2.38,1.6,5.38,2.53,8.53,2.62s6.25-.64,8.77-2.1c2.53-1.45,4.34-3.53,5.12-5.89h28.42c.78,2.36,2.59,4.44,5.12,5.89,2.53,1.46,5.62,2.19,8.77,2.1,3.15-.09,6.16-1.02,8.53-2.62,2.37-1.61,3.96-3.79,4.5-6.19,2.12-.74,3.91-1.94,5.17-3.45,1.26-1.5,1.93-3.26,1.93-5.06v-1.8c0-2.75-1.1-5.44-3.15-7.68-2.05-2.24-4.95-3.95-8.3-4.87l-10.4-2.86v-.1h-.36Zm-53.43-7.86c.69-1.59,2-2.97,3.76-3.96,1.76-.98,3.88-1.51,6.05-1.51h7.29v13.32H18.08l3.38-7.86Zm44.88,7.86h-20.89v-13.32h5.51c1.87,0,3.72,.39,5.32,1.14,1.6,.75,2.92,1.81,3.8,3.1l6.27,9.09h0Zm-51.89,23.98c0-1.41,.72-2.77,2.02-3.77,1.29-1,3.04-1.56,4.87-1.56s3.58,.56,4.87,1.56c1.3,1,2.02,2.35,2.02,3.77s-.72,2.77-2.02,3.77c-1.29,1-3.04,1.56-4.87,1.56s-3.58-.56-4.87-1.56c-1.3-1-2.02-2.35-2.02-3.77Zm61.99-5.33c1.83,0,3.59,.56,4.88,1.56s2.02,2.35,2.02,3.77-.73,2.77-2.02,3.77-3.05,1.56-4.88,1.56-3.58-.56-4.87-1.56-2.02-2.35-2.02-3.77,.73-2.77,2.02-3.77,3.05-1.56,4.87-1.56Z"/><path class="b" d="M257.55,125.77l-.93-.26-7.82-11.34c-1.46-2.13-3.66-3.91-6.33-5.15-2.67-1.25-5.74-1.9-8.86-1.9h-19.68c-3.61,0-7.14,.88-10.07,2.51-2.93,1.64-5.12,3.94-6.27,6.6l-3.72,8.65c-3.13,1.02-5.79,2.73-7.66,4.91-1.88,2.18-2.88,4.74-2.88,7.37v5.92c0,3.78,2.92,7.03,7.1,8.5,.54,2.4,2.13,4.58,4.5,6.19,2.38,1.6,5.38,2.53,8.53,2.62,3.15,.1,6.25-.64,8.77-2.1,2.53-1.45,4.34-3.53,5.12-5.89h28.42c.78,2.36,2.59,4.44,5.12,5.89,2.53,1.46,5.62,2.2,8.77,2.1,3.15-.09,6.16-1.02,8.53-2.62,2.37-1.61,3.96-3.79,4.5-6.19,2.12-.74,3.91-1.94,5.17-3.45,1.26-1.5,1.93-3.26,1.93-5.06v-1.8c0-2.75-1.1-5.44-3.15-7.68-2.06-2.24-4.95-3.95-8.3-4.87l-10.4-2.86v-.1h-.36Zm-53.43-7.86c.68-1.59,2-2.97,3.76-3.96,1.76-.98,3.88-1.51,6.05-1.51h7.29v13.32h-20.48l3.38-7.86Zm44.88,7.86h-20.89v-13.32h5.51c1.87,0,3.72,.39,5.32,1.14,1.6,.75,2.92,1.81,3.8,3.1l6.27,9.09h0Zm-51.89,23.98c0-1.41,.72-2.77,2.02-3.77,1.29-1,3.04-1.56,4.87-1.56s3.58,.56,4.87,1.56c1.3,1,2.02,2.35,2.02,3.77s-.72,2.77-2.02,3.77c-1.29,1-3.04,1.56-4.87,1.56s-3.58-.56-4.87-1.56c-1.3-1-2.02-2.35-2.02-3.77Zm61.99-5.33c1.83,0,3.59,.56,4.88,1.56s2.02,2.35,2.02,3.77-.73,2.77-2.02,3.77-3.05,1.56-4.88,1.56-3.58-.56-4.87-1.56-2.02-2.35-2.02-3.77,.73-2.77,2.02-3.77,3.05-1.56,4.87-1.56Z"/></svg>