<svg viewBox="0 0 280.45 267.91" xmlns="http://www.w3.org/2000/svg"><g fill="#fff"><path d="m227.11 195.04h15.8v18.01h-15.8z"/><path d="m227.11 123.13h15.8v18.01h-15.8z"/><path d="m272.16 71.04-63.27-67.67c-1.46-1.58-3.4-2.44-5.4-2.44s-3.91.86-5.37 2.44l-14.76 15.77 36.28 38.79c2.36 2.53 4.23 5.58 5.52 8.97 1.28 3.37 1.94 7.01 1.94 10.7v27.55h23.64c2.09 0 4.08.92 5.58 2.62 1.46 1.67 2.29 3.97 2.29 6.35v35.95c0 1.16-.21 2.33-.6 3.43-.42 1.07-.98 2.09-1.7 2.92-.75.83-1.61 1.49-2.56 1.94s-1.97.69-3.01.69h-23.64v18.01h23.64c1.04 0 2.06.21 3.01.69.95.45 1.82 1.1 2.56 1.94.72.83 1.28 1.82 1.7 2.92.39 1.07.6 2.24.6 3.43v35.98c0 2.39-.83 4.68-2.29 6.38-1.49 1.67-3.49 2.62-5.58 2.62h-23.64v35.96h39.65c2.09 0 4.08-.95 5.57-2.65 1.46-1.67 2.3-3.97 2.3-6.35v-180.38c0-1.22-.21-2.44-.66-3.58-.42-1.13-1.04-2.15-1.82-2.98z"/><path d="m82.33 3.37c-1.46-1.58-3.37-2.44-5.37-2.44s-3.94.86-5.4 2.44l-63.25 67.67c-.81.83-1.43 1.85-1.85 2.98s-.66 2.36-.66 3.58v180.34c0 2.38.83 4.65 2.33 6.35 1.46 1.67 3.46 2.62 5.54 2.62h39.66v-35.93h-23.65c-2.09 0-4.08-.95-5.55-2.65-1.49-1.67-2.33-3.97-2.33-6.35v-36.01c0-2.36.83-4.65 2.33-6.35 1.46-1.67 3.46-2.62 5.55-2.62h23.64v-18.01h-23.64c-1.01 0-2.06-.21-3.01-.69-.95-.45-1.82-1.1-2.53-1.94-.75-.83-1.31-1.82-1.7-2.92-.42-1.07-.63-2.24-.63-3.43v-35.87c0-2.39.83-4.68 2.33-6.35 1.46-1.7 3.46-2.65 5.55-2.65h23.64v-27.52c0-3.7.66-7.33 1.94-10.7 1.28-3.4 3.13-6.44 5.49-8.97l36.27-38.81z"/><path d="m37.58 195.04h15.77v18.01h-15.77z"/><path d="m37.58 123.13h15.77v18.01h-15.77z"/><path d="m132.33 212.99h15.77v53.93h-15.77z"/><path d="m132.33 123.13h15.77v18.01h-15.77z"/><path d="m145.6 3.37c-1.46-1.58-3.37-2.44-5.4-2.44s-3.91.86-5.37 2.44l-63.29 67.68c-.77.83-1.4 1.85-1.85 2.98-.42 1.13-.63 2.36-.63 3.58v189.32h47.49v-53.93h-2.86c-2.12 0-4.11-.92-5.61-2.62-1.46-1.7-2.29-3.97-2.29-6.35s.83-4.68 2.29-6.38c1.49-1.7 3.49-2.62 5.61-2.62h53.01c2.09 0 4.11.92 5.57 2.62 1.49 1.7 2.33 3.97 2.33 6.38s-.83 4.65-2.33 6.35c-1.46 1.7-3.49 2.62-5.57 2.62h-2.89v53.93h47.52v-189.33c0-1.22-.21-2.44-.66-3.58-.42-1.13-1.04-2.15-1.82-2.98zm21.14 155.72h-53.04c-2.09 0-4.08-.95-5.58-2.65-1.49-1.67-2.3-3.97-2.3-6.35s.81-4.68 2.3-6.38c1.49-1.67 3.49-2.62 5.58-2.62h2.89v-26.92c0-2.39.83-4.68 2.3-6.35 1.49-1.7 3.49-2.65 5.57-2.65h31.54c1.01 0 2.06.24 3.01.69s1.82 1.13 2.56 1.97c.72.83 1.31 1.82 1.7 2.89.39 1.1.6 2.27.6 3.46v26.95h2.89c2.09 0 4.08.95 5.57 2.65 1.46 1.67 2.3 3.97 2.3 6.35s-.83 4.68-2.3 6.35c-1.49 1.7-3.49 2.65-5.57 2.65l-.03-.03z"/></g></svg>