<svg enable-background="new 0 0 682 682" viewBox="0 0 682 682" xmlns="http://www.w3.org/2000/svg"><path d="m579.3 465.9h-476.6c-18.8 0-34-15.3-34-34.1v-181.6c0-18.8 15.3-34.1 34-34.1h476.7c18.8 0 34 15.3 34 34.1v181.7c0 18.7-15.3 34-34.1 34zm-476.6-227.1c-6.2 0-11.3 5.1-11.3 11.4v181.7c0 6.2 5.1 11.4 11.3 11.4h476.7c6.2 0 11.3-5.1 11.3-11.4v-181.7c0-6.2-5.1-11.4-11.3-11.4z"/><path d="m332.5 424.3c-40.1 0-74.6-13.2-105-24.9-23.3-9-43.5-16.7-61.3-16.7-40.4 0-76.6 29.7-77 30-2.3 1.9-5.6 1.6-7.6-.6-1.9-2.2-1.7-5.5.6-7.3 1.6-1.3 39.6-32.5 84-32.5 19.9 0 40.9 8.1 65.3 17.4 29.5 11.3 63 24.2 101.1 24.2 3 0 5.4 2.3 5.4 5.2s-2.6 5.2-5.5 5.2z" stroke="#000" stroke-miterlimit="10" stroke-width="5"/><path d="m340.6 398c-.6 0-1.3-.1-1.9-.4-21.6-8.5-39.4-15-55.3-15-19.3 0-37.1 7.2-48.7 13.2-2.6 1.3-5.7.3-7-2.2-1.3-2.6-.3-5.7 2.2-7 12.6-6.5 32.1-14.3 53.5-14.3 17.8 0 36.5 6.8 59.2 15.8 2.7 1.1 4 4.1 2.9 6.7-.8 2-2.8 3.2-4.9 3.2z" stroke="#000" stroke-miterlimit="10" stroke-width="5"/><path d="m161.1 309.8h-31.2c-8.6 0-15.6-7-15.6-15.6 0-7.8 5.7-14.2 13.1-15.4 3.5-6.5 10.4-10.6 18.1-10.6s14.6 4.1 18.1 10.6c7.4 1.2 13.1 7.7 13.1 15.4 0 8.6-7 15.6-15.6 15.6zm-31.9-21c-2.2.2-4.5 2.5-4.5 5.4s2.3 5.2 5.2 5.2h31.2c2.9 0 5.2-2.3 5.2-5.2s-2.3-5.2-5.2-5.2c-1.3.4-2.4.2-3.6-.4s-1.8-1.8-2.2-3.1c-1.3-4.1-5.2-6.9-9.7-6.9s-8.4 2.8-9.7 6.9c-.4 1.3-1.4 2.4-2.6 3-1.4.6-2.8.7-4.1.3z"/><path d="m594.6 424.3c-40.7 0-75.7-13.2-106.6-24.9-23.7-9-44.1-16.7-62.2-16.7-41 0-77.8 29.7-78.1 30-2.3 1.9-5.7 1.6-7.7-.6-1.9-2.2-1.7-5.5.6-7.3 1.6-1.3 40.2-32.5 85.2-32.5 20.2 0 41.5 8.1 66.2 17.4 30 11.3 63.9 24.2 102.5 24.2 3 0 5.4 2.3 5.4 5.2s-2.3 5.2-5.3 5.2z" stroke="#000" stroke-miterlimit="10" stroke-width="5"/><path d="m602.8 398c-.6 0-1.3-.1-1.9-.4-21.6-8.5-39.4-15-55.3-15-19.3 0-37.1 7.2-48.7 13.2-2.6 1.3-5.7.3-7-2.2-1.3-2.6-.3-5.7 2.2-7 12.6-6.5 32.1-14.3 53.5-14.3 17.8 0 36.5 6.8 59.2 15.8 2.7 1.1 4 4.1 2.9 6.7-.8 2-2.8 3.2-4.9 3.2z" stroke="#000" stroke-miterlimit="10" stroke-width="5"/><path d="m423.3 309.8h-31.2c-8.6 0-15.6-7-15.6-15.6 0-7.8 5.7-14.2 13.1-15.4 3.5-6.5 10.4-10.6 18.1-10.6s14.6 4.1 18.1 10.6c7.4 1.2 13.1 7.7 13.1 15.4 0 8.6-7 15.6-15.6 15.6zm-31.9-21c-2.2.2-4.5 2.5-4.5 5.4s2.3 5.2 5.2 5.2h31.2c2.9 0 5.2-2.3 5.2-5.2s-2.3-5.2-5.2-5.2c-1.3.4-2.4.2-3.6-.4s-1.8-1.8-2.2-3.1c-1.3-4.1-5.2-6.9-9.7-6.9s-8.4 2.8-9.7 6.9c-.4 1.3-1.4 2.4-2.6 3-1.4.6-2.8.7-4.1.3z"/><path d="m341 216.1v249.8z" stroke="#000" stroke-miterlimit="10" stroke-width="19"/></svg>