<svg enable-background="new 0 0 682 682" viewBox="0 0 682 682" xmlns="http://www.w3.org/2000/svg"><path d="m571.3 481.4h-461.2c-18.2 0-32.9-15.3-32.9-34.1v-181.6c0-18.8 14.8-34.1 32.9-34.1h461.3c18.2 0 32.9 15.3 32.9 34.1v181.7c0 18.7-14.8 34-33 34zm-461.2-227.1c-6 0-11 5.1-11 11.4v181.7c0 6.2 4.9 11.4 11 11.4h461.3c6 0 11-5.1 11-11.4v-181.7c0-6.2-4.9-11.4-11-11.4z"/><path d="m593.3 458.7c-82.1 0-152.7-28.9-215-54.4-47.8-19.6-89-36.4-125.5-36.4-82.6 0-156.9 64.7-157.6 65.4-4.6 4.1-11.5 3.5-15.5-1.2-4-4.8-3.4-11.9 1.2-16 3.3-2.9 81-70.9 171.9-70.9 40.7 0 83.8 17.6 133.6 38 60.5 24.8 129 52.8 206.9 52.8 6.1 0 11 5.1 11 11.4 0 6.2-4.9 11.3-11 11.3z"/><path d="m593.3 401.5c-1.4 0-2.7-.2-4-.8-45.6-18.6-83.2-32.8-116.8-32.8-40.7 0-78.4 15.6-102.8 28.7-5.3 2.9-12 .7-14.8-4.8-2.8-5.6-.7-12.4 4.7-15.3 26.6-14.3 67.7-31.3 112.9-31.3 37.5 0 77 14.9 124.9 34.4 5.6 2.3 8.4 8.9 6.2 14.7-1.8 4.4-5.9 7.2-10.3 7.2z"/></svg>