<svg enable-background="new 0 0 682 682" viewBox="0 0 682 682" xmlns="http://www.w3.org/2000/svg"><path d="m579.3 465.9h-476.6c-18.8 0-34-15.3-34-34.1v-181.6c0-18.8 15.3-34.1 34-34.1h476.7c18.8 0 34 15.3 34 34.1v181.7c0 18.7-15.3 34-34.1 34zm-476.6-227.1c-6.2 0-11.3 5.1-11.3 11.4v181.7c0 6.2 5.1 11.4 11.3 11.4h476.7c6.2 0 11.3-5.1 11.3-11.4v-181.7c0-6.2-5.1-11.4-11.3-11.4z"/><path d="m335.6 422.7c-40.6 0-75.5-13.2-106.3-24.9-23.6-9-44-16.7-62.1-16.7-40.9 0-77.6 29.7-77.9 30-2.3 1.9-5.7 1.6-7.7-.6-1.9-2.2-1.7-5.5.6-7.3 1.6-1.3 40.1-32.5 85-32.5 20.1 0 41.4 8.1 66.1 17.4 29.9 11.3 63.8 24.2 102.3 24.2 3 0 5.4 2.3 5.4 5.2 0 2.8-2.4 5.2-5.4 5.2z" stroke="#000" stroke-miterlimit="10" stroke-width="5"/><path d="m376.8 406.9c-.6 0-1.3-.1-1.9-.4-21.6-8.5-39.4-15-55.3-15-19.3 0-37.1 7.2-48.7 13.2-2.6 1.3-5.7.3-7-2.2-1.3-2.6-.3-5.7 2.2-7 12.6-6.5 32.1-14.3 53.5-14.3 17.8 0 36.5 6.8 59.2 15.8 2.7 1.1 4 4.1 2.9 6.7-.8 2-2.8 3.2-4.9 3.2z" stroke="#000" stroke-miterlimit="10" stroke-width="5"/><path d="m156.5 299.4h-31.2c-8.6 0-15.6-7-15.6-15.6 0-7.8 5.7-14.2 13.1-15.4 3.5-6.5 10.4-10.6 18.1-10.6s14.6 4.1 18.1 10.6c7.4 1.2 13.1 7.7 13.1 15.4 0 8.6-7 15.6-15.6 15.6zm-31.9-21c-2.2.2-4.5 2.5-4.5 5.4s2.3 5.2 5.2 5.2h31.2c2.9 0 5.2-2.3 5.2-5.2s-2.3-5.2-5.2-5.2c-1.3.4-2.4.2-3.6-.4s-1.8-1.8-2.2-3.1c-1.3-4.1-5.2-6.9-9.7-6.9s-8.4 2.8-9.7 6.9c-.4 1.3-1.4 2.4-2.6 3-1.3.6-2.8.7-4.1.3z"/><path d="m589.5 445.6c-47.3 3.7-89.3-10-126.4-22.2-28.4-9.3-53-17.4-74-15.7-47.6 3.8-87.4 45.2-87.8 45.6-2.5 2.6-6.5 2.6-9 0s-2.5-6.9 0-9.5c1.7-1.8 43.4-45.3 95.8-49.5 23.5-1.9 49.1 6.5 78.7 16.3 36 11.8 76.8 25.2 121.7 21.6 3.5-.3 6.6 2.5 6.9 6.2s-2.5 6.9-5.9 7.2z" stroke="#000" stroke-miterlimit="10" stroke-width="5"/><path d="m592 419.8c-.8 0-1.5-.1-2.3-.4-25.6-8.5-46.6-15-65.4-15-22.8 0-43.9 7.2-57.6 13.2-3 1.3-6.7.3-8.3-2.2-1.6-2.6-.4-5.7 2.6-7 14.9-6.5 38-14.3 63.3-14.3 21 0 43.2 6.8 70 15.8 3.2 1.1 4.7 4.1 3.5 6.7-1.1 2-3.4 3.2-5.8 3.2z" stroke="#000" stroke-miterlimit="10" stroke-width="5"/><path d="m535.8 320.2h-31.2c-8.6 0-15.6-7-15.6-15.6 0-7.8 5.7-14.2 13.1-15.4 3.5-6.5 10.4-10.6 18.1-10.6s14.6 4.1 18.1 10.6c7.4 1.2 13.1 7.7 13.1 15.4 0 8.6-7 15.6-15.6 15.6zm-31.9-21c-2.2.2-4.5 2.5-4.5 5.4s2.3 5.2 5.2 5.2h31.2c2.9 0 5.2-2.3 5.2-5.2s-2.3-5.2-5.2-5.2c-1.3.4-2.4.2-3.6-.4s-1.8-1.8-2.2-3.1c-1.3-4.1-5.2-6.9-9.7-6.9s-8.4 2.8-9.7 6.9c-.4 1.3-1.4 2.4-2.6 3-1.4.6-2.8.7-4.1.3z"/><g stroke="#000" stroke-miterlimit="10" stroke-width="19"><path d="m251.7 216.1v249.8z"/><path d="m429.9 216.1v249.8z"/></g></svg>