<?xml version="1.0" encoding="UTF-8"?>
<svg id="Layer_1" data-name="Layer 1" xmlns="http://www.w3.org/2000/svg" viewBox="0 0 2000 1650">
  <defs>
    <style>
      .cls-1 {
        fill: #619fdf;
      }

      .cls-1, .cls-2, .cls-3, .cls-4, .cls-5, .cls-6, .cls-7, .cls-8, .cls-9, .cls-10 {
        stroke-width: 0px;
      }

      .cls-2 {
        fill: #c2def9;
      }

      .cls-2, .cls-3, .cls-4, .cls-5, .cls-6, .cls-7, .cls-8, .cls-9, .cls-10 {
        fill-rule: evenodd;
      }

      .cls-3 {
        fill: #f47a44;
      }

      .cls-4 {
        fill: #f57e4e;
      }

      .cls-5 {
        fill: #ffe1db;
      }

      .cls-11 {
        opacity: .44;
      }

      .cls-12 {
        opacity: .46;
      }

      .cls-13 {
        opacity: .48;
      }

      .cls-6 {
        fill: #fb9674;
      }

      .cls-7 {
        fill: #ef8161;
      }

      .cls-8 {
        fill: #ef6a30;
      }

      .cls-9 {
        fill: #fff;
      }

      .cls-10 {
        fill: #eef8fb;
      }
    </style>
  </defs>
  <g>
    <g>
      <polygon class="cls-9" points="1617.3 349.99 1617.3 567.5 1617.3 718.43 1617.3 949.71 1617.3 1245.8 1619.53 1247.11 1461.38 1273.74 1303.25 1300.38 1145.1 1273.74 986.96 1247.11 828.82 1273.74 670.68 1300.38 512.54 1273.74 487.14 1269.47 354.39 1247.11 359.42 1246.27 359.41 1028.83 359.41 929.04 359.41 751.3 359.42 350.46 435.97 363.35 512.54 376.24 670.68 402.88 828.82 376.24 907.9 362.93 986.96 349.61 1145.1 376.24 1303.25 402.88 1461.38 376.24 1539.34 363.11 1617.3 349.99"/>
      <path class="cls-1" d="M1303.25,1314.37c-.78,0-1.56-.06-2.33-.2l-313.96-52.87-313.96,52.87c-1.54.27-3.11.27-4.65,0l-316.28-53.26c-6.74-1.13-11.67-6.97-11.67-13.8,0-4.28,1.93-8.16,5.03-10.74v-485.07s0-400.84,0-400.84c0-4.12,1.81-8.02,4.95-10.68,3.15-2.66,7.32-3.78,11.36-3.11l308.93,52.03,313.96-52.87c1.54-.26,3.11-.26,4.65,0l313.96,52.87,311.73-52.5c4.09-.67,8.21.46,11.36,3.11,3.13,2.66,4.94,6.57,4.94,10.68v889.55c1.89,2.93,2.66,6.54,2,10.13-1.07,5.78-5.64,10.27-11.43,11.24l-316.29,53.26c-.76.13-1.54.2-2.31.2ZM986.96,1233.13c.78,0,1.56.06,2.32.19l313.96,52.88,300.06-50.54V366.53l-297.74,50.14c-1.53.26-3.1.26-4.65,0l-313.96-52.87-313.96,52.87c-1.54.26-3.11.26-4.65,0l-294.94-49.67v661.83s0,207.3,0,207.3l297.27,50.07,313.96-52.88c.77-.13,1.55-.19,2.32-.19Z"/>
    </g>
    <g>
      <g>
        <path class="cls-1" d="M1303.25,1301.57c-.07,0-.13,0-.2-.02l-316.08-53.24-316.09,53.24c-.13.02-.26.02-.39,0l-316.28-53.28c-.57-.09-.99-.58-.99-1.17s.42-1.07.99-1.17l4.04-.69V350.46c0-.35.15-.68.42-.91.26-.22.62-.33.96-.26l311.06,52.39,316.09-53.24c.13-.02.26-.02.39,0l316.09,53.24,313.85-52.86c.34-.07.69.04.97.26.26.22.41.56.41.91v895.75l1.24.21c.57.09.99.58.99,1.17s-.42,1.07-.99,1.17l-316.29,53.28c-.06,0-.13.02-.19.02ZM986.96,1245.93c.07,0,.13,0,.2.02l316.09,53.23,312.87-52.7V351.39l-312.68,52.66c-.13.02-.25.02-.39,0l-316.08-53.23-316.09,53.23c-.13.02-.26.02-.39,0l-309.87-52.19v894.4c0,.24-.07.47-.2.66l310.27,52.25,316.09-53.23c.07-.02.13-.02.2-.02Z"/>
        <path class="cls-1" d="M670.68,1301.57c-.66,0-1.19-.54-1.19-1.19V402.88c0-.66.53-1.19,1.19-1.19s1.19.53,1.19,1.19v897.5c0,.65-.53,1.19-1.19,1.19Z"/>
        <path class="cls-1" d="M1303.25,1301.57c-.66,0-1.2-.54-1.2-1.19V402.88c0-.66.54-1.19,1.2-1.19s1.18.53,1.18,1.19v897.5c0,.65-.53,1.19-1.18,1.19Z"/>
        <path class="cls-1" d="M986.96,1248.3c-.66,0-1.19-.53-1.19-1.19V349.61c0-.66.53-1.19,1.19-1.19s1.19.53,1.19,1.19v897.5c0,.66-.53,1.19-1.19,1.19Z"/>
      </g>
      <g>
        <g>
          <polygon class="cls-10" points="670.68 1300.38 670.68 402.88 512.54 376.24 359.42 350.46 359.42 1246.26 354.39 1247.11 512.54 1273.74 670.68 1300.38"/>
          <path class="cls-1" d="M670.68,1308.5c-.45,0-.9-.04-1.35-.11l-316.28-53.28c-3.91-.66-6.77-4.04-6.77-8,0-3.35,2.04-6.28,5.03-7.5V350.46c0-2.39,1.05-4.65,2.87-6.2,1.83-1.54,4.22-2.21,6.59-1.81l311.26,52.42c3.91.66,6.77,4.04,6.77,8v897.5c0,2.39-1.05,4.65-2.87,6.2-1.48,1.24-3.33,1.92-5.24,1.92ZM367.54,1241.1l295.03,49.69V409.74l-295.03-49.69v881.04Z"/>
        </g>
        <g>
          <polygon class="cls-2" points="670.68 402.88 670.68 1300.38 828.82 1273.74 986.96 1247.11 986.96 349.61 828.82 376.24 670.68 402.88"/>
          <path class="cls-1" d="M670.68,1308.5c-1.91,0-3.76-.68-5.24-1.92-1.82-1.54-2.87-3.81-2.87-6.2V402.88c0-3.96,2.86-7.34,6.77-8l316.28-53.27c2.35-.41,4.76.26,6.59,1.81,1.82,1.54,2.87,3.81,2.87,6.2v897.5c0,3.96-2.86,7.34-6.77,8l-316.28,53.28c-.45.07-.9.11-1.35.11ZM678.79,409.74v881.04l300.05-50.54V359.21l-300.05,50.53Z"/>
        </g>
        <g>
          <polygon class="cls-10" points="986.96 349.61 986.96 1247.11 1145.1 1273.74 1303.25 1300.38 1303.25 402.88 1145.1 376.24 986.96 349.61"/>
          <path class="cls-1" d="M1303.25,1308.5c-.46,0-.9-.04-1.35-.11l-316.28-53.28c-3.91-.66-6.77-4.04-6.77-8V349.61c0-2.39,1.05-4.65,2.87-6.2,1.82-1.54,4.24-2.21,6.59-1.81l316.28,53.27c3.91.66,6.77,4.04,6.77,8v897.5c0,2.39-1.05,4.65-2.87,6.2-1.47,1.24-3.33,1.92-5.24,1.92ZM995.08,1240.25l300.05,50.54V409.74l-300.05-50.53v881.04Z"/>
        </g>
        <g>
          <polygon class="cls-2" points="1303.25 402.88 1303.25 1300.38 1461.38 1273.74 1619.53 1247.11 1617.3 1246.73 1617.3 349.99 1461.38 376.24 1303.25 402.88"/>
          <path class="cls-1" d="M1303.25,1308.5c-1.91,0-3.76-.68-5.24-1.92-1.83-1.54-2.88-3.81-2.88-6.2V402.88c0-3.96,2.86-7.34,6.76-8l314.06-52.89c2.35-.39,4.76.26,6.59,1.81,1.82,1.54,2.87,3.81,2.87,6.2v891.53c1.39,1.46,2.24,3.45,2.24,5.59,0,3.96-2.87,7.34-6.77,8l-316.29,53.28c-.44.07-.9.11-1.34.11ZM1311.36,409.74v881.04l297.83-50.16V359.58l-297.83,50.16Z"/>
        </g>
      </g>
    </g>
    <path class="cls-1" d="M670.68,859.75c-1.32,0-2.62-.32-3.8-.94l-207.83-110.05c-2.47-1.32-4.1-3.8-4.3-6.6l-26.87-378.24c-.32-4.47,3.05-8.35,7.52-8.67,4.45-.41,8.35,3.05,8.67,7.52l26.55,373.74,201.42,106.65,313.57-52.81c4.41-.72,8.6,2.24,9.35,6.66.74,4.41-2.24,8.6-6.66,9.35l-316.28,53.27c-.45.07-.9.11-1.35.11Z"/>
    <path class="cls-1" d="M359.42,937.16c-2.24,0-4.48-.93-6.08-2.74-2.97-3.35-2.66-8.48.7-11.45l167.96-148.76c3.35-2.98,8.48-2.66,11.45.69,2.97,3.35,2.66,8.49-.7,11.46l-167.96,148.76c-1.54,1.37-3.46,2.05-5.37,2.05Z"/>
    <path class="cls-1" d="M670.68,654.76c-.62,0-1.24-.08-1.85-.22l-218.21-51.25c-4.37-1.03-7.07-5.39-6.05-9.76,1.03-4.37,5.41-7.06,9.76-6.05l216.68,50.89,105.26-16.15,124.3-262.78c1.92-4.06,6.76-5.78,10.8-3.87,4.05,1.92,5.78,6.75,3.87,10.8l-126.15,266.68c-1.15,2.43-3.44,4.14-6.1,4.55l-111.07,17.04c-.41.06-.82.09-1.23.09Z"/>
    <path class="cls-1" d="M986.97,671.8c-.44,0-.89-.04-1.34-.11l-205.21-34.08c-4.42-.74-7.41-4.91-6.67-9.34.73-4.42,4.87-7.43,9.33-6.67l205.21,34.08c4.42.74,7.41,4.91,6.67,9.34-.66,3.97-4.1,6.79-8,6.79Z"/>
    <path class="cls-1" d="M487.15,1277.59c-.44,0-.9-.04-1.35-.11-4.42-.75-7.4-4.94-6.66-9.35l79.61-472.86c.74-4.42,4.91-7.39,9.35-6.65,4.42.75,7.4,4.94,6.66,9.35l-79.62,472.86c-.67,3.97-4.11,6.77-8,6.77Z"/>
    <path class="cls-1" d="M670.68,1144.07c-.87,0-1.77-.14-2.64-.44l-311.26-107.12c-4.24-1.45-6.49-6.07-5.03-10.32,1.46-4.23,6.07-6.49,10.32-5.02l311.26,107.12c4.24,1.46,6.49,6.07,5.03,10.32-1.16,3.36-4.3,5.47-7.67,5.47Z"/>
    <path class="cls-1" d="M359.41,759.41c-4.14,0-7.68-3.15-8.07-7.35-.42-4.46,2.86-8.42,7.32-8.83l103.43-9.72c4.53-.44,8.42,2.86,8.84,7.32.42,4.46-2.86,8.42-7.32,8.83l-103.43,9.72c-.26.02-.52.03-.77.03Z"/>
    <path class="cls-1" d="M670.67,1144.07c-3.88,0-7.3-2.79-7.99-6.72-.76-4.42,2.2-8.62,6.61-9.39l316.28-54.77c4.44-.78,8.62,2.2,9.38,6.61.76,4.43-2.2,8.62-6.61,9.39l-316.28,54.77c-.47.09-.94.12-1.39.12Z"/>
    <path class="cls-1" d="M986.95,671.8c-4.32,0-7.91-3.42-8.1-7.78-.19-4.47,3.28-8.25,7.76-8.44l316.28-13.41c4.31-.26,8.27,3.28,8.46,7.76.19,4.48-3.29,8.26-7.76,8.45l-316.29,13.4c-.11.02-.23.02-.35.02Z"/>
    <path class="cls-1" d="M1303.25,957.84c-1.18,0-2.38-.26-3.5-.8l-316.29-151.35c-4.04-1.94-5.75-6.78-3.81-10.82,1.94-4.05,6.8-5.76,10.82-3.82l316.29,151.35c4.04,1.93,5.76,6.78,3.82,10.83-1.4,2.91-4.3,4.61-7.32,4.61Z"/>
    <path class="cls-1" d="M986.96,1089.3c-1.95,0-3.89-.69-5.45-2.1-3.32-3.01-3.57-8.14-.56-11.46l178.87-197.23c3.01-3.32,8.13-3.58,11.46-.56,3.32,3.01,3.57,8.14.55,11.46l-178.86,197.23c-1.6,1.76-3.8,2.66-6.02,2.66Z"/>
    <path class="cls-1" d="M1303.25,1308.5c-2.3,0-4.6-.98-6.2-2.88l-248.26-294.21c-2.89-3.43-2.46-8.54.97-11.43,3.42-2.91,8.55-2.46,11.43.97l248.27,294.21c2.88,3.43,2.46,8.55-.98,11.43-1.52,1.29-3.38,1.92-5.23,1.92Z"/>
    <path class="cls-1" d="M1303.25,859.75c-3.16,0-6.16-1.86-7.47-4.95-1.75-4.13.18-8.9,4.31-10.65l314.04-133.2c4.13-1.76,8.89.18,10.64,4.31,1.75,4.13-.17,8.88-4.3,10.64l-314.05,133.2c-1.03.44-2.11.65-3.17.65Z"/>
    <path class="cls-1" d="M1617.3,957.83h-314.05c-4.48,0-8.11-3.63-8.11-8.12s3.63-8.11,8.11-8.11h314.05c4.47,0,8.11,3.64,8.11,8.11s-3.64,8.12-8.11,8.12Z"/>
    <path class="cls-1" d="M1303.25,658.4c-3.61,0-6.88-2.41-7.84-6.06-1.15-4.33,1.44-8.77,5.78-9.91l314.04-82.77c4.34-1.16,8.76,1.44,9.91,5.78,1.14,4.33-1.45,8.77-5.78,9.91l-314.05,82.77c-.69.18-1.39.28-2.06.28Z"/>
    <path class="cls-1" d="M1303.25,1308.5c-1.12,0-2.24-.23-3.32-.71-4.09-1.83-5.92-6.63-4.09-10.72l156.31-349.09v-339.09c0-.84.13-1.68.39-2.48l79.08-245.77c1.37-4.26,5.94-6.63,10.21-5.24,4.27,1.37,6.62,5.95,5.25,10.21l-78.69,244.57v339.54c0,1.15-.24,2.28-.71,3.32l-157.03,350.67c-1.34,3.02-4.31,4.8-7.4,4.8Z"/>
    <path class="cls-1" d="M1619.52,1255.24c-1.4,0-2.82-.37-4.12-1.13l-231.23-136.69c-3.86-2.28-5.13-7.26-2.85-11.12,2.28-3.86,7.28-5.13,11.12-2.85l231.23,136.69c3.86,2.28,5.13,7.25,2.85,11.11-1.51,2.56-4.21,3.99-6.99,3.99Z"/>
  </g>
  <g>
    <g>
      <g>
        <g>
          <path class="cls-3" d="M1201.93,356.2h0c21.55,21.55,20.23,55.58,0,78.37l-39.19,44.13-39.18-44.13c-20.23-22.79-21.54-56.82,0-78.37h0c21.56-21.55,56.82-21.55,78.38,0Z"/>
          <path class="cls-7" d="M1162.73,356.2c21.18,0,38.36,17.17,38.36,38.35s-17.17,38.35-38.36,38.35-38.35-17.17-38.35-38.35,17.17-38.35,38.35-38.35Z"/>
          <path class="cls-7" d="M1162.73,364.9c16.38,0,29.66,13.28,29.66,29.66s-13.28,29.65-29.66,29.65-29.65-13.28-29.65-29.65,13.28-29.66,29.65-29.66Z"/>
        </g>
        <path class="cls-8" d="M1203.82,353.65h0c21.55,21.55,20.23,55.58,0,78.37l-39.18,44.13-39.18-44.13c-20.23-22.79-21.55-56.82,0-78.37h0c21.55-21.55,56.81-21.55,78.37,0Z"/>
        <path class="cls-5" d="M1164.63,353.65c21.17,0,38.36,17.17,38.36,38.35s-17.18,38.35-38.36,38.35-38.36-17.17-38.36-38.35,17.17-38.35,38.36-38.35Z"/>
        <g class="cls-12">
          <path class="cls-9" d="M1164.63,353.65c21.17,0,38.35,17.17,38.35,38.35s-17.17,38.35-38.35,38.35c-5.19,0-10.13-1.03-14.65-2.9,4.28-6.68,10.56-9.78,16.57-11.74,14.62-4.76,21.01-11.36,18.5-30.63-2.11-16.25-14.54-27-27.66-30.75,2.35-.45,4.76-.69,7.24-.69Z"/>
        </g>
      </g>
      <path class="cls-3" d="M1165.81,486.29c9.84,0,17.82,7.98,17.82,17.83s-7.98,17.82-17.82,17.82-17.83-7.98-17.83-17.82,7.98-17.83,17.83-17.83Z"/>
      <path class="cls-8" d="M1167.49,484.49c9.84,0,17.83,7.98,17.83,17.82s-7.98,17.83-17.83,17.83-17.83-7.98-17.83-17.83,7.98-17.82,17.83-17.82Z"/>
      <g class="cls-13">
        <path class="cls-4" d="M1167.49,484.49c9.84,0,17.83,7.98,17.83,17.82,0,9.25-7.04,16.85-16.06,17.74-.04-3.98.54-8.81.54-14.38,0-11.84-11.2-13.7-13.06-17.59,2.98-2.26,6.71-3.59,10.74-3.59Z"/>
      </g>
    </g>
    <g class="cls-11">
      <path class="cls-6" d="M1203.82,353.65h0c21.55,21.55,20.23,55.58,0,78.37l-39.18,44.13-20.12-22.66c-.09-2.81.05-6.07.42-9.89,1.81-18.77,12.06-24.77,21.62-27.88,14.62-4.76,21.01-11.36,18.5-30.63-2.24-17.2-16.03-28.25-29.98-31.33-6.89-1.52-17.9-1.72-28.91-.8,21.62-20.84,56.33-20.61,77.65.71Z"/>
    </g>
  </g>
  <g>
    <g>
      <g>
        <g>
          <path class="cls-3" d="M1133.32,714.98h0c21.55,21.55,20.24,55.59,0,78.38l-39.18,44.13-39.18-44.13c-20.24-22.79-21.55-56.82,0-78.38h0c21.54-21.55,56.81-21.55,78.37,0Z"/>
          <path class="cls-7" d="M1094.14,714.98c21.18,0,38.35,17.17,38.35,38.36s-17.17,38.35-38.35,38.35-38.35-17.17-38.35-38.35,17.17-38.36,38.35-38.36Z"/>
          <path class="cls-7" d="M1094.14,723.68c16.38,0,29.65,13.28,29.65,29.66s-13.27,29.65-29.65,29.65-29.66-13.28-29.66-29.65,13.28-29.66,29.66-29.66Z"/>
        </g>
        <path class="cls-8" d="M1135.21,712.43h0c21.55,21.55,20.24,55.59,0,78.38l-39.18,44.13-39.18-44.13c-20.24-22.79-21.55-56.82,0-78.38h0c21.54-21.55,56.82-21.55,78.37,0Z"/>
        <path class="cls-5" d="M1096.03,712.43c21.18,0,38.35,17.17,38.35,38.36s-17.17,38.35-38.35,38.35-38.35-17.17-38.35-38.35,17.17-38.36,38.35-38.36Z"/>
        <g class="cls-12">
          <path class="cls-9" d="M1096.03,712.43c21.18,0,38.35,17.17,38.35,38.36s-17.17,38.35-38.35,38.35c-5.19,0-10.14-1.04-14.65-2.9,4.28-6.69,10.55-9.79,16.55-11.75,14.62-4.76,21.02-11.36,18.51-30.62-2.12-16.25-14.54-27-27.66-30.75,2.35-.45,4.76-.69,7.25-.69Z"/>
        </g>
      </g>
      <path class="cls-3" d="M1097.2,845.08c9.84,0,17.83,7.98,17.83,17.82s-7.98,17.83-17.83,17.83-17.83-7.98-17.83-17.83,7.99-17.82,17.83-17.82Z"/>
      <path class="cls-8" d="M1098.88,843.26c9.85,0,17.83,7.98,17.83,17.83s-7.98,17.83-17.83,17.83-17.82-7.99-17.82-17.83,7.98-17.83,17.82-17.83Z"/>
      <g class="cls-13">
        <path class="cls-4" d="M1098.88,843.26c9.85,0,17.83,7.98,17.83,17.83,0,9.25-7.04,16.84-16.05,17.73-.03-3.98.54-8.8.54-14.38,0-11.84-11.18-13.69-13.06-17.58,2.99-2.26,6.71-3.6,10.74-3.6Z"/>
      </g>
    </g>
    <g class="cls-11">
      <path class="cls-6" d="M1135.21,712.43h0c21.55,21.55,20.24,55.59,0,78.38l-39.18,44.13-20.13-22.66c-.09-2.82.05-6.07.42-9.89,1.81-18.77,12.06-24.77,21.61-27.89,14.62-4.76,21.02-11.36,18.51-30.62-2.24-17.21-16.03-28.25-29.98-31.33-6.9-1.53-17.9-1.73-28.9-.8,21.61-20.84,56.33-20.62,77.64.7Z"/>
    </g>
  </g>
  <g>
    <g>
      <g>
        <g>
          <path class="cls-3" d="M811.04,554.12h0c21.55,21.55,20.24,55.59,0,78.38l-39.18,44.13-39.18-44.13c-20.24-22.79-21.55-56.82,0-78.38h0c21.54-21.55,56.81-21.55,78.37,0Z"/>
          <path class="cls-7" d="M771.86,554.12c21.18,0,38.35,17.17,38.35,38.36s-17.17,38.35-38.35,38.35-38.35-17.17-38.35-38.35,17.17-38.36,38.35-38.36Z"/>
          <path class="cls-7" d="M771.86,562.82c16.38,0,29.65,13.28,29.65,29.66s-13.27,29.65-29.65,29.65-29.66-13.28-29.66-29.65,13.28-29.66,29.66-29.66Z"/>
        </g>
        <path class="cls-8" d="M812.93,551.57h0c21.55,21.55,20.24,55.59,0,78.38l-39.18,44.13-39.18-44.13c-20.24-22.79-21.55-56.82,0-78.38h0c21.54-21.55,56.82-21.55,78.37,0Z"/>
        <path class="cls-5" d="M773.75,551.57c21.18,0,38.35,17.17,38.35,38.36s-17.17,38.35-38.35,38.35-38.35-17.17-38.35-38.35,17.17-38.36,38.35-38.36Z"/>
        <g class="cls-12">
          <path class="cls-9" d="M773.75,551.57c21.18,0,38.35,17.17,38.35,38.36s-17.17,38.35-38.35,38.35c-5.19,0-10.14-1.04-14.65-2.9,4.28-6.69,10.55-9.79,16.55-11.75,14.62-4.76,21.02-11.36,18.51-30.62-2.12-16.25-14.54-27-27.66-30.75,2.35-.45,4.76-.69,7.25-.69Z"/>
        </g>
      </g>
      <path class="cls-3" d="M774.91,684.21c9.84,0,17.83,7.98,17.83,17.82s-7.98,17.83-17.83,17.83-17.83-7.98-17.83-17.83,7.99-17.82,17.83-17.82Z"/>
      <path class="cls-8" d="M776.6,682.4c9.85,0,17.83,7.98,17.83,17.83s-7.98,17.83-17.83,17.83-17.82-7.99-17.82-17.83,7.98-17.83,17.82-17.83Z"/>
      <g class="cls-13">
        <path class="cls-4" d="M776.6,682.4c9.85,0,17.83,7.98,17.83,17.83,0,9.25-7.04,16.84-16.05,17.73-.03-3.98.54-8.8.54-14.38,0-11.84-11.18-13.69-13.06-17.58,2.99-2.26,6.71-3.6,10.74-3.6Z"/>
      </g>
    </g>
    <g class="cls-11">
      <path class="cls-6" d="M812.93,551.57h0c21.55,21.55,20.24,55.59,0,78.38l-39.18,44.13-20.13-22.66c-.09-2.82.05-6.07.42-9.89,1.81-18.77,12.06-24.77,21.61-27.89,14.62-4.76,21.02-11.36,18.51-30.62-2.24-17.21-16.03-28.25-29.98-31.33-6.9-1.53-17.9-1.73-28.9-.8,21.61-20.84,56.33-20.62,77.64.7Z"/>
    </g>
  </g>
  <g>
    <g>
      <g>
        <g>
          <path class="cls-3" d="M1354.45,1105.84h0c21.54,21.55,20.23,55.59,0,78.38l-39.18,44.12-39.18-44.12c-20.24-22.79-21.55-56.82,0-78.38h0c21.54-21.54,56.81-21.54,78.37,0Z"/>
          <path class="cls-7" d="M1315.26,1105.84c21.18,0,38.35,17.17,38.35,38.36s-17.17,38.35-38.35,38.35-38.35-17.17-38.35-38.35,17.17-38.36,38.35-38.36Z"/>
          <path class="cls-7" d="M1315.26,1114.55c16.37,0,29.65,13.28,29.65,29.66s-13.28,29.65-29.65,29.65-29.66-13.28-29.66-29.65,13.28-29.66,29.66-29.66Z"/>
        </g>
        <path class="cls-8" d="M1356.34,1103.29h0c21.55,21.55,20.24,55.59,0,78.38l-39.18,44.13-39.18-44.13c-20.24-22.79-21.55-56.82,0-78.38h0c21.54-21.54,56.81-21.54,78.37,0Z"/>
        <path class="cls-5" d="M1317.15,1103.29c21.18,0,38.35,17.17,38.35,38.36s-17.17,38.35-38.35,38.35-38.35-17.17-38.35-38.35,17.17-38.36,38.35-38.36Z"/>
        <g class="cls-12">
          <path class="cls-9" d="M1317.15,1103.29c21.18,0,38.35,17.17,38.35,38.36s-17.17,38.35-38.35,38.35c-5.19,0-10.14-1.03-14.65-2.9,4.29-6.69,10.56-9.79,16.56-11.74,14.62-4.76,21.02-11.35,18.51-30.63-2.12-16.25-14.54-27-27.66-30.74,2.35-.46,4.77-.69,7.24-.69Z"/>
        </g>
      </g>
      <path class="cls-3" d="M1318.32,1235.94c9.84,0,17.83,7.98,17.83,17.82s-7.98,17.83-17.83,17.83-17.83-7.98-17.83-17.83,7.98-17.82,17.83-17.82Z"/>
      <path class="cls-8" d="M1320,1234.13c9.85,0,17.83,7.98,17.83,17.83s-7.98,17.83-17.83,17.83-17.82-7.98-17.82-17.83,7.98-17.83,17.82-17.83Z"/>
      <g class="cls-13">
        <path class="cls-4" d="M1320,1234.13c9.85,0,17.83,7.98,17.83,17.83,0,9.25-7.04,16.84-16.05,17.74-.04-3.98.54-8.81.54-14.39,0-11.83-11.18-13.69-13.06-17.58,2.99-2.25,6.71-3.6,10.74-3.6Z"/>
      </g>
    </g>
    <g class="cls-11">
      <path class="cls-6" d="M1356.34,1103.29h0c21.55,21.55,20.24,55.59,0,78.38l-39.18,44.13-20.13-22.66c-.09-2.81.05-6.07.42-9.89,1.81-18.76,12.06-24.77,21.61-27.88,14.62-4.76,21.02-11.35,18.51-30.63-2.24-17.2-16.03-28.25-29.98-31.33-6.9-1.53-17.9-1.72-28.9-.8,21.61-20.84,56.33-20.61,77.64.7Z"/>
    </g>
  </g>
  <g>
    <g>
      <g>
        <g>
          <path class="cls-3" d="M1522.36,536.34h0c21.54,21.55,20.23,55.59,0,78.37l-39.19,44.13-39.18-44.13c-20.24-22.79-21.55-56.82,0-78.37h0c21.55-21.55,56.82-21.55,78.38,0Z"/>
          <path class="cls-7" d="M1483.17,536.34c21.18,0,38.36,17.17,38.36,38.35s-17.17,38.35-38.36,38.35-38.36-17.17-38.36-38.35,17.18-38.35,38.36-38.35Z"/>
          <path class="cls-7" d="M1483.17,545.04c16.38,0,29.65,13.28,29.65,29.65s-13.27,29.65-29.65,29.65-29.65-13.28-29.65-29.65,13.27-29.65,29.65-29.65Z"/>
        </g>
        <path class="cls-8" d="M1524.25,533.79h0c21.54,21.55,20.23,55.58,0,78.37l-39.18,44.13-39.18-44.13c-20.24-22.79-21.56-56.82,0-78.37h0c21.54-21.55,56.81-21.55,78.37,0Z"/>
        <path class="cls-5" d="M1485.07,533.79c21.17,0,38.35,17.17,38.35,38.35s-17.17,38.35-38.35,38.35-38.36-17.17-38.36-38.35,17.17-38.35,38.36-38.35Z"/>
        <g class="cls-12">
          <path class="cls-9" d="M1485.07,533.79c21.17,0,38.35,17.17,38.35,38.35s-17.17,38.35-38.35,38.35c-5.2,0-10.14-1.03-14.66-2.9,4.29-6.68,10.57-9.78,16.57-11.74,14.62-4.76,21.01-11.36,18.5-30.63-2.11-16.25-14.54-27.01-27.66-30.75,2.35-.45,4.77-.69,7.25-.69Z"/>
        </g>
      </g>
      <path class="cls-3" d="M1486.23,666.43c9.84,0,17.83,7.98,17.83,17.82s-7.99,17.83-17.83,17.83-17.83-7.98-17.83-17.83,7.99-17.82,17.83-17.82Z"/>
      <path class="cls-8" d="M1487.92,664.62c9.84,0,17.83,7.99,17.83,17.83s-7.98,17.83-17.83,17.83-17.83-7.99-17.83-17.83,7.98-17.83,17.83-17.83Z"/>
      <g class="cls-13">
        <path class="cls-4" d="M1487.92,664.62c9.84,0,17.83,7.99,17.83,17.83,0,9.24-7.04,16.85-16.06,17.73-.03-3.98.54-8.8.54-14.38,0-11.84-11.19-13.69-13.06-17.58,2.99-2.26,6.71-3.6,10.74-3.6Z"/>
      </g>
    </g>
    <g class="cls-11">
      <path class="cls-6" d="M1524.25,533.79h0c21.54,21.55,20.23,55.58,0,78.37l-39.18,44.13-20.13-22.66c-.09-2.82.05-6.07.42-9.89,1.8-18.76,12.05-24.77,21.61-27.88,14.62-4.76,21.01-11.36,18.5-30.63-2.24-17.21-16.03-28.25-29.98-31.33-6.89-1.53-17.9-1.73-28.9-.8,21.62-20.84,56.33-20.61,77.65.7Z"/>
    </g>
  </g>
  <g>
    <g>
      <g>
        <g>
          <path class="cls-3" d="M466.1,856.2h0c21.55,21.55,20.23,55.58,0,78.37l-39.18,44.13-39.18-44.13c-20.23-22.79-21.55-56.81,0-78.37h0c21.55-21.55,56.81-21.55,78.37,0Z"/>
          <path class="cls-7" d="M426.92,856.2c21.18,0,38.35,17.17,38.35,38.35s-17.17,38.35-38.35,38.35-38.35-17.17-38.35-38.35,17.17-38.35,38.35-38.35Z"/>
          <path class="cls-7" d="M426.92,864.9c16.37,0,29.65,13.28,29.65,29.65s-13.28,29.65-29.65,29.65-29.65-13.27-29.65-29.65,13.28-29.65,29.65-29.65Z"/>
        </g>
        <path class="cls-8" d="M467.99,853.64h0c21.55,21.56,20.23,55.59,0,78.38l-39.19,44.13-39.18-44.13c-20.23-22.79-21.55-56.81,0-78.38h0c21.55-21.54,56.82-21.54,78.37,0Z"/>
        <path class="cls-5" d="M428.81,853.64c21.18,0,38.35,17.18,38.35,38.36s-17.17,38.36-38.35,38.36-38.35-17.17-38.35-38.36,17.17-38.36,38.35-38.36Z"/>
        <g class="cls-12">
          <path class="cls-9" d="M428.81,853.64c21.18,0,38.35,17.18,38.35,38.36s-17.17,38.36-38.35,38.36c-5.19,0-10.13-1.04-14.65-2.91,4.29-6.69,10.56-9.79,16.56-11.74,14.61-4.76,21.01-11.35,18.5-30.63-2.11-16.25-14.54-27-27.66-30.74,2.34-.45,4.76-.69,7.24-.69Z"/>
        </g>
      </g>
      <path class="cls-3" d="M429.97,986.29c9.85,0,17.83,7.99,17.83,17.83s-7.98,17.83-17.83,17.83-17.83-7.99-17.83-17.83,7.98-17.83,17.83-17.83Z"/>
      <path class="cls-8" d="M431.66,984.49c9.84,0,17.83,7.98,17.83,17.82s-7.98,17.83-17.83,17.83-17.83-7.98-17.83-17.83,7.98-17.82,17.83-17.82Z"/>
      <g class="cls-13">
        <path class="cls-4" d="M431.66,984.49c9.84,0,17.83,7.98,17.83,17.82,0,9.25-7.04,16.85-16.06,17.74-.04-3.99.54-8.81.54-14.38,0-11.84-11.19-13.7-13.06-17.59,2.98-2.25,6.7-3.59,10.74-3.59Z"/>
      </g>
    </g>
    <g class="cls-11">
      <path class="cls-6" d="M467.99,853.64h0c21.55,21.56,20.23,55.59,0,78.38l-39.19,44.13-20.12-22.66c-.09-2.81.05-6.07.42-9.89,1.81-18.76,12.05-24.76,21.61-27.88,14.61-4.76,21.01-11.35,18.5-30.63-2.23-17.2-16.03-28.25-29.98-31.33-6.89-1.52-17.89-1.72-28.9-.8,21.61-20.84,56.33-20.61,77.65.7Z"/>
    </g>
  </g>
</svg>