<svg width="150" height="150" viewBox="0 0 150 150" fill="none" xmlns="http://www.w3.org/2000/svg">
<g clip-path="url(#clip0_1946_1641)">
<path d="M75 0C33.5786 0 0 33.5786 0 75C0 116.421 33.5786 150 75 150C116.421 150 150 116.421 150 75C150 33.5786 116.421 0 75 0Z" fill="#F39C19" fill-opacity="0.16"/>
<path d="M123.199 102.845C122.39 123.099 105.029 135.643 74.9963 135.643C44.964 135.643 26.7937 123.116 26.7937 102.845C26.7937 87.174 39.2446 63.7548 57.7219 53.9313C61.3634 55.8028 67.1699 57.0588 73.7852 57.1919H73.7935C74.1958 57.2044 74.5982 57.2085 75.0088 57.2085C79.0319 57.2085 82.7937 56.7968 86.0039 56.0815C88.6127 55.4951 90.8606 54.7132 92.5777 53.7857C110.976 63.4346 123.846 86.7082 123.199 102.845Z" stroke="#071C26" stroke-width="6" stroke-miterlimit="10"/>
<path d="M102.222 23.2973C102.222 25.4464 91.3316 28.1225 88.0298 29.6623C83.7469 31.6619 82.2835 37.5 75.008 37.5C68.7671 37.5 66.9657 31.2957 62.7776 29.767C58.3175 28.1374 47.7937 25.8426 47.7937 23.2973C47.7937 20.4755 58.9523 21.4697 64.2863 19.8326C68.2848 18.603 69.4843 14.3571 75.008 14.3571C80.8119 14.3571 82.4154 18.6815 86.4963 20.0232C91.4841 21.664 102.222 20.5839 102.222 23.2973Z" stroke="#071C26" stroke-width="6" stroke-miterlimit="10"/>
<path d="M102.222 23.3571C102.222 30.4303 100.322 37.5077 94.6046 42.2087C92.2467 44.1515 89.2376 45.6867 85.4411 46.6538C82.5638 47.3824 79.2332 47.7857 75.3955 47.7857H75.346C66.0753 47.777 59.7149 45.587 55.465 42.1306C49.6734 37.4297 47.7937 30.3956 47.7937 23.3571" stroke="#071C26" stroke-width="6" stroke-miterlimit="10"/>
<path d="M55.3401 42.3193C54.291 43.7541 53.7104 45.3298 53.7104 46.9844C53.7104 49.6342 55.195 52.0808 57.7162 54.0795" stroke="#071C26" stroke-width="6" stroke-miterlimit="10"/>
<path d="M94.7137 42.3939C95.7297 43.808 96.2895 45.3589 96.2895 46.9844C96.2895 49.5305 94.9169 51.8942 92.5698 53.8473" stroke="#071C26" stroke-width="6" stroke-miterlimit="10"/>
<path d="M82.1823 56.9408C82.1823 56.9408 96.0449 66.8267 102.377 91.8152" stroke="#071C26" stroke-width="6" stroke-linecap="round" stroke-linejoin="round"/>
<path d="M79.611 57.3693C79.611 57.3693 87.4981 67.0769 89.4181 86.0774" stroke="#071C26" stroke-width="6" stroke-linecap="round" stroke-linejoin="round"/>
<path d="M61.6544 62.7871C61.6544 98.7855 105.008 102 112.937 102C112.302 117.774 98.6025 126.415 75.1486 126.415C51.6944 126.415 37.5079 116.662 37.5079 100.875C37.5081 88.6711 47.228 70.4337 61.6544 62.7871ZM75.1398 111.643C72.7732 111.643 70.8551 113.561 70.8546 115.928C70.8546 118.295 72.7729 120.214 75.1398 120.214C77.5065 120.214 79.4259 118.295 79.4259 115.928C79.4255 113.561 77.5062 111.643 75.1398 111.643ZM54.6398 95.501C54.4861 94.9709 53.7405 94.9753 53.5948 95.501L51.5333 102.933C51.4794 103.115 51.3423 103.256 51.1603 103.31L43.7501 105.441C43.2195 105.595 43.2235 106.341 43.7501 106.486L51.1808 108.547C51.3629 108.601 51.5047 108.738 51.5587 108.92L53.6896 116.33C53.843 116.861 54.5894 116.857 54.7345 116.33L56.796 108.899C56.85 108.717 56.9869 108.576 57.1691 108.522L64.5792 106.391C65.1093 106.237 65.1053 105.491 64.5792 105.346L57.1486 103.285C56.9661 103.231 56.8245 103.094 56.7706 102.911L54.6398 95.501ZM68.6886 91.8594C68.6149 91.6084 68.2624 91.6085 68.1915 91.8594L67.2101 95.3926C67.1855 95.4781 67.1208 95.5456 67.0323 95.5732L63.5089 96.5879C63.2575 96.6615 63.2576 97.0144 63.5089 97.085L67.0421 98.0664C67.1276 98.091 67.1952 98.1556 67.2228 98.2441L68.2374 101.768C68.311 102.019 68.664 102.019 68.7345 101.768L69.7159 98.2354C69.7406 98.1497 69.805 98.0813 69.8937 98.0537L73.4171 97.0391C73.6679 96.9651 73.6681 96.6127 73.4171 96.542L69.8849 95.5605C69.799 95.536 69.7318 95.4717 69.7042 95.3828L68.6886 91.8594ZM52.6056 81.2139C50.239 81.2141 48.3207 83.1334 48.3204 85.5C48.3207 87.8666 50.239 89.7849 52.6056 89.7852C54.9722 89.7849 56.8915 87.8666 56.8917 85.5C56.8915 83.1334 54.9722 81.2141 52.6056 81.2139Z" fill="#F39C19"/>
</g>
<defs>
<clipPath id="clip0_1946_1641">
<rect width="150" height="150" fill="white"/>
</clipPath>
</defs>
</svg>
