<svg fill="none" height="50" viewBox="0 0 52 50" width="52" xmlns="http://www.w3.org/2000/svg" xmlns:xlink="http://www.w3.org/1999/xlink"><clipPath id="a"><path d="m0 0h51.4255v50h-51.4255z"/></clipPath><g clip-path="url(#a)" fill="#7dc244"><path d="m51.082 31.0874-4.3279-4.4874 1.4769-1.5337c1.4255-1.4769 1.4255-3.8951 0-5.3746l-3.1242-3.2405c1.1929-1.4877 1.1172-3.7192-.2272-5.1122l-4.225-4.38198c-1.4255-1.47687-3.7571-1.47687-5.1826 0l-4.225 4.38198c-.8575.8899-1.1956 2.1206-1.0198 3.2783l2.9078 3.0159c1.815 1.8827 1.815 4.9635 0 6.8461l-1.8826 1.953 5.5125 5.7154c1.1415 1.1821-.1352 4.5767-1.6364 7.2735l1.2199-.0108v3.684c0 1.1009.8683 2.0017 1.9313 2.0017s1.9313-.9008 1.9313-2.0017v-3.7165l7.8631-.0676c1.3795-1.4309 4.363-6.8218 3.0106-8.2283z"/><path d="m33.1864 32.1477-5.5126-5.7154 1.8826-1.953c1.815-1.8826 1.815-4.9635 0-6.8461l-3.9816-4.1276c1.5201-1.8962 1.4228-4.73631-.2894-6.51342l-5.3828-5.58291c-1.815-1.882607-4.7849-1.882607-6.6026 0l-5.38277 5.58291c-1.75548 1.82039-1.80687 4.75522-.17041 6.65132l-4.10062 4.2521c-1.81498 1.8826-1.81498 4.9635 0 6.8461l1.75277 1.8177-4.936431 5.1204c-1.758179 1.8231 1.944821 9.3724 3.670541 11.1631l10.28132-.0866v4.693c0 1.4038 1.1063 2.5507 2.4614 2.5507 1.3552 0 2.4615-1.1469 2.4615-2.5507v-4.7336l10.0162-.0838c1.7582-1.8231 5.5586-8.6908 3.8329-10.4815z"/></g></svg>