<svg fill="none" height="50" viewBox="0 0 52 50" width="52" xmlns="http://www.w3.org/2000/svg" xmlns:xlink="http://www.w3.org/1999/xlink"><clipPath id="a"><path d="m0 0h51.0228v50h-51.0228z"/></clipPath><g clip-path="url(#a)" fill="#7dc244"><path d="m42.0057 36.4814h2.9943v3.3847h-2.9943z"/><path d="m42.0057 22.9686h2.9943v3.3846h-2.9943z"/><path d="m50.5527 13.1794-12.0057-12.7236c-.5755-.609687-1.47-.609687-2.0455 0l-2.7978 2.96296 6.8861 7.29344c.9031.9601 1.4159 2.2963 1.4188 3.6952v5.1738h4.4843c.8262 0 1.4929.7549 1.4929 1.6866v6.7578c0 .9316-.6695 1.6866-1.4929 1.6866h-4.4843v3.3846h4.4843c.8262 0 1.4929.755 1.4929 1.6866v6.7664c0 .9316-.6695 1.6895-1.4929 1.6895h-4.4843v6.755h7.5242c.8262 0 1.4957-.755 1.4957-1.6866v-33.8975c0-.4672-.1709-.9117-.4729-1.2308z"/><path d="m14.5271.4558c-.5755-.609687-1.4701-.609687-2.0456 0l-12.008565 12.7236c-.301995.3191-.472935.7636-.472935 1.2308v33.8946c0 .9316.669516 1.6866 1.49573 1.6866h7.52421v-6.755h-4.48433c-.82621 0-1.49287-.7578-1.49287-1.6894v-6.7664c0-.9316.66951-1.6866 1.49287-1.6866h4.48433v-3.3846h-4.48433c-.82621 0-1.49287-.755-1.49287-1.6866v-6.7436c0-.9317.66951-1.6895 1.49287-1.6895h4.48433v-5.1738c0-1.3988.50998-2.735 1.41026-3.6951l6.886-7.29634z"/><path d="m6.02844 36.4814h2.9943v3.3847h-2.9943z"/><path d="m6.02844 22.9686h2.9943v3.3846h-2.9943z"/><path d="m24.0171 39.8575h2.9943v10.1339h-2.9943z"/><path d="m24.0171 22.9686h2.9943v3.3846h-2.9943z"/><path d="m26.5328.4558c-.5755-.609687-1.4672-.609687-2.0427 0l-12.0114 12.7208c-.302.3191-.473.7664-.473 1.2308v35.5812h9.0171v-10.1339h-.547c-.8262 0-1.4986-.7579-1.4986-1.6923 0-.9345.6696-1.6924 1.4986-1.6924h10.0656c.8262 0 1.4985.7579 1.4985 1.6924 0 .9344-.6695 1.6923-1.4985 1.6923h-.5471v10.1339h9.0171v-35.5784c0-.4672-.1709-.9117-.4729-1.2308zm4.0114 29.2678h-10.0655c-.8262 0-1.4986-.7578-1.4986-1.6923s.6695-1.6923 1.4986-1.6923h.547v-5.0598c0-.9345.6695-1.6895 1.4957-1.6895h5.9829c.8262 0 1.4957.7578 1.4957 1.6895v5.0683h.5471c.8262 0 1.4985.7579 1.4985 1.6923 0 .9345-.6695 1.6924-1.4985 1.6924l-.0057-.0057z"/></g></svg>