<svg fill="none" height="50" viewBox="0 0 44 50" width="44" xmlns="http://www.w3.org/2000/svg" xmlns:xlink="http://www.w3.org/1999/xlink"><clipPath id="a"><path d="m0 0h43.6845v50h-43.6845z"/></clipPath><g clip-path="url(#a)" fill="#6CC24A"><path d="m21.8423 5.34808-16.95682 5.39342c-.34295 3.161-2.37802 28.0089 16.95682 34.0753 19.3445-6.0728 17.2997-30.9143 16.9567-34.0753l-16.9567-5.39665zm8.9426 12.50162-10.295 16.8435-7.3477-7.3476c-.6535-.6535-.6535-1.7115 0-2.3618.6536-.6536 1.7083-.6536 2.3619 0l4.3484 4.3451 8.082-13.2231c.4821-.7862 1.511-1.0353 2.2972-.5532.7862.482 1.0353 1.5077.5532 2.2971z"/><path d="m43.3286 6.83642-21.3052-6.7781826-.1812-.0582374-.1811.0582374-21.301976 6.7781826s-4.866054 34.89708 21.305176 43.09888c0 0 .1165.0809.1812.0615.0614.0194.1812-.0615.1812-.0615 26.1712-8.1985 21.3051-43.09888 21.3051-43.09888zm-21.1013 39.82468c-.0939.0517-.2201.1003-.3656.1003h-.0324c-.1456 0-.2718-.0486-.3656-.1003-22.324325-7.0532-18.4386-36.84487-18.39654-37.14253l.04853-.34619 18.72651-5.95962 18.7266 5.95962.0485.34619c.0421.30089 3.9278 30.09253-18.39 37.14253z"/></g></svg>