<?xml version="1.0" encoding="utf-8"?>
<!-- Generator: Adobe Illustrator 27.0.0, SVG Export Plug-In . SVG Version: 6.00 Build 0)  -->
<svg version="1.1" xmlns="http://www.w3.org/2000/svg" xmlns:xlink="http://www.w3.org/1999/xlink" x="0px" y="0px"
	 viewBox="0 0 200 200" style="enable-background:new 0 0 200 200;" xml:space="preserve">
<style type="text/css">
	.st0{fill:#5AB6E7;}
	.st1{fill:#FFFFFF;}
	.st2{fill:none;stroke:#FFFFFF;stroke-width:4;stroke-miterlimit:10;}
	.st3{display:none;}
	.st4{display:inline;fill:#F8D618;}
	.st5{display:inline;}
	.st6{display:inline;fill:#C3DFF4;}
</style>
<g id="rain">
	<circle class="st0" cx="100.5" cy="99.7" r="98"/>
	<g>
		<path class="st1" d="M156.7,78.4c-1.7-10.2-11.3-17.1-21.5-15.5c-0.3,0-0.6,0.1-0.9,0.2c-5.8-15-21.5-24.4-38.1-21.7
			C87,42.9,79.1,48,73.9,55.1c-3.4-0.8-7-1-10.7-0.4c-14.7,2.4-24.7,16.3-22.3,31c2.4,14.7,16.3,24.7,31,22.3c3.7-0.6,7-1.9,10-3.8
			c7.2,5.1,16.3,7.4,25.7,5.9c8.8-1.4,16.3-6.1,21.6-12.5c3.6,2,7.8,2.9,12.2,2.2C151.5,98.2,158.4,88.6,156.7,78.4z"/>
		<line class="st2" x1="135.8" y1="112.7" x2="146.1" y2="151.7"/>
		<line class="st2" x1="116.3" y1="125.3" x2="126.6" y2="164.3"/>
		<line class="st2" x1="92.2" y1="118.5" x2="102.5" y2="157.4"/>
		<line class="st2" x1="72.7" y1="122" x2="83" y2="161"/>
	</g>
</g>
<g id="Layer_2" class="st3">
	<circle class="st4" cx="100.3" cy="99.6" r="98.1"/>
	<g class="st5">
		<g>
			<path class="st1" d="M47.5,100.1c0-0.9,0-1.8,0.1-2.7H26c-1.5,0-2.7,1.2-2.7,2.7c0,1.5,1.2,2.7,2.7,2.7h21.6
				C47.5,101.9,47.5,101,47.5,100.1z"/>
			<path class="st1" d="M98.9,48.7c0.9,0,1.8,0,2.7,0.1V27.1c0-1.5-1.2-2.7-2.7-2.7c-1.5,0-2.7,1.2-2.7,2.7v21.6
				C97.2,48.7,98,48.7,98.9,48.7z"/>
			<path class="st1" d="M60.7,65.7c1.2-1.3,2.4-2.6,3.8-3.8L49.2,46.6c-1-1-2.7-1-3.8,0c-1,1-1,2.7,0,3.8L60.7,65.7z"/>
			<path class="st1" d="M137.1,65.7l15.3-15.3c1-1,1-2.7,0-3.8c-1-1-2.7-1-3.8,0l-15.3,15.3C134.7,63.1,136,64.3,137.1,65.7z"/>
			<path class="st1" d="M137.1,134.6c-1.2,1.3-2.4,2.6-3.8,3.8l15.3,15.3c0.5,0.5,1.2,0.8,1.9,0.8c0.7,0,1.4-0.3,1.9-0.8
				c1-1,1-2.7,0-3.8L137.1,134.6z"/>
			<path class="st1" d="M171.9,97.4h-21.6c0,0.9,0.1,1.8,0.1,2.7c0,0.9,0,1.8-0.1,2.7h21.6c1.5,0,2.7-1.2,2.7-2.7
				C174.6,98.6,173.4,97.4,171.9,97.4z"/>
			<path class="st1" d="M60.7,134.6l-15.3,15.3c-1,1-1,2.7,0,3.8c0.5,0.5,1.2,0.8,1.9,0.8c0.7,0,1.4-0.3,1.9-0.8l15.3-15.3
				C63.2,137.1,61.9,135.9,60.7,134.6z"/>
			<path class="st1" d="M98.9,151.6c-0.9,0-1.8,0-2.7-0.1v21.6c0,1.5,1.2,2.7,2.7,2.7c1.5,0,2.7-1.2,2.7-2.7v-21.6
				C100.7,151.5,99.8,151.6,98.9,151.6z"/>
		</g>
		<g>
			<circle class="st1" cx="98.9" cy="100.1" r="41.8"/>
		</g>
	</g>
</g>
<g id="Layer_3" class="st3">
	<circle class="st6" cx="99.7" cy="100" r="98.8"/>
	<g class="st5">
		<g>
			<line class="st2" x1="99" y1="29.7" x2="99.4" y2="86.2"/>
			<line class="st2" x1="124.1" y1="43" x2="100.4" y2="59.7"/>
			<line class="st2" x1="74.3" y1="43.3" x2="98.1" y2="59.9"/>
		</g>
		<g>
			<line class="st2" x1="37" y1="65.3" x2="86.1" y2="93.2"/>
			<line class="st2" x1="61.1" y1="50.2" x2="63.6" y2="79.1"/>
			<line class="st2" x1="36.4" y1="93.5" x2="62.7" y2="81.2"/>
		</g>
		<g>
			<line class="st2" x1="39.6" y1="137.5" x2="88.3" y2="109"/>
			<line class="st2" x1="38.5" y1="109.1" x2="64.8" y2="121.4"/>
			<line class="st2" x1="63.7" y1="152.2" x2="66.2" y2="123.3"/>
		</g>
		<g>
			<line class="st2" x1="99.4" y1="171.6" x2="99" y2="115.2"/>
			<line class="st2" x1="74.3" y1="158.4" x2="98.1" y2="141.7"/>
			<line class="st2" x1="124.1" y1="158.1" x2="100.4" y2="141.5"/>
		</g>
		<g>
			<line class="st2" x1="160" y1="137.4" x2="110.9" y2="109.5"/>
			<line class="st2" x1="136" y1="152.5" x2="133.4" y2="123.6"/>
			<line class="st2" x1="160.7" y1="109.3" x2="134.4" y2="121.5"/>
		</g>
		<g>
			<line class="st2" x1="161.5" y1="66.3" x2="112.8" y2="94.9"/>
			<line class="st2" x1="162.6" y1="94.7" x2="136.3" y2="82.4"/>
			<line class="st2" x1="137.4" y1="51.7" x2="134.9" y2="80.6"/>
		</g>
		<circle class="st2" cx="99.2" cy="100.9" r="16.9"/>
	</g>
</g>
</svg>
