<svg viewBox="0 0 280.45 267.91" xmlns="http://www.w3.org/2000/svg"><g fill="#fff"><path d="m232.9 246.85c2.72-.47 2.01-1.26 4.6-1.26s5.04 1.03 6.87 2.83c1.83 1.83 2.86 4.28 2.86 6.84v1.32c0 2.6-1.03 5.04-2.86 6.87-1.83 1.8-4.28 2.83-6.87 2.83h-194.7c-2.57 0-5.04-1.03-6.87-2.83-1.83-1.83-2.86-4.28-2.86-6.87v-161.37c0-2.57 1.03-5.01 2.86-6.84s4.31-2.83 6.87-2.83 5.07 1 6.9 2.83 2.83 4.28 2.83 6.84v151.71h175.24"/><path d="m269.94 124.26c-2.21 0-4.34-.74-6.08-2.12l-123.71-98.44-123.72 98.44c-2.01 1.53-4.57 2.24-7.08 1.95-2.54-.32-4.84-1.59-6.43-3.57s-2.36-4.51-2.09-7.02 1.47-4.84 3.45-6.46l129.79-103.31c1.71-1.36 3.86-2.12 6.08-2.12s4.36.77 6.08 2.12l129.82 103.31c1.56 1.24 2.71 2.95 3.24 4.9.56 1.92.5 3.95-.18 5.87-.65 1.89-1.89 3.51-3.54 4.69-1.65 1.15-3.6 1.77-5.63 1.77z"/><path d="m102.05 166.14 6 35-8.45 1.45-6-35zm-3.15.54 7.45-1.28c3-.51 5.58-.46 7.75.16s3.91 1.71 5.24 3.25 2.19 3.44 2.57 5.71c.38 2.23.21 4.3-.53 6.19s-2.03 3.5-3.86 4.81-4.25 2.22-7.25 2.74l-7.45 1.28-1.12-6.55 6.85-1.17c1.13-.19 2.08-.54 2.83-1.03s1.29-1.11 1.61-1.87.39-1.62.23-2.59c-.17-.97-.52-1.75-1.07-2.36s-1.27-1.03-2.15-1.25-1.89-.24-3.02-.05l-6.85 1.17-1.23-7.15zm15.48 17.06 13.67 13.97-9.9 1.7-12.57-14.16z"/><path d="m134.05 160.65 6 35-8.1 1.39-6-35zm-2.5.43 17.65-3.03 1.19 6.95-17.65 3.03zm2.26 13.2 16.65-2.85 1.17 6.8-16.65 2.85zm2.55 14.85 17.65-3.03 1.19 6.95-17.65 3.03z"/><path d="m188.4 151.33 6.3 36.75-27.88-17.3 3.38 19.7-8.1 1.39-6.3-36.75 27.83 17.31-3.38-19.7z"/><path d="m192.3 150.66 27.7-4.75 1.29 7.55-9.65 1.66 4.71 27.45-8.45 1.45-4.71-27.45-9.6 1.65-1.29-7.55z"/><path d="m75.3 225.06-11.96-69.76c-.39-2.3.15-4.68 1.48-6.59 1.36-1.92 3.42-3.22 5.71-3.62l159.92-27.42c2.3-.39 4.65.15 6.57 1.51s3.2 3.42 3.59 5.72l11.96 69.76c.39 2.3-.12 4.67-1.48 6.59s-3.39 3.22-5.69 3.61l-159.92 27.42c-2.3.39-4.68-.15-6.59-1.51-1.89-1.36-3.2-3.42-3.59-5.72zm6.89-64.02 8.97 52.33 142.57-24.44-8.97-52.33z"/><path d="m143.72 101.66c-1.24 0-2.45-.22-3.61-.69-1.13-.5-2.17-1.18-3.08-2.06-.88-.88-1.57-1.93-2.01-3.11-.5-1.13-.77-2.34-.74-3.58 0-1.38.3-2.75.91-4.02.58-1.27 1.46-2.37 2.53-3.28 1.07-.88 2.34-1.51 3.69-1.84 1.35-.36 2.75-.39 4.13-.11.63.14 1.21.3 1.82.5.55.25 1.07.55 1.6.88 1.29.88 2.34 2.04 3.08 3.41.74 1.38 1.13 2.92 1.13 4.46 0 1.24-.25 2.45-.69 3.58-.74 1.73-1.95 3.22-3.5 4.27-1.57 1.05-3.39 1.6-5.26 1.6z"/><g stroke="#fff" stroke-miterlimit="10" stroke-width="3"><path d="m133.4 107.83-31.22 37.32"/><path d="m158.88 104.04 34.45 25.98"/></g></g></svg>