<svg viewBox="0 0 280.45 267.91" xmlns="http://www.w3.org/2000/svg" xmlns:xlink="http://www.w3.org/1999/xlink"><clipPath id="a"><path d="m3.07 0h274.29v267.91h-274.29z"/></clipPath><g clip-path="url(#a)" fill="#fff"><path d="m109.87 177.07c-4.6 0-9.17-.5-13.66-1.51-13.16-3.15-24.93-10.54-33.52-21s-13.52-23.42-14.08-36.97l-1.17-20.91c-.45-8.34.78-16.67 3.65-24.51s7.31-15 13.05-21.08c5.74-6.05 12.66-10.9 20.33-14.19 7.67-3.32 15.92-5.02 24.29-5.02h2.48c8.34 0 16.62 1.7 24.29 5.02 7.67 3.29 14.58 8.11 20.3 14.19 5.74 6.05 10.18 13.25 13.05 21.08 2.87 7.84 4.13 16.17 3.65 24.51l-1.28 22.42c-.84 15.7-7.7 30.45-19.13 41.24s-26.57 16.79-42.27 16.73h.03zm-1.12-126.04c-5.74 0-11.43 1.17-16.73 3.43-5.27 2.29-10.04 5.6-13.97 9.79-3.96 4.15-7.03 9.09-8.98 14.5-1.98 5.38-2.84 11.13-2.54 16.87l1.17 20.91c.31 9.37 3.68 18.38 9.56 25.65 5.88 7.28 13.97 12.46 23.06 14.72 6.02 1.39 12.24 1.48 18.29.2 6.05-1.25 11.74-3.85 16.67-7.56 4.94-3.68 9.01-8.42 11.93-13.86 2.9-5.44 4.6-11.46 4.94-17.62l1.28-22.42c.33-5.74-.53-11.49-2.51-16.9s-5.02-10.34-8.98-14.53c-3.96-4.15-8.73-7.5-14-9.76-5.3-2.29-10.99-3.43-16.73-3.43h-2.48z"/><path d="m187.19 267.88h-151.38c-8.67 0-17.01-3.46-23.14-9.59-6.14-6.13-9.59-14.47-9.59-23.14 0-10.74 2.2-21.36 6.44-31.23 4.21-9.87 10.4-18.79 18.15-26.21 15.87-15.09 36.92-23.42 58.81-23.31 2.54 0 4.96 1.03 6.78 2.82 1.78 1.78 2.79 4.24 2.79 6.78s-1 4.96-2.79 6.75c-1.81 1.81-4.24 2.82-6.78 2.82-16.93-.03-33.24 6.41-45.62 17.99-5.88 5.63-10.57 12.41-13.77 19.91-3.21 7.5-4.85 15.56-4.88 23.7 0 3.6 1.45 7.05 3.99 9.62 2.57 2.57 6.02 3.99 9.62 3.99h151.37c3.63 0 7.08-1.42 9.62-3.99 2.57-2.57 3.99-6.02 3.99-9.62 0-8.14-1.67-16.2-4.88-23.7s-7.89-14.28-13.77-19.91c-12.35-11.57-28.67-18.01-45.62-17.99-2.54 0-4.96-1-6.75-2.82-1.81-1.78-2.82-4.21-2.82-6.75s1-4.99 2.82-6.78c1.78-1.78 4.21-2.82 6.75-2.82 21.89-.11 42.97 8.23 58.84 23.31 7.75 7.42 13.91 16.34 18.15 26.21 4.21 9.87 6.41 20.49 6.44 31.23-.03 8.67-3.46 17.01-9.62 23.14-6.13 6.13-14.44 9.59-23.14 9.59z"/><path d="m190.59 119.09c-12.02.03-23.67-4.24-32.85-12.05-1.81-1.67-2.93-3.99-3.07-6.47-.17-2.45.64-4.91 2.26-6.78 1.62-1.9 3.88-3.1 6.33-3.32 2.48-.25 4.94.47 6.89 2.01 3.65 3.1 8 5.33 12.66 6.52 4.66 1.17 9.51 1.28 14.22.33 6.94-1.65 13.16-5.52 17.68-11.01 4.54-5.49 7.14-12.32 7.42-19.46l.92-16.42c.25-4.29-.39-8.59-1.87-12.6-1.48-4.04-3.76-7.72-6.69-10.85-2.96-3.12-6.5-5.6-10.46-7.31-3.93-1.7-8.17-2.57-12.46-2.57h-1.98c-4.29 0-8.53.86-12.49 2.57-3.93 1.67-7.5 4.15-10.43 7.28-2.96 3.12-5.24 6.8-6.72 10.85-1.48 4.02-2.12 8.31-1.87 12.58l.08 1.51c.14 2.54-.75 5.05-2.45 6.94-1.7 1.87-4.07 3.01-6.61 3.15s-5.02-.73-6.92-2.43-3.04-4.07-3.18-6.61l-.06-1.51c-.39-6.89.64-13.77 3.01-20.24s6.05-12.41 10.79-17.4c4.74-5.02 10.43-9.01 16.79-11.71 6.34-2.72 13.17-4.12 20.06-4.09h1.98c6.89 0 13.69 1.39 20.02 4.13 6.33 2.71 12.05 6.69 16.79 11.71 4.74 4.99 8.39 10.93 10.76 17.4s3.4 13.36 3.01 20.22l-.92 16.45c-.42 11.4-4.66 22.31-11.99 31.04s-17.34 14.78-28.5 17.18c-3.35.64-6.75.98-10.15.98z"/><path d="m228.18 191.34c-1.26 0-2.48-.22-3.65-.7-1.14-.5-2.2-1.2-3.12-2.09-.89-.89-1.59-1.95-2.04-3.15-.5-1.14-.78-2.37-.75-3.62 0-1.39.31-2.79.92-4.07.59-1.28 1.48-2.4 2.57-3.32 1.09-.89 2.37-1.53 3.74-1.87 1.37-.36 2.79-.39 4.18-.11.64.14 1.23.31 1.84.5.56.25 1.09.56 1.62.89 1.31.89 2.37 2.06 3.12 3.46.75 1.39 1.14 2.96 1.14 4.52 0 1.25-.25 2.48-.7 3.62-.75 1.76-1.98 3.26-3.54 4.32-1.59 1.06-3.43 1.62-5.33 1.62z"/><path d="m264.29 183.62c-1.76 0-3.49-.47-4.99-1.39-1.51-.92-2.73-2.23-3.51-3.79-.81-1.59-1.17-3.35-1.03-5.1.14-1.76.75-3.43 1.76-4.85 1.12-1.53 1.7-3.37 1.7-5.27 0-6.13-1.25-12.24-3.65-17.9-2.4-5.69-5.91-10.82-10.32-15.11-9.2-8.78-21.41-13.66-34.13-13.66-2.54 0-4.96-1-6.78-2.82-1.78-1.78-2.79-4.21-2.79-6.75s1-4.99 2.79-6.78c1.81-1.78 4.24-2.79 6.78-2.79 17.71-.11 34.74 6.75 47.46 19.04 6.25 6.11 11.21 13.36 14.61 21.39s5.16 16.67 5.16 25.37c.03 5.91-1.84 11.66-5.27 16.42-.89 1.25-2.06 2.26-3.4 2.96-1.37.67-2.87 1.03-4.38 1.03z"/></g></svg>