<svg viewBox="0 0 280.45 267.91" xmlns="http://www.w3.org/2000/svg" xmlns:xlink="http://www.w3.org/1999/xlink"><clipPath id="a"><path d="m.68 1.66h278.57v265.62h-278.57z"/></clipPath><g clip-path="url(#a)" fill="#fff"><path d="m269.52 134.45c-2.56 0-5.03-1.03-6.85-2.85-1.84-1.82-2.85-4.29-2.85-6.85 0-.65.05-1.27.19-1.89.12-.62.31-1.22.5-1.82.26-.58.57-1.13.91-1.68.38-.53.79-1.03 1.25-1.49 1.84-1.75 4.31-2.73 6.85-2.73s5.01.98 6.87 2.73c.46.46.86.96 1.25 1.49.34.53.62 1.1.84 1.68.26.6.45 1.2.57 1.82.14.62.19 1.25.19 1.89 0 2.56-1.03 5.03-2.85 6.85s-4.29 2.85-6.87 2.85z"/><path d="m144.63 189.52h-134.23c-2.59 0-5.05-1.01-6.87-2.83-1.82-1.84-2.85-4.31-2.85-6.87v-168.46c0-2.56 1.03-5.03 2.85-6.87 1.82-1.82 4.29-2.83 6.87-2.83h259.14c2.56 0 5.03 1.01 6.85 2.83 1.84 1.84 2.85 4.31 2.85 6.87v82.21c0 2.59-1.01 5.05-2.85 6.87-1.82 1.82-4.29 2.85-6.85 2.85s-5.05-1.03-6.87-2.85-2.85-4.29-2.85-6.87v-72.48h-239.72v149h124.53c2.56 0 5.03 1.03 6.85 2.85 1.84 1.82 2.85 4.29 2.85 6.87s-1.01 5.03-2.85 6.87-4.29 2.83-6.85 2.83z"/><path d="m139.96 137.71c-8.31 0-16.45-2.47-23.38-7.11-6.95-4.62-12.34-11.19-15.52-18.9-3.19-7.69-4.02-16.14-2.4-24.31 1.63-8.17 5.63-15.69 11.52-21.58 5.89-5.87 13.39-9.89 21.56-11.52s16.65-.79 24.34 2.4 14.28 8.6 18.9 15.52 7.09 15.07 7.09 23.4c0 11.16-4.46 21.84-12.34 29.75-7.9 7.9-18.61 12.34-29.77 12.36zm0-64.79c-4.48 0-8.86 1.32-12.6 3.81-3.71 2.49-6.63 6.04-8.34 10.18-1.72 4.14-2.18 8.72-1.29 13.1.86 4.41 3.02 8.46 6.2 11.62 3.16 3.16 7.21 5.32 11.62 6.2 4.38.89 8.96.43 13.1-1.29 4.12-1.7 7.66-4.62 10.16-8.36 2.49-3.71 3.83-8.1 3.83-12.57 0-6.04-2.4-11.78-6.63-16.05-4.26-4.24-10.04-6.63-16.05-6.63z"/><path d="m230.67 59.96h-12.96c-2.59 0-5.05-1.03-6.87-2.85s-2.85-4.29-2.85-6.87 1.03-5.05 2.85-6.87 4.29-2.85 6.87-2.85h12.96c2.56 0 5.03 1.03 6.85 2.85 1.84 1.82 2.85 4.29 2.85 6.87s-1.01 5.05-2.85 6.87c-1.82 1.82-4.29 2.85-6.85 2.85z"/><path d="m62.23 150.67h-12.96c-2.59 0-5.05-1.03-6.87-2.85s-2.85-4.31-2.85-6.87 1.03-5.05 2.85-6.87 4.29-2.85 6.87-2.85h12.96c2.56 0 5.03 1.03 6.87 2.85 1.82 1.82 2.83 4.29 2.83 6.87s-1.01 5.05-2.83 6.87c-1.84 1.82-4.31 2.85-6.87 2.85z"/><path d="m178.83 267.27c-10.9 0-21.53-3.23-30.61-9.27-9.05-6.06-16.1-14.66-20.26-24.72-4.17-10.06-5.27-21.15-3.14-31.81 2.13-10.68 7.38-20.5 15.07-28.22 7.71-7.69 17.51-12.93 28.19-15.07 10.68-2.13 21.75-1.03 31.83 3.14 10.06 4.17 18.66 11.23 24.69 20.29 6.06 9.05 9.29 19.69 9.29 30.59-.02 14.61-5.82 28.6-16.14 38.92s-24.34 16.12-38.92 16.14zm0-90.71c-7.04 0-13.94 2.11-19.81 6.01-5.84 3.93-10.42 9.48-13.13 16-2.68 6.51-3.4 13.68-2.01 20.57 1.36 6.92 4.77 13.27 9.75 18.25s11.33 8.38 18.25 9.75c6.9 1.37 14.06.67 20.58-2.04 6.51-2.68 12.07-7.26 16-13.13 3.9-5.84 5.99-12.74 5.99-19.78 0-9.44-3.76-18.51-10.44-25.17-6.68-6.68-15.74-10.44-25.17-10.47z"/><path d="m224.17 247.84c-3.14 0-6.25-.26-9.34-.79-2.54-.46-4.79-1.87-6.3-3.98-1.49-2.11-2.06-4.72-1.63-7.26s1.87-4.81 3.98-6.3 4.72-2.06 7.26-1.63c1.99.34 4.02.5 6.04.5 6.16 0 12.22-1.58 17.56-4.62 5.37-3.04 9.84-7.4 13.01-12.67 3.16-5.29 4.91-11.28 5.05-17.44.17-6.16-1.29-12.24-4.19-17.68-2.9-5.41-7.14-10.01-12.34-13.32-5.2-3.28-11.16-5.17-17.29-5.48-6.16-.31-12.29.98-17.77 3.74-5.51 2.75-10.2 6.9-13.63 12-1.44 2.16-3.66 3.62-6.18 4.12-2.54.5-5.17-.02-7.3-1.46s-3.62-3.66-4.12-6.2c-.48-2.54.05-5.15 1.48-7.28 5.29-7.9 12.55-14.3 21.05-18.56s17.96-6.25 27.45-5.77c9.48.5 18.71 3.42 26.73 8.53 8.02 5.08 14.61 12.17 19.07 20.57 4.48 8.38 6.71 17.8 6.47 27.31-.24 9.49-2.92 18.78-7.83 26.92-4.89 8.17-11.81 14.9-20.07 19.59-8.29 4.69-17.63 7.16-27.14 7.16z"/></g></svg>