<svg xmlns="http://www.w3.org/2000/svg" viewBox="0 0 602.95 602.95"><defs><style>.a,.b,.c{stroke:#000;stroke-miterlimit:10;}.a{stroke-width:5px;}.b,.c{fill:none;}.b{stroke-width:21px;}.c{stroke-width:35px;}</style></defs><path class="a" d="M562.9,419.13c-88.62,0-164.87-29.17-232-55-51.5-19.89-96.14-36.91-135.47-36.91-89.29,0-169.29,65.64-170.17,66.3a12.12,12.12,0,0,1-16.8-1.32,11.12,11.12,0,0,1,.71-15.71c.18-.17.37-.33.57-.49,3.53-2.87,87.51-71.82,185.64-71.82,44,0,90.38,17.9,144.31,38.45,65.19,25,139.23,53.48,223.43,53.48a11.66,11.66,0,0,1,11.93,11.39v.11c0,6.4-5.75,11.49-12.15,11.49Z" transform="translate(3.5 3.5)"/><path class="a" d="M580.8,365a9.52,9.52,0,0,1-4.2-.88C528.86,345.34,489.49,331,454.39,331c-42.66,0-82,15.91-107.63,29.17a11.47,11.47,0,1,1-11.14-20.05c.17-.1.35-.19.53-.28,27.85-14.36,70.94-31.6,118.24-31.6,39.33,0,80.66,15,130.83,34.92a11.31,11.31,0,0,1,6.48,14.62l-.07.18A11.57,11.57,0,0,1,580.8,365Z" transform="translate(3.5 3.5)"/><path d="M184.1,184.08h-69a34.48,34.48,0,0,1-5.52-68.51,45.87,45.87,0,0,1,80,0,34.48,34.48,0,0,1-5.53,68.51Zm-70.49-46.41c-4.87.45-10,5.53-10,11.94a11.41,11.41,0,0,0,11.33,11.49H184.1a11.5,11.5,0,0,0,0-23,10,10,0,0,1-8-.89c-2.65-1.32-4-4-4.86-6.85a22.7,22.7,0,0,0-42.88,0,11.33,11.33,0,0,1-5.74,6.63,12.94,12.94,0,0,1-9.06.66Z" transform="translate(3.5 3.5)"/><rect class="b" x="10.5" y="10.5" width="581.95" height="581.95"/><line class="c" x1="52.58" y1="464.37" x2="540.85" y2="464.37"/><line class="c" x1="52.58" y1="533.2" x2="411.07" y2="533.2"/><path d="M455.8,245.19v-124l-31.46,24.31L403.6,117.18l55.52-40.77h36.49V245.19Z" transform="translate(3.5 3.5)"/></svg>