<?xml version="1.0" encoding="UTF-8"?>
<svg id="Layer_1" data-name="Layer 1" xmlns="http://www.w3.org/2000/svg" viewBox="0 0 200 200">
  <defs>
    <style>
      .cls-1 {
        fill: #6cc24a;
      }
    </style>
  </defs>
  <path id="award-solid" class="cls-1" d="M91.34,11.51c5.23-3.46,12.03-3.46,17.27,0l8.44,5.55c2.82,1.84,6.16,2.74,9.53,2.56l10.1-.61c6.26-.37,12.14,3.02,14.94,8.63l4.55,9.06c1.52,3.01,3.96,5.45,6.97,6.97l9.15,4.6c5.61,2.8,9,8.68,8.63,14.94l-.62,10.1c-.19,3.37.7,6.71,2.56,9.53l5.62,8.44c3.46,5.23,3.46,12.03,0,17.27l-5.62,8.49c-1.84,2.82-2.74,6.16-2.56,9.53l.62,10.1c.37,6.26-3.02,12.14-8.63,14.94l-9.06,4.55c-3.01,1.52-5.45,3.96-6.97,6.97l-4.6,9.15c-2.8,5.61-8.68,9-14.94,8.63l-10.1-.62c-3.37-.19-6.71.7-9.53,2.56l-8.44,5.62c-5.23,3.46-12.03,3.46-17.27,0l-8.49-5.62c-2.82-1.84-6.16-2.74-9.53-2.56l-10.1.62c-6.26.37-12.14-3.02-14.94-8.63l-4.55-9.05c-1.52-3.01-3.96-5.45-6.97-6.97l-9.15-4.6c-5.61-2.8-9.01-8.68-8.63-14.94l.62-10.1c.19-3.37-.7-6.71-2.56-9.53l-5.56-8.49c-3.46-5.23-3.46-12.03,0-17.27l5.55-8.44c1.84-2.82,2.74-6.16,2.56-9.53l-.61-10.1c-.37-6.26,3.02-12.14,8.63-14.94l9.06-4.55c3.03-1.55,5.49-4.02,7.02-7.06l4.55-9.06c2.8-5.61,8.68-9,14.94-8.63l10.1.62c3.37.19,6.71-.7,9.53-2.56l8.49-5.56ZM137.91,99.97c0-20.96-16.99-37.94-37.94-37.94s-37.94,16.99-37.94,37.94,16.99,37.94,37.94,37.94,37.94-16.99,37.94-37.94h0Z"/>
</svg>