<?xml version="1.0" encoding="UTF-8"?>
<svg id="Layer_1" data-name="Layer 1" xmlns="http://www.w3.org/2000/svg" viewBox="0 0 200 200">
  <defs>
    <style>
      .cls-1 {
        fill: #6cc24a;
      }
    </style>
  </defs>
  <path class="cls-1" d="M89.34,183.66L19.81,116.53c-1.62-1.55-3.16-3.22-4.58-4.93h33.47c8.7,0,16.54-5.41,19.89-13.73l4.04-10.03,18.97,43.57c1.46,3.38,4.66,5.57,8.23,5.61,3.58.04,6.85-1.99,8.46-5.29l16.31-33.78.65,1.35c3.66,7.56,11.12,12.34,19.28,12.34h40.21c-1.42,1.71-2.96,3.38-4.58,4.93l-69.53,67.09c-2.89,2.79-6.69,4.34-10.66,4.34s-7.77-1.55-10.66-4.34ZM195.31,92.5h-50.79c-1.15,0-2.23-.68-2.77-1.75l-8.93-18.42c-1.58-3.22-4.77-5.29-8.27-5.29s-6.69,2.03-8.27,5.29l-15.93,32.95-19.62-45.32c-1.5-3.46-4.89-5.69-8.54-5.61s-6.96,2.35-8.39,5.89l-12.24,30.36c-.46,1.19-1.62,1.95-2.85,1.95l-41.05-.04c-1,0-1.92.16-2.81.44-2.19-6.33-3.35-13.09-3.35-19.98v-2.31C1.5,42.83,20.93,19.12,47.44,14.54c17.55-3.02,35.4,2.9,47.94,15.88l4.62,4.78,4.62-4.78c12.54-12.97,30.4-18.9,47.94-15.88,26.51,4.58,45.94,28.29,45.94,56.11v2.31c0,6.73-1.08,13.33-3.19,19.54Z"/>
</svg>