<?xml version="1.0" encoding="UTF-8"?>
<svg id="Layer_1" data-name="Layer 1" xmlns="http://www.w3.org/2000/svg" viewBox="0 0 200 200">
  <defs>
    <style>
      .cls-1 {
        fill: #6cc24a;
      }
    </style>
  </defs>
  <path class="cls-1" d="M187.95,110.86c5.84,0,11-4.81,11-11.04.34-3.09-1.03-5.84-3.78-8.25l-18.15-15.99v-41.6c0-6.08-4.92-11-11-11h-11c-6.08,0-11,4.92-11,11v12.62L107.4,14.4c-2.06-1.72-4.81-2.41-7.22-2.41s-5.16.34-7.56,2.75L4.44,91.58c-2.41,2.41-3.44,5.16-3.44,8.25,0,6.19,4.81,11.04,11,11.04h11v55.14c0,12.14,9.87,22,22,22h110.15c12.2,0,22.07-9.9,22-22.11l-.24-55.07h11l.03.03ZM100.01,67c12.15,0,22,9.85,22,22s-9.85,22-22,22-22-9.85-22-22,9.85-22,22-22ZM61.51,149.5c0-15.2,12.31-27.5,27.5-27.5h22c15.2,0,27.5,12.31,27.5,27.5,0,3.03-2.48,5.5-5.5,5.5h-66.01c-3.03,0-5.5-2.48-5.5-5.5Z"/>
</svg>