<?xml version="1.0" encoding="UTF-8"?>
<svg id="Layer_1" data-name="Layer 1" xmlns="http://www.w3.org/2000/svg" viewBox="0 0 200 200">
  <defs>
    <style>
      .cls-1 {
        fill: #6cc24a;
      }
    </style>
  </defs>
  <path class="cls-1" d="M141.25,53.87c0,18.77-25.13,52.22-36.16,66-2.65,3.3-7.56,3.3-10.18,0-11.03-13.78-36.16-47.23-36.16-66,0-22.79,18.46-41.25,41.25-41.25s41.25,18.46,41.25,41.25ZM144,81.51c1.2-2.37,2.3-4.74,3.3-7.08.17-.41.34-.86.52-1.27l39.87-15.95c5.43-2.17,11.31,1.82,11.31,7.67v93.09c0,3.37-2.06,6.39-5.19,7.67l-49.81,19.9v-104.02ZM48.3,60.16c.82,4.85,2.47,9.73,4.4,14.27,1,2.34,2.1,4.71,3.3,7.08v86.42l-43.69,17.5c-5.43,2.17-11.31-1.82-11.31-7.67v-93.09c0-3.37,2.06-6.39,5.19-7.67l42.14-16.84h-.03ZM113.68,126.75c4.78-5.98,12.27-15.71,19.32-26.47v85.7l-66-18.87v-66.82c7.05,10.76,14.54,20.49,19.32,26.47,7.05,8.8,20.32,8.8,27.36,0ZM100,64.87c7.59,0,13.75-6.16,13.75-13.75s-6.16-13.75-13.75-13.75-13.75,6.16-13.75,13.75,6.16,13.75,13.75,13.75Z"/>
</svg>