<?xml version="1.0" encoding="UTF-8"?>
<svg id="Layer_1" data-name="Layer 1" xmlns="http://www.w3.org/2000/svg" viewBox="0 0 200 200">
  <defs>
    <style>
      .cls-1 {
        fill: #6cc24a;
      }
    </style>
  </defs>
  <path class="cls-1" d="M88.8,16.02c0-2.45,1.57-4.62,3.92-5.35s4.86.14,6.26,2.13l78.38,111.98c1.19,1.71,1.33,3.95.38,5.81s-2.87,3.01-4.97,3.01h-78.38c-3.08,0-5.6-2.52-5.6-5.6V16.02ZM73.44,44.19c2.45.66,4.16,2.87,4.16,5.42v78.38c0,3.08-2.52,5.6-5.6,5.6H27.22c-1.99,0-3.85-1.05-4.83-2.8s-1.01-3.85-.03-5.6l44.79-78.38c1.26-2.2,3.85-3.29,6.3-2.62ZM1.22,151.9c-1.01-3.57,1.68-7.1,5.39-7.1h186.79c3.71,0,6.4,3.53,5.39,7.1l-1.4,5c-5.46,19.35-23.06,32.68-43.15,32.68H45.76c-20.09,0-37.69-13.33-43.15-32.65l-1.4-5v-.04Z"/>
</svg>