<?xml version="1.0" encoding="UTF-8"?>
<svg id="Layer_1" data-name="Layer 1" xmlns="http://www.w3.org/2000/svg" viewBox="0 0 200 200">
  <defs>
    <style>
      .cls-1 {
        fill: none;
      }

      .cls-2 {
        fill: #10436f;
      }
    </style>
  </defs>
  <path class="cls-1" d="M152.79,91.42l-26.76,19.44c-1.05.76-1.49,2.12-1.09,3.35l10.22,31.46c.9,2.76-2.27,5.06-4.62,3.35l-26.76-19.44c-1.05-.76-2.48-.76-3.53,0l-26.76,19.44c-2.35,1.71-5.51-.59-4.62-3.35l10.22-31.46c.4-1.24-.04-2.59-1.09-3.35l-26.76-19.44c-2.35-1.71-1.14-5.43,1.76-5.43h33.08c1.3,0,2.45-.84,2.85-2.07l10.22-31.46c.9-2.76,4.81-2.76,5.71,0l10.22,31.46c.4,1.24,1.55,2.07,2.85,2.07h33.08c2.91,0,4.11,3.72,1.76,5.43Z"/>
  <path class="cls-1" d="M152.79,91.42l-26.76,19.44c-1.05.76-1.49,2.12-1.09,3.35l10.22,31.46c.9,2.76-2.27,5.06-4.62,3.35l-26.76-19.44c-1.05-.76-2.48-.76-3.53,0l-26.76,19.44c-2.35,1.71-5.51-.59-4.62-3.35l10.22-31.46c.4-1.24-.04-2.59-1.09-3.35l-26.76-19.44c-2.35-1.71-1.14-5.43,1.76-5.43h33.08c1.3,0,2.45-.84,2.85-2.07l10.22-31.46c.9-2.76,4.81-2.76,5.71,0l10.22,31.46c.4,1.24,1.55,2.07,2.85,2.07h33.08c2.91,0,4.11,3.72,1.76,5.43Z"/>
  <path class="cls-2" d="M190,55.75c0-2.93-1.6-5.62-4.17-7.03L103.83,4.08c-2.38-1.3-5.27-1.3-7.65,0L14.17,48.73c-2.57,1.4-4.17,4.1-4.17,7.03v88.49c0,2.93,1.6,5.62,4.18,7.03l82,44.65c2.38,1.3,5.27,1.3,7.65,0l82-44.64c2.57-1.4,4.17-4.1,4.17-7.03V55.75ZM150.77,88.42l-26.76,19.44c-1.05.76-1.49,2.12-1.09,3.35l10.22,31.46c.9,2.76-2.27,5.06-4.62,3.35l-26.76-19.44c-1.05-.76-2.48-.76-3.53,0l-26.76,19.44c-2.35,1.71-5.51-.59-4.62-3.35l10.22-31.46c.4-1.24-.04-2.59-1.09-3.35l-26.76-19.44c-2.35-1.71-1.14-5.43,1.76-5.43h33.08c1.3,0,2.45-.84,2.85-2.07l10.22-31.46c.9-2.76,4.81-2.76,5.71,0l10.22,31.46c.4,1.24,1.55,2.07,2.85,2.07h33.08c2.91,0,4.11,3.72,1.76,5.43Z"/>
</svg>