<?xml version="1.0" encoding="UTF-8"?>
<svg id="Layer_1" data-name="Layer 1" xmlns="http://www.w3.org/2000/svg" viewBox="0 0 200 200">
  <defs>
    <style>
      .cls-1 {
        fill: #6cc24a;
      }
    </style>
  </defs>
  <path class="cls-1" d="M96.52,5.68c-5.52,1.35-10.8,2.94-15.79,4.79-27,10.02-45.89,27.2-58.45,47.65-7.44,12.19-12.64,25.48-15.99,39.02l97.18,97.18c5.52-1.35,10.8-2.94,15.79-4.79,27-10.02,45.89-27.2,58.45-47.65,7.49-12.19,12.64-25.48,15.99-38.98L96.52,5.68ZM197.84,79.26c2.5-23.23.57-45.89-3.15-63.97-1.1-5.28-5.32-9.37-10.68-10.27C160.21,1.06,139.06.12,120.37,1.79l77.47,77.47ZM79.59,198.17L2.16,120.74c-2.5,23.23-.57,45.89,3.15,63.97,1.1,5.28,5.32,9.37,10.68,10.27,23.81,3.97,44.95,4.91,63.64,3.23l-.04-.04ZM101.92,62.66c2.54-2.54,6.71-2.54,9.24,0l26.18,26.18c2.54,2.54,2.54,6.71,0,9.24s-6.71,2.54-9.24,0l-26.18-26.18c-2.54-2.54-2.54-6.71,0-9.24ZM82.29,82.29c2.54-2.54,6.71-2.54,9.24,0l26.18,26.18c2.54,2.54,2.54,6.71,0,9.24s-6.71,2.54-9.24,0l-26.18-26.18c-2.54-2.54-2.54-6.71,0-9.24ZM62.66,101.92c2.54-2.54,6.71-2.54,9.24,0l26.18,26.18c2.54,2.54,2.54,6.71,0,9.24-2.54,2.54-6.71,2.54-9.24,0l-26.18-26.18c-2.54-2.54-2.54-6.71,0-9.24Z"/>
</svg>