<?xml version="1.0" encoding="UTF-8"?>
<svg id="Layer_1" data-name="Layer 1" xmlns="http://www.w3.org/2000/svg" viewBox="0 0 200 200">
  <defs>
    <style>
      .cls-1 {
        fill: #6cc24a;
      }
    </style>
  </defs>
  <path class="cls-1" d="M168.29,1c-6.19,0-49.5,12.38-49.5,68.06v43.31c0,13.65,11.1,24.75,24.75,24.75h12.38v49.5c0,6.84,5.53,12.38,12.38,12.38s12.38-5.53,12.38-12.38V13.38c0-6.84-5.53-12.38-12.38-12.38ZM32.16,7.19c0-3.17-2.36-5.8-5.53-6.15-3.17-.35-5.99,1.74-6.69,4.8l-11.72,52.71c-.54,2.44-.81,4.91-.81,7.39,0,17.75,13.57,32.33,30.94,33.92v86.78c0,6.84,5.53,12.38,12.38,12.38s12.38-5.53,12.38-12.38v-86.78c17.36-1.59,30.94-16.16,30.94-33.92,0-2.47-.27-4.95-.81-7.39l-11.72-52.71c-.7-3.09-3.6-5.14-6.73-4.8s-5.49,2.98-5.49,6.15v51.9c0,2.09-1.7,3.79-3.79,3.79-1.97,0-3.6-1.51-3.79-3.48l-4.83-52.75c-.27-3.21-2.94-5.65-6.15-5.65s-5.88,2.44-6.15,5.65l-4.8,52.75c-.19,1.97-1.82,3.48-3.79,3.48-2.09,0-3.79-1.7-3.79-3.79l-.04-51.9ZM50.84,65.97h-.23l.12-.27.12.27Z"/>
</svg>