<?xml version="1.0" encoding="UTF-8"?>
<svg id="Layer_1" xmlns="http://www.w3.org/2000/svg" version="1.1" viewBox="0 0 200 164.3">
  <!-- Generator: Adobe Illustrator 29.3.0, SVG Export Plug-In . SVG Version: 2.1.0 Build 146)  -->
  <defs>
    <style>
      .st0 {
        fill: #6cc24a;
      }
    </style>
  </defs>
  <g id="cap">
    <g id="Layer_5">
      <path class="st0" d="M112.4,120.5c-7.9,4.5-17.5,4.5-25.4,0l-57.5-35.2s-5.2-3.2-5.2,4v35.2c0,18.5,33.7,38.5,75.3,38.5s75.3-20,75.3-38.5v-37.2c0-5.8-3.7-3-3.7-3l-59,36.2Z"/>
      <path class="st0" d="M195.2,57.2c4.4-2.7,4.4-7.1,0-9.8L107.7,3.6c-4.4-2.7-11.6-2.7-16.1,0L4.1,47.4c-4.4,2.7-4.4,7.1,0,9.8l87.6,53.7c4.4,2.7,11.6,2.7,16.1,0"/>
      <path class="st0" d="M191.6,136.8v-59.3s0-2.8-1.6-1.9c-1.3.7-4.6,2.6-5.8,3.6-1.3,1.2-1,3.8-1,3.8v53.8c0,.6-.4,1.1-1,1.3-4.9,2.9-6.5,9.1-3.7,14,2.9,4.9,9.1,6.5,14,3.7,4.9-2.9,6.5-9.1,3.7-14-.9-1.5-2.2-2.8-3.7-3.7-.5-.2-.9-.7-.9-1.3Z"/>
    </g>
  </g>
</svg>