<svg viewBox="0 0 200 164.3" xmlns="http://www.w3.org/2000/svg"><g fill="#6cc24a"><path d="m111 118.5c-7.1 4.3-15.6 4.3-22.7 0l-51.4-33.4s-4.6-3-4.6 3.8v33.4c0 17.5 30.1 36.5 67.3 36.5s67.3-19 67.3-36.5v-35.3c0-5.5-3.3-2.8-3.3-2.8l-52.7 34.3h.2z"/><path d="m185.1 58.5c3.9-2.6 3.9-6.7 0-9.3l-78.3-41.5c-3.9-2.6-10.4-2.6-14.4 0l-78.2 41.5c-3.9 2.6-3.9 6.7 0 9.3l78.3 50.9c3.9 2.6 10.4 2.6 14.4 0"/><path d="m181.8 134v-56.2s0-2.7-1.4-1.8c-1.2.7-4.1 2.5-5.2 3.4-1.2 1.1-.9 3.6-.9 3.6v51c0 .6-.4 1-.9 1.2-4.4 2.8-5.8 8.6-3.3 13.3 2.6 4.6 8.1 6.2 12.5 3.5 4.4-2.8 5.8-8.6 3.3-13.3-.8-1.4-2-2.7-3.3-3.5-.4-.2-.8-.7-.8-1.2z"/></g></svg>