<?xml version="1.0" encoding="UTF-8"?>
<svg id="Layer_1" data-name="Layer 1" xmlns="http://www.w3.org/2000/svg" viewBox="0 0 200 200">
  <defs>
    <style>
      .cls-1 {
        fill: #6cc24a;
      }
    </style>
  </defs>
  <path class="cls-1" d="M100,12h38.5c3.02,0,5.5,2.47,5.5,5.5v22c0,3.03-2.48,5.5-5.5,5.5h-27.26l30.8,22h34.96c12.13,0,22,9.87,22,22v77c0,12.13-9.87,22-22,22h-60.5v-38.5c0-9.11-7.39-16.5-16.5-16.5s-16.5,7.39-16.5,16.5v38.5H23c-12.13,0-22-9.87-22-22v-77c0-12.13,9.87-22,22-22h34.96l31.04-22.17v-21.83c0-6.08,4.92-11,11-11ZM116.5,94.5c0-9.11-7.39-16.5-16.5-16.5s-16.5,7.39-16.5,16.5,7.39,16.5,16.5,16.5,16.5-7.39,16.5-16.5ZM28.5,89c-3.03,0-5.5,2.47-5.5,5.5v22c0,3.02,2.47,5.5,5.5,5.5h11c3.03,0,5.5-2.48,5.5-5.5v-22c0-3.03-2.47-5.5-5.5-5.5h-11ZM155,94.5v22c0,3.02,2.48,5.5,5.5,5.5h11c3.02,0,5.5-2.48,5.5-5.5v-22c0-3.03-2.48-5.5-5.5-5.5h-11c-3.02,0-5.5,2.47-5.5,5.5ZM28.5,133c-3.03,0-5.5,2.48-5.5,5.5v22c0,3.02,2.47,5.5,5.5,5.5h11c3.03,0,5.5-2.48,5.5-5.5v-22c0-3.02-2.47-5.5-5.5-5.5h-11ZM160.5,133c-3.02,0-5.5,2.48-5.5,5.5v22c0,3.02,2.48,5.5,5.5,5.5h11c3.02,0,5.5-2.48,5.5-5.5v-22c0-3.02-2.48-5.5-5.5-5.5h-11Z"/>
</svg>