<?xml version="1.0" encoding="UTF-8"?>
<svg id="Layer_1" data-name="Layer 1" xmlns="http://www.w3.org/2000/svg" viewBox="0 0 200 200">
  <defs>
    <style>
      .cls-1 {
        fill: #6cc24a;
      }
    </style>
  </defs>
  <path class="cls-1" d="M24.08,136.45c12.9,11.17,33.42,25.53,51.4,22.8,1.89-.28,3.74-.77,5.57-1.39-2.85-3.81-5.35-7.55-7.49-10.95-6.78-10.83-8.91-23.27-8.01-35.15-6.37,1.27-12.13,4.02-16.93,7.86-2.01,1.61-5.04.4-4.58-2.17,1.98-10.37,10.21-18.84,21.1-20.51.8-.12,1.64-.22,2.44-.25l6-40.63c.62-4.27,2.48-10.12,7.74-14.2,5.76-4.42,15.75-9.44,32.06-10.92-.25-.22-.5-.43-.74-.65-6.25-4.83-22.4-12.87-57.27-7.58C20.49,28,7.34,40.47,2.76,46.94c-1.76,2.48-2.01,5.6-1.58,8.63l7.49,50.84c1.7,11.54,6.65,22.46,15.41,30.08v-.03ZM51.22,68.5c1.36-.96,3.34-.62,3.65,1.02.03.15.06.34.09.5.99,6.75-3.59,13-10.24,14.02s-12.84-3.65-13.83-10.37c-.03-.15-.03-.34-.06-.5-.19-1.67,1.61-2.6,3.19-2.07,2.78.93,5.82,1.21,8.88.74s5.91-1.64,8.29-3.34h.03ZM81.95,141.65c9.1,14.51,24.6,34.32,42.58,37.04,17.98,2.72,38.52-11.6,51.4-22.8,8.76-7.58,13.71-18.5,15.41-30.08l7.49-50.84c.43-3.03.19-6.16-1.58-8.63-4.58-6.47-17.73-18.94-52.6-24.23-34.87-5.29-50.99,2.75-57.24,7.58-2.41,1.86-3.56,4.77-3.99,7.8l-7.49,50.84c-1.7,11.54-.12,23.45,6.06,33.32h-.03ZM126.16,93.78c-2.38-1.7-5.2-2.88-8.29-3.34s-6.13-.19-8.88.74c-1.58.53-3.37-.4-3.19-2.07.03-.15.03-.34.06-.5.99-6.75,7.18-11.39,13.83-10.37,6.65,1.02,11.23,7.27,10.24,14.02-.03.15-.06.34-.09.5-.31,1.64-2.29,1.98-3.65,1.02h-.03ZM168.31,98.58c-.31,1.64-2.29,1.98-3.65,1.02-2.38-1.7-5.2-2.88-8.29-3.34s-6.13-.19-8.88.74c-1.58.53-3.37-.4-3.19-2.07.03-.15.03-.34.06-.5.99-6.75,7.18-11.39,13.83-10.37s11.23,7.27,10.24,14.02c-.03.15-.06.34-.09.5h-.03ZM164.99,129.34c-6.06,13.83-20.67,22.43-36.14,20.08-15.47-2.35-26.95-14.91-28.78-29.92-.31-2.57,2.75-3.74,4.7-2.07,7.4,6.44,16.59,10.92,26.92,12.47s20.45.03,29.36-3.96c2.35-1.05,4.95.99,3.9,3.37l.03.03Z"/>
</svg>