<?xml version="1.0" encoding="UTF-8"?>
<svg id="Layer_1" data-name="Layer 1" xmlns="http://www.w3.org/2000/svg" viewBox="0 0 200 200">
  <defs>
    <style>
      .cls-1 {
        fill: #6cc24a;
      }
    </style>
  </defs>
  <path class="cls-1" d="M156.28,34.61c10.2-5.85,32.9-7.37,38.88,3.07s-6.81,29.26-17.01,35.1l-34.77,19.93.09,69.64c0,3.96-2.11,7.59-5.54,9.55l-16.76,9.61c-3.16,1.81-7.2.09-8.08-3.45l-14.72-59.55-30.66,17.57-3.04,24.56c-.21,1.71-1.23,3.24-2.72,4.1l-12.53,7.18c-2.33,1.33-5.25.51-6.57-1.78-.22-.39-.38-.81-.52-1.25l-9.42-38.22-28.21-27.45c-.34-.32-.59-.69-.82-1.08-1.33-2.33-.51-5.25,1.78-6.57l12.53-7.18c1.49-.85,3.33-.96,4.91-.28l22.73,9.79,30.69-17.59-43.95-42.8c-2.64-2.53-2.09-6.89,1.08-8.7l16.76-9.61c3.43-1.97,7.65-1.93,11.04.05l60.04,35.28,34.77-19.93h0Z"/>
</svg>