<svg viewBox="0 0 200 200" xmlns="http://www.w3.org/2000/svg"><circle cx="100.5" cy="99.7" fill="#5ab6e7" r="98"/><path d="m156.7 78.4c-1.7-10.2-11.3-17.1-21.5-15.5-.3 0-.6 0-.9.2-5.8-15-21.5-24.4-38.1-21.7-9.2 1.5-17.1 6.6-22.3 13.7-3.4-.8-7-1-10.7-.4-14.7 2.4-24.7 16.3-22.3 31s16.3 24.7 31 22.3c3.7-.6 7-1.9 10-3.8 7.2 5.1 16.3 7.4 25.7 5.9 8.8-1.4 16.3-6.1 21.6-12.5 3.6 2 7.8 2.9 12.2 2.2 10.1-1.6 17-11.2 15.3-21.4z" fill="#fff"/><path d="m135.8 112.7 10.3 39" fill="none" stroke="#fff" stroke-miterlimit="10" stroke-width="4"/><path d="m116.3 125.3 10.3 39" fill="none" stroke="#fff" stroke-miterlimit="10" stroke-width="4"/><path d="m92.2 118.5 10.3 38.9" fill="none" stroke="#fff" stroke-miterlimit="10" stroke-width="4"/><path d="m72.7 122 10.3 39" fill="none" stroke="#fff" stroke-miterlimit="10" stroke-width="4"/><circle cx="100.3" cy="99.6" fill="#6cc24a" r="98.1"/><g fill="#fff"><path d="m47.5 100.1c0-.9 0-1.8 0-2.7h-21.6c-1.5 0-2.7 1.2-2.7 2.7s1.2 2.7 2.7 2.7h21.6c0-.9 0-1.8 0-2.7z"/><path d="m98.9 48.7h2.7v-21.7c0-1.5-1.2-2.7-2.7-2.7s-2.7 1.2-2.7 2.7v21.6h2.7z"/><path d="m60.7 65.7c1.2-1.3 2.4-2.6 3.8-3.8l-15.3-15.3c-1-1-2.7-1-3.8 0-1 1-1 2.7 0 3.8z"/><path d="m137.1 65.7 15.3-15.3c1-1 1-2.7 0-3.8-1-1-2.7-1-3.8 0l-15.3 15.3c1.4 1.2 2.7 2.4 3.8 3.8z"/><path d="m137.1 134.6c-1.2 1.3-2.4 2.6-3.8 3.8l15.3 15.3c.5.5 1.2.8 1.9.8s1.4-.3 1.9-.8c1-1 1-2.7 0-3.8z"/><path d="m171.9 97.4h-21.6c0 .9.1 1.8.1 2.7s0 1.8-.1 2.7h21.6c1.5 0 2.7-1.2 2.7-2.7s-1.2-2.7-2.7-2.7z"/><path d="m60.7 134.6-15.3 15.3c-1 1-1 2.7 0 3.8.5.5 1.2.8 1.9.8s1.4-.3 1.9-.8l15.3-15.3c-1.3-1.3-2.6-2.5-3.8-3.8z"/><path d="m98.9 151.6c-.9 0-1.8 0-2.7-.1v21.6c0 1.5 1.2 2.7 2.7 2.7s2.7-1.2 2.7-2.7v-21.6c-.9 0-1.8.1-2.7.1z"/><circle cx="98.9" cy="100.1" r="41.8"/></g></svg>