<?xml version="1.0" encoding="UTF-8"?>
<svg id="Layer_1" data-name="Layer 1" xmlns="http://www.w3.org/2000/svg" viewBox="0 0 200 200">
  <defs>
    <style>
      .cls-1 {
        fill: #6cc24a;
      }
    </style>
  </defs>
  <path class="cls-1" d="M23,12C10.87,12,1,21.87,1,34v99c0,12.13,9.87,22,22,22h60.5l-3.68,11h-23.82c-6.08,0-11,4.92-11,11s4.92,11,11,11h88c6.08,0,11-4.92,11-11s-4.92-11-11-11h-23.82l-3.68-11h60.5c12.13,0,22-9.87,22-22V34c0-12.13-9.87-22-22-22H23ZM177,34v77H23V34h154Z"/>
</svg>